SplineFontDB: 3.0
FontName: Khartiya-Bold
FullName: Khartiya Bold
FamilyName: Khartiya
Weight: Bold
Copyright: Copyright 1990 as an unpublished work by Bitstream Inc.  All rights reserved.  Confidential.\n\nCopyright (c) 2009, 2010, 2011, 2012 Andrey V. Panov
Version: 1.0
ItalicAngle: 0
UnderlinePosition: -109
UnderlineWidth: 90
Ascent: 770
Descent: 230
LayerCount: 2
Layer: 0 0 "+BBcEMAQ0BD0EOAQ5 +BD8EOwQwBD0A"  1
Layer: 1 0 "+BB8ENQRABDUENAQ9BDgEOQAA +BD8EOwQwBD0A"  0
UniqueID: 15530632
FSType: 8
OS2Version: 0
OS2_WeightWidthSlopeOnly: 0
OS2_UseTypoMetrics: 1
CreationTime: 1136849748
ModificationTime: 1332641207
PfmFamily: 17
TTFWeight: 700
TTFWidth: 5
LineGap: 0
VLineGap: 0
Panose: 2 4 7 3 5 5 6 8 2 4
OS2TypoAscent: 770
OS2TypoAOffset: 0
OS2TypoDescent: -230
OS2TypoDOffset: 0
OS2TypoLinegap: 200
OS2WinAscent: 964
OS2WinAOffset: 0
OS2WinDescent: 236
OS2WinDOffset: 0
HheadAscent: 964
HheadAOffset: 0
HheadDescent: -236
HheadDOffset: 0
OS2Vendor: 'PfEd'
Lookup: 258 0 0 "LGC kerning"  {"LGC kerning subtable" [150,15,0] } ['kern' ('cyrl' <'dflt' > 'grek' <'dflt' > 'latn' <'dflt' > ) ]
MarkAttachClasses: 1
DEI: 91125
LangName: 1033 "" "" "" "" "" "" "" "" "" "" "" "" "" "Copyright (c) 2009-2012, Andrey V. Panov (<panov @ canopus.iacp.dvo.ru>),+AAoA-with Reserved Font Name Khartiya.+AAoACgAA-This Font Software is licensed under the SIL Open Font License, Version 1.1.+AAoA-This license is copied below, and is also available with a FAQ at:+AAoA-http://scripts.sil.org/OFL+AAoA" "http://scripts.sil.org/OFL" 
LangName: 1049 "" "+BCUEMARABEIEOARP" 
Encoding: UnicodeBmp
UnicodeInterp: none
NameList: Adobe Glyph List
DisplaySize: -48
AntiAlias: 1
FitToEm: 1
WinInfo: 7808 16 14
BeginPrivate: 5
BlueValues 32 [-16 0 486 500 671 687 739 743 ]
OtherBlues 31 [-219 -219 -170 -170 -146 -146]
StdHW 4 [53]
StdVW 5 [122]
ForceBold 5 false
EndPrivate

StartChar: exclam
Encoding: 33 33 1
Width: 340
Flags: HMW
HStem: -7 152<150 190.5> 198 486<146.5 193.5 146.5 197 144 193.5>
VStem: 95 150<47 89.5>
LayerCount: 2
Fore
SplineSet
94 605 m 0
 94 656 123 684 170 684 c 0
 217 684 246 655 246 602 c 0
 246 592 245 576 242 555 c 2
 197 198 l 1
 144 198 l 1
 99 553 l 2
 96 577 94 595 94 605 c 0
95 68 m 0
 95 111 129 145 170 145 c 0
 211 145 245 111 245 68 c 0
 245 26 211 -7 170 -7 c 0
 130 -7 95 26 95 68 c 0
EndSplineSet
EndChar

StartChar: quotedbl
Encoding: 34 34 2
Width: 339
Flags: HMW
HStem: 418 296<78 78 78 97 242 261 242 242>
VStem: 41 93<658 678> 205 94<658.5 678>
LayerCount: 2
Fore
SplineSet
205 661 m 0
 205 695 223 714 252 714 c 0
 281 714 299 695 299 662 c 0
 299 655 298 649 297 642 c 2
 261 418 l 1
 242 418 l 1
 206 642 l 2
 205 649 205 655 205 661 c 0
EndSplineSet
Refer: 103 39 N 1 0 0 1 0 0 2
EndChar

StartChar: numbersign
Encoding: 35 35 3
Width: 736
Flags: HMW
HStem: -24 20 221 60<56 193 56 212 279 389 56 259 477 634> 416 62<105 256 105 276 343 454 105 323 541 675> 690 20<354 354>
VStem: 56 619<221 478 281 478>
LayerCount: 2
Fore
SplineSet
56 221 m 1
 56 281 l 1
 212 281 l 1
 256 416 l 1
 105 416 l 1
 105 478 l 1
 276 478 l 1
 354 710 l 1
 417 692 l 1
 343 478 l 1
 476 478 l 1
 552 709 l 1
 615 691 l 1
 541 478 l 1
 675 478 l 1
 675 416 l 1
 521 416 l 1
 477 281 l 1
 634 281 l 1
 634 221 l 1
 456 221 l 1
 378 -23 l 1
 314 -7 l 1
 389 221 l 1
 259 221 l 1
 179 -24 l 1
 116 -6 l 1
 193 221 l 1
 56 221 l 1
279 281 m 1
 408 281 l 1
 454 416 l 1
 323 416 l 1
 279 281 l 1
EndSplineSet
EndChar

StartChar: dollar
Encoding: 36 36 4
Width: 581
Flags: HMW
HStem: -102 20 1 58<266 266 266 321> 607 61<271 271> 722 20<271 324 324 324>
VStem: 70 117<485.5 529.5> 266 55<-102 1 -102 1> 415 118<151 196>
LayerCount: 2
Fore
SplineSet
61 31 m 1
 61 204 l 1
 128 204 l 1
 148 86 l 1
 183 68 222 60 266 59 c 1
 266 287 l 1
 133 322 70 381 70 480 c 0
 70 579 142 651 271 668 c 1
 271 742 l 1
 324 742 l 1
 324 669 l 1
 379 668 438 658 500 641 c 1
 500 476 l 1
 435 476 l 1
 417 588 l 1
 396 601 365 608 324 611 c 1
 324 397 l 1
 466 360 533 302 533 202 c 0
 533 100 455 20 321 1 c 1
 321 -102 l 1
 266 -102 l 1
 266 1 l 1
 185 4 117 14 61 31 c 1
187 510 m 0
 187 461 215 428 271 411 c 1
 271 607 l 1
 217 596 187 560 187 510 c 0
322 63 m 1
 380 72 415 114 415 170 c 0
 415 222 385 256 322 273 c 1
 322 63 l 1
EndSplineSet
EndChar

StartChar: percent
Encoding: 37 37 5
Width: 888
Flags: HW
HStem: -12 45<671.5 717 671.5 747> 263 46<177.5 222.5 177.5 254> 363 44<672 716.5> 638 45<178 222.5>
VStem: 37 95<419 528.5 419 540> 270 100<419 528.5> 529 96<143.5 252.5 143.5 264> 763 100<143 252.5>
LayerCount: 2
Fore
SplineSet
37 474 m 0
 37 606 102 683 203 683 c 0
 304 683 370 605 370 474 c 0
 370 342 305 263 203 263 c 0
 101 263 37 341 37 474 c 0
132 474 m 0
 132 364 155 309 200 309 c 0
 245 309 270 364 270 474 c 0
 270 583 245 638 200 638 c 0xff
 156 638 132 583 132 474 c 0
203 0 m 1
 621 671 l 1
 691 671 l 1
 273 0 l 1
 203 0 l 1
529 198 m 0
 529 330 595 407 696 407 c 0
 797 407 863 328 863 198 c 0
 863 66 798 -12 696 -12 c 0
 594 -12 529 65 529 198 c 0
625 198 m 0
 625 89 649 33 694 33 c 0
 740 33 763 88 763 198 c 0
 763 307 739 363 694 363 c 0
 650 363 625 307 625 198 c 0
EndSplineSet
EndChar

StartChar: ampersand
Encoding: 38 38 6
Width: 741
Flags: HW
HStem: -12 12 48 21 335 46<502 711 502 711> 627 57<281 329.5>
VStem: 53 126<178.5 227> 101 122<519 563.5> 388 116<495 554>
LayerCount: 2
Fore
SplineSet
53 185 m 0xe8
 53 269 99 327 192 357 c 1
 131 406 101 457 101 515 c 0
 101 612 185 684 311 684 c 0
 430 684 504 618 504 530 c 0
 504 448 456 394 355 361 c 1
 512 196 l 1
 540 232 558 270 567 309 c 1
 555 326 l 1
 502 335 l 1
 502 381 l 1
 711 381 l 1
 711 335 l 1
 641 322 l 1
 619 256 589 201 550 155 c 1
 641 55 l 1
 724 48 l 1
 724 0 l 1
 514 0 l 1
 514 24 l 1
 472 72 l 1
 408 16 339 -12 263 -12 c 0
 139 -12 53 73 53 185 c 0xe8
179 225 m 0
 179 132 239 69 326 69 c 0
 365 69 400 83 433 112 c 1
 233 324 l 1xfe
 198 297 179 263 179 225 c 0
223 543 m 0
 223 495 257 452 317 396 c 1x16
 366 433 388 469 388 521 c 0
 388 587 355 627 304 627 c 0
 258 627 223 592 223 543 c 0
EndSplineSet
EndChar

StartChar: quoteright
Encoding: 8217 8217 7
Width: 255
Flags: HMW
HStem: 395 303<69 156.5>
VStem: 61 158<619.5 626 553 649.5>
LayerCount: 2
Fore
SplineSet
48 425 m 1
 110 462 141 509 141 562 c 0
 141 567 141 572 140 578 c 1
 80 578 l 1
 68 593 61 610 61 629 c 0
 61 670 88 698 130 698 c 0
 183 698 219 658 219 594 c 0
 219 512 167 438 69 395 c 1
 48 425 l 1
EndSplineSet
EndChar

StartChar: parenleft
Encoding: 40 40 8
Width: 428
Flags: HMW
HStem: -142 51<386 386> 667 51<386 386>
VStem: 91 118<165.5 404.5 165.5 421.5>
LayerCount: 2
Fore
SplineSet
91 285 m 0
 91 558 200 710 386 718 c 1
 386 667 l 1
 261 650 209 525 209 284 c 0
 209 47 265 -77 386 -91 c 1
 386 -142 l 1
 203 -135 91 17 91 285 c 0
EndSplineSet
EndChar

StartChar: parenright
Encoding: 41 41 9
Width: 428
Flags: HMW
HStem: -142 51<37 37> 667 51<37 37>
VStem: 214 115<169 408.5>
LayerCount: 2
Fore
SplineSet
37 -91 m 1
 161 -75 214 49 214 289 c 0
 214 528 160 653 37 667 c 1
 37 718 l 1
 219 709 329 557 329 288 c 0
 329 18 218 -134 37 -142 c 1
 37 -91 l 1
EndSplineSet
EndChar

StartChar: asterisk
Encoding: 42 42 10
Width: 500
Flags: HMW
VStem: 53 393<571 571>
LayerCount: 2
Fore
SplineSet
53 571 m 1
 125 597 l 1
 232 521 l 1
 227 507 l 1
 96 508 l 1
 53 571 l 1
128 415 m 1
 233 493 l 1
 245 483 l 1
 204 359 l 1
 130 338 l 1
 128 415 l 1
202 657 m 1
 250 718 l 1
 297 657 l 1
 258 532 l 1
 241 532 l 1
 202 657 l 1
253 484 m 1
 266 492 l 1
 371 415 l 1
 368 338 l 1
 294 359 l 1
 253 484 l 1
268 522 m 1
 374 598 l 1
 446 571 l 1
 403 507 l 1
 273 506 l 1
 268 522 l 1
EndSplineSet
EndChar

StartChar: plus
Encoding: 43 43 11
Width: 833
Flags: HMW
HStem: 258 81<124 375 124 375 458 709>
VStem: 375 83<0 258 0 258 339 596>
LayerCount: 2
Fore
SplineSet
124 258 m 1
 124 339 l 1
 375 339 l 1
 375 596 l 1
 458 596 l 1
 458 339 l 1
 709 339 l 1
 709 258 l 1
 458 258 l 1
 458 0 l 1
 375 0 l 1
 375 258 l 1
 124 258 l 1
EndSplineSet
EndChar

StartChar: comma
Encoding: 44 44 12
Width: 289
Flags: HMW
HStem: -175 304<31 156>
VStem: 59 161<50 56 -27.5 81.5>
LayerCount: 2
Fore
SplineSet
31 -129 m 1
 103 -116 142 -72 142 -3 c 0
 142 0 142 4 142 7 c 1
 80 7 l 1
 66 22 59 39 59 61 c 0
 59 102 87 129 128 129 c 0
 184 129 220 89 220 23 c 0
 220 -78 146 -162 31 -175 c 1
 31 -129 l 1
EndSplineSet
EndChar

StartChar: hyphen
Encoding: 45 45 13
Width: 326
Flags: HMW
HStem: 192 98<36 290 36 290>
VStem: 36 254<192 290 192 290>
LayerCount: 2
Fore
SplineSet
36 192 m 1
 36 290 l 1
 290 290 l 1
 290 192 l 1
 36 192 l 1
EndSplineSet
EndChar

StartChar: period
Encoding: 46 46 14
Width: 289
Flags: W
HStem: -8 158<90.352 199.648>
VStem: 66 158<16.352 125.648>
LayerCount: 2
Back
SplineSet
144 151 m 0
 188 151 224 115 224 71 c 0
 224 27 188 -8 144 -8 c 0
 101 -8 66 27 66 71 c 0
 66 116 101 151 144 151 c 0
EndSplineSet
Fore
SplineSet
66 71 m 0
 66 115 101 150 145 150 c 0
 189 150 224 115 224 71 c 0
 224 27 189 -8 145 -8 c 0
 101 -8 66 27 66 71 c 0
EndSplineSet
EndChar

StartChar: slash
Encoding: 47 47 15
Width: 491
Flags: HMW
HStem: -93 764<-27 471 -27 471>
VStem: -27 498
LayerCount: 2
Fore
SplineSet
-27 -93 m 1
 396 671 l 1
 471 671 l 1
 48 -93 l 1
 -27 -93 l 1
EndSplineSet
EndChar

StartChar: zero
Encoding: 48 48 16
Width: 581
Flags: HMW
HStem: -12 57<254.5 333.5 254.5 370.5> 627 56<255.5 333.5>
VStem: 40 136<241 435 241 445.5> 412 136<239 433>
LayerCount: 2
Fore
SplineSet
40 335 m 0
 40 556 139 683 293 683 c 0
 448 683 548 555 548 335 c 0
 548 115 448 -12 293 -12 c 0
 139 -12 40 114 40 335 c 0
176 339 m 0
 176 143 215 45 294 45 c 0
 373 45 412 142 412 336 c 0
 412 530 373 627 294 627 c 0
 217 627 176 531 176 339 c 0
EndSplineSet
EndChar

StartChar: one
Encoding: 49 49 17
Width: 581
Flags: W
HStem: 0 50<148 495 148 148> 557 51<109 109> 661 20<325 390 390 390>
VStem: 260 130<74 566 566 566>
LayerCount: 2
Fore
SplineSet
109 557 m 1
 109 608 l 1
 325 681 l 1
 390 681 l 1
 390 70 l 1
 401 54 l 1
 495 50 l 1
 495 0 l 1
 148 0 l 1
 148 50 l 1
 248 56 l 1
 260 74 l 1
 260 566 l 1
 251 578 l 1
 109 557 l 1
EndSplineSet
EndChar

StartChar: two
Encoding: 50 50 18
Width: 581
Flags: HMW
HStem: 0 102<173 453 173 532> 619 64<241 288>
VStem: 373 138<424 523.5>
LayerCount: 2
Fore
SplineSet
48 0 m 1
 48 79 l 1
 259 243 373 354 373 479 c 0
 373 568 326 619 250 619 c 0
 232 619 212 615 192 607 c 1
 192 478 l 1
 170 466 149 460 129 460 c 0
 85 460 57 488 57 530 c 0
 57 613 148 683 292 683 c 0
 426 683 511 604 511 488 c 0
 511 360 395 253 173 102 c 1
 453 102 l 1
 471 190 l 1
 532 190 l 1
 532 0 l 1
 48 0 l 1
EndSplineSet
EndChar

StartChar: three
Encoding: 51 51 19
Width: 581
Flags: HW
HStem: -11 59<243 291 243 330> 310 66<242 263 211.5 291.5> 618 64<230.5 275.5>
VStem: 363 135<473.5 534> 387 136<148 223.5>
LayerCount: 2
Fore
SplineSet
42 114 m 0
 42 153 70 179 113 179 c 0
 125 179 137 176 152 171 c 1
 184 63 l 1
 210 53 233 48 253 48 c 0
 329 48 387 109 387 187 c 0x88
 387 260 334 310 249 310 c 0
 235 310 214 309 187 305 c 1
 187 377 l 1
 197 376 207 376 216 376 c 0
 310 376 363 422 363 499 c 0
 363 569 312 618 239 618 c 0
 222 618 203 614 183 606 c 1
 183 489 l 1
 167 479 151 475 130 475 c 0
 87 475 58 504 58 544 c 0
 58 616 145 682 281 682 c 0
 414 682 498 610 498 513 c 0
 498 434 442 378 334 353 c 1x70
 456 344 523 284 523 193 c 0
 523 80 416 -11 244 -11 c 0
 121 -11 42 48 42 114 c 0
EndSplineSet
EndChar

StartChar: four
Encoding: 52 52 20
Width: 581
Flags: HMW
HStem: -31 20 181 79<116 336 116 336 453 566> 657 20<355 453 453 453>
VStem: 336 117<-31 181 -31 181 260 539 539 539>
DStem2: 25 262 116 260 0.622392 0.782705<55.0723 410.373>
LayerCount: 2
Fore
SplineSet
25 181 m 1
 25 262 l 1
 355 677 l 1
 453 677 l 1
 453 260 l 1
 566 260 l 1
 566 181 l 1
 453 181 l 1
 453 -31 l 1
 336 -31 l 1
 336 181 l 1
 25 181 l 1
116 260 m 1
 336 260 l 1
 336 539 l 1
 116 260 l 1
EndSplineSet
EndChar

StartChar: five
Encoding: 53 53 21
Width: 581
Flags: HMW
HStem: -9 58<240 288.5 240 326.5> 339 81<196.5 367.5> 567 104<177 489 177 177>
VStem: 96 81<398 567 398 671> 392 133<157 238.5>
LayerCount: 2
Fore
SplineSet
55 111 m 0
 55 145 85 174 130 174 c 0
 141 174 153 171 167 167 c 1
 201 54 l 1
 217 50 232 49 248 49 c 0
 329 49 392 111 392 194 c 0
 392 283 327 339 217 339 c 0
 176 339 135 334 96 325 c 1
 96 671 l 1
 489 671 l 1
 489 567 l 1
 177 567 l 1
 177 398 l 1
 221 413 260 420 298 420 c 0
 437 420 525 341 525 224 c 0
 525 90 412 -9 241 -9 c 0
 126 -9 55 45 55 111 c 0
EndSplineSet
EndChar

StartChar: six
Encoding: 54 54 22
Width: 581
Flags: HMW
HStem: -13 62<268.5 341.5 268.5 371.5> 372 80<318 328.5> 694 20<469 469>
VStem: 47 132<208 291.5 208 416.5> 421 132<162 263>
LayerCount: 2
Fore
SplineSet
47 289 m 0
 47 544 210 713 469 714 c 1
 469 640 l 1
 427 644 l 1
 295 634 212 550 187 401 c 1
 237 434 290 452 346 452 c 0
 463 452 553 360 553 233 c 0
 553 88 446 -13 297 -13 c 0
 144 -13 47 100 47 289 c 0
179 287 m 0
 179 129 228 49 309 49 c 0
 374 49 421 110 421 214 c 0
 421 312 369 372 288 372 c 0
 250 372 214 364 181 347 c 1
 180 317 179 296 179 287 c 0
EndSplineSet
EndChar

StartChar: seven
Encoding: 55 55 23
Width: 581
Flags: HMW
HStem: -34 20 560 111<157 446 157 157>
VStem: 76 479<606 671 606 671 606 671>
DStem2: 124 -34 231 -6 0.467888 0.883788<74.8101 675.63>
LayerCount: 2
Fore
SplineSet
76 467 m 1
 76 671 l 1
 555 671 l 1
 555 606 l 1
 231 -6 l 1
 231 -34 l 1
 124 -34 l 1
 446 560 l 1
 157 560 l 1
 142 467 l 1
 76 467 l 1
EndSplineSet
EndChar

StartChar: eight
Encoding: 56 56 24
Width: 581
Flags: HW
HStem: -15 61<255 329 255 364.5> 625 60<265 324.5>
VStem: 42 118<148 214.5 148 218> 71 126<492.5 551> 399 113<477.5 538.5> 412 127<124.5 189>
LayerCount: 2
Fore
SplineSet
42 179 m 0xa4
 42 257 89 312 177 338 c 1
 107 370 71 423 71 494 c 0
 71 608 161 685 303 685 c 0
 432 685 512 610 512 511 c 0
 512 444 472 390 394 356 c 1
 492 321 539 266 539 182 c 0
 539 67 445 -15 284 -15 c 0
 136 -15 42 69 42 179 c 0xa4
160 190 m 0
 160 106 217 46 293 46 c 0
 365 46 412 90 412 152 c 0
 412 226 350 264 222 314 c 1xa4
 180 276 160 239 160 190 c 0
197 524 m 0
 197 461 246 419 347 379 c 1x58
 381 411 399 453 399 502 c 0
 399 575 356 625 293 625 c 0
 237 625 197 582 197 524 c 0
EndSplineSet
EndChar

StartChar: nine
Encoding: 57 57 25
Width: 581
Flags: HMW
HStem: -53 20 223 76<187.5 332> 624 59<257.5 327.5>
VStem: 42 133<408 511 408 511.5> 415 131<401.5 485.5>
LayerCount: 2
Fore
SplineSet
42 439 m 0
 42 584 145 683 304 683 c 0
 451 683 546 581 546 419 c 0
 546 213 397 32 129 -53 c 1
 102 13 l 1
 147 21 l 1
 274 79 354 157 391 262 c 1
 343 237 295 223 246 223 c 0
 129 223 42 311 42 439 c 0
175 460 m 0
 175 356 228 299 318 299 c 0
 346 299 374 306 405 321 c 1
 411 352 415 384 415 419 c 0
 415 552 365 624 290 624 c 0
 225 624 175 562 175 460 c 0
EndSplineSet
EndChar

StartChar: colon
Encoding: 58 58 26
Width: 340
Flags: HMW
HStem: -8 159<152 194.5> 330 158<151.5 194.5>
VStem: 95 156<49 93.5 387 431>
LayerCount: 2
Back
SplineSet
173 488 m 0
 216 488 251 453 251 409 c 0
 251 365 216 330 173 330 c 0
 130 330 95 365 95 409 c 0
 95 453 130 488 173 488 c 0
173 151 m 0
 216 151 251 116 251 71 c 0
 251 27 216 -8 173 -8 c 0
 131 -8 95 27 95 71 c 0
 95 116 130 151 173 151 c 0
EndSplineSet
Fore
SplineSet
95 71 m 0
 95 116 130 151 173 151 c 0
 216 151 251 116 251 71 c 0
 251 27 216 -8 173 -8 c 0
 131 -8 95 27 95 71 c 0
95 409 m 0
 95 453 130 488 173 488 c 0
 216 488 251 453 251 409 c 0
 251 365 216 330 173 330 c 0
 130 330 95 365 95 409 c 0
EndSplineSet
EndChar

StartChar: semicolon
Encoding: 59 59 27
Width: 340
Flags: HMW
HStem: -175 304<68 191> 330 158<151.5 194.5>
VStem: 95 159<50 56 -27.5 81.5>
LayerCount: 2
Fore
SplineSet
68 -129 m 1
 139 -116 176 -71 176 -1 c 0
 176 1 176 4 176 7 c 1
 116 7 l 1
 102 22 95 39 95 61 c 0
 95 102 122 129 163 129 c 0
 219 129 254 89 254 23 c 0
 254 -78 181 -162 68 -175 c 1
 68 -129 l 1
95 409 m 0
 95 453 130 488 173 488 c 0
 216 488 251 453 251 409 c 0
 251 365 216 330 173 330 c 0
 130 330 95 365 95 409 c 0
EndSplineSet
EndChar

StartChar: less
Encoding: 60 60 28
Width: 833
Flags: HMW
HStem: 23 551<704 704>
VStem: 129 575<23 337 23 337>
LayerCount: 2
Fore
SplineSet
129 259 m 1
 129 337 l 1
 704 574 l 1
 704 484 l 1
 248 298 l 1
 704 112 l 1
 704 23 l 1
 129 259 l 1
EndSplineSet
EndChar

StartChar: equal
Encoding: 61 61 29
Width: 833
Flags: HMW
HStem: 157 81<124 709 124 709> 358 82<124 709 124 709>
VStem: 124 585<157 238 157 238 358 440 157 440>
LayerCount: 2
Fore
SplineSet
124 157 m 1
 124 238 l 1
 709 238 l 1
 709 157 l 1
 124 157 l 1
124 358 m 1
 124 440 l 1
 709 440 l 1
 709 358 l 1
 124 358 l 1
EndSplineSet
EndChar

StartChar: greater
Encoding: 62 62 30
Width: 833
Flags: HMW
HStem: 23 551<129 129>
VStem: 129 575<23 337 112 337 259 574 259 574>
LayerCount: 2
Fore
SplineSet
129 23 m 1
 129 112 l 1
 585 298 l 1
 129 484 l 1
 129 574 l 1
 704 337 l 1
 704 259 l 1
 129 23 l 1
EndSplineSet
EndChar

StartChar: question
Encoding: 63 63 31
Width: 487
Flags: HMW
HStem: -7 152<176 216.5> 625 58<174 177 174 174.5>
VStem: 122 150<47.5 89.5 47 90.5> 307 130<459 538>
LayerCount: 2
Fore
SplineSet
35 573 m 0
 35 633 103 683 212 683 c 0
 349 683 437 608 437 499 c 0
 437 401 366 329 227 284 c 1
 227 193 l 1
 162 193 l 1
 162 328 l 1
 257 361 307 419 307 499 c 0
 307 577 259 625 177 625 c 0
 176 625 175 625 174 625 c 2
 129 512 l 1
 122 511 116 511 109 511 c 0
 62 511 35 534 35 573 c 0
122 70 m 0
 122 111 155 145 196 145 c 0
 238 145 272 112 272 67 c 0
 272 27 238 -7 195 -7 c 0
 157 -7 122 25 122 70 c 0
EndSplineSet
EndChar

StartChar: at
Encoding: 64 64 32
Width: 917
Flags: HMW
HStem: -153 55<413.5 513.5> 57 70<354.5 457.5> 444 47<475.5 517> 643 49<473 608>
VStem: 75 76<186 311.5> 266 104<198 249> 802 51<336 451>
LayerCount: 2
Fore
SplineSet
75 245 m 0
 75 378 123 491 217 578 c 0
 296 651 404 692 523 692 c 0
 722 692 853 563 853 373 c 0
 853 299 835 232 799 176 c 0
 750 99 673 54 609 54 c 0
 556 54 530 81 530 134 c 1
 480 83 435 57 390 57 c 0
 319 57 266 118 266 217 c 0
 266 281 285 340 321 388 c 0
 369 454 441 491 510 491 c 0
 542 491 573 482 606 465 c 1
 623 488 l 1
 691 488 l 1
 678 454 672 419 664 384 c 2
 628 214 l 2
 623 190 620 170 620 152 c 0
 620 133 634 118 654 118 c 0
 680 118 711 135 737 169 c 0
 778 221 802 295 802 369 c 0
 802 533 693 643 523 643 c 0
 423 643 337 609 270 545 c 0
 190 469 151 375 151 259 c 0
 151 43 289 -98 494 -98 c 0
 580 -98 666 -73 748 -25 c 1
 766 -65 l 1
 662 -124 559 -153 468 -153 c 0
 359 -153 261 -114 185 -40 c 0
 112 31 75 127 75 245 c 0
370 233 m 0
 370 163 395 127 442 127 c 0
 473 127 503 149 533 190 c 1
 569 389 l 1
 533 442 l 1
 527 443 520 444 514 444 c 0
 435 444 370 356 370 233 c 0
EndSplineSet
EndChar

StartChar: A
Encoding: 65 65 33
Width: 651
Flags: HMW
HStem: 0 49<-11 204 -11 -11> 238 56<210 386 210 409 191 386> 658 20<275 380 380 380>
VStem: -11 680<0 49 0 49>
DStem2: 49 58 131 69 0.342473 0.939528<38.4176 217.746 276.867 538.725> 380 678 297 541 0.348301 -0.937383<99.5125 362.045 422.549 602.802>
LayerCount: 2
Fore
SplineSet
-11 0 m 1
 -11 49 l 1
 49 58 l 1
 275 678 l 1
 380 678 l 1
 610 59 l 1
 669 49 l 1
 669 0 l 1
 399 0 l 1
 399 49 l 1
 462 55 l 1
 469 68 l 1
 409 238 l 1
 191 238 l 1
 131 69 l 1
 141 56 l 1
 204 49 l 1
 204 0 l 1
 -11 0 l 1
210 294 m 1
 386 294 l 1
 297 541 l 1
 210 294 l 1
EndSplineSet
EndChar

StartChar: B
Encoding: 66 66 34
Width: 628
Flags: W
HStem: 0 55<29 88 234.796 389.069> 317 55<234 360.56> 617 54<29 88 234.656 368.674>
VStem: 104 130<70 315 372.007 603> 413 138<434.34 574.892> 450 140<107.729 266.693>
LayerCount: 2
Fore
SplineSet
29 0 m 1xf4
 29 49 l 1
 88 54 l 1
 104 70 l 1
 104 603 l 1
 88 617 l 1
 29 622 l 1
 29 671 l 1
 329 671 l 2
 477 671 551 618 551 514 c 0xf8
 551 436 503 382 408 357 c 1
 525 355 590 294 590 196 c 0
 590 70 502 0 338 0 c 2
 29 0 l 1xf4
234 57 m 1
 251 56 267 55 282 55 c 0
 398 55 450 94 450 190 c 0xf4
 450 275 400 317 300 317 c 0
 284 317 262 317 234 315 c 1
 234 57 l 1
234 373 m 1
 243 372 252 372 261 372 c 0
 365 372 413 412 413 502 c 0xf8
 413 580 368 617 274 617 c 0
 261 617 248 616 234 615 c 1
 234 373 l 1
EndSplineSet
EndChar

StartChar: C
Encoding: 67 67 35
Width: 638
Flags: MW
HStem: -12 63<355 427.5> 618 65<346.5 428>
VStem: 41 147<271 386> 529 72<162.12 196 479 514.667>
LayerCount: 2
Fore
SplineSet
41 335 m 0
 41 437 77 526 145 591 c 0
 208 652 293 683 397 683 c 0
 466 683 534 670 601 646 c 1
 601 479 l 1
 527 479 l 1
 508 586 l 1
 494 603 l 1
 467 613 441 618 415 618 c 0
 278 618 188 513 188 336 c 0
 188 157 279 51 428 51 c 0
 445 51 465 54 489 60 c 1
 504 75 l 1
 529 196 l 1
 601 196 l 1
 601 24 l 1
 534 0 464 -12 391 -12 c 0
 319 -12 256 4 207 33 c 0
 103 95 41 207 41 335 c 0
EndSplineSet
EndChar

StartChar: D
Encoding: 68 68 36
Width: 716
Flags: HMW
HStem: 0 56<238 296 296 321> 615 56<238 238 238 296>
VStem: 106 132<70 601 601 601> 532 149<276 430>
LayerCount: 2
Fore
SplineSet
29 0 m 1
 29 49 l 1
 90 54 l 1
 106 70 l 1
 106 601 l 1
 90 617 l 1
 29 622 l 1
 29 671 l 1
 321 671 l 2
 553 671 681 545 681 335 c 0
 681 217 639 125 558 63 c 0
 496 15 421 0 321 0 c 2
 29 0 l 1
238 56 m 1
 296 56 l 2
 455 56 532 148 532 336 c 0
 532 524 455 615 296 615 c 2
 238 615 l 1
 238 56 l 1
EndSplineSet
EndChar

StartChar: E
Encoding: 69 69 37
Width: 596
Flags: MW
HStem: 0 57<236 468 236 566> 317 60<236 366 236 366> 615 56<236 435 236 236>
VStem: 106 130<70 317 377 603 603 603>
LayerCount: 2
Fore
SplineSet
29 0 m 1
 29 49 l 1
 90 54 l 1
 106 70 l 1
 106 603 l 1
 90 617 l 1
 29 622 l 1
 29 671 l 1
 533 671 l 1
 533 514 l 1
 463 514 l 1
 448 602 l 1
 435 615 l 1
 236 615 l 1
 236 377 l 1
 366 377 l 1
 380 391 l 1
 390 463 l 1
 449 463 l 1
 449 231 l 1
 390 231 l 1
 380 303 l 1
 366 317 l 1
 236 317 l 1
 236 57 l 1
 468 57 l 1
 481 73 l 1
 498 179 l 1
 566 179 l 1
 566 0 l 1
 29 0 l 1
EndSplineSet
EndChar

StartChar: F
Encoding: 70 70 38
Width: 552
Flags: HMW
HStem: 0 49<30 30 30 325> 303 61<238 372 238 372> 613 58<238 431 238 238>
VStem: 106 132<70 303 364 603 603 603>
LayerCount: 2
Fore
SplineSet
26 622 m 1
 26 671 l 1
 528 671 l 1
 528 503 l 1
 459 503 l 1
 444 600 l 1
 431 613 l 1
 238 613 l 1
 238 364 l 1
 372 364 l 1
 386 377 l 1
 396 450 l 1
 455 450 l 1
 455 217 l 1
 396 217 l 1
 386 290 l 1
 372 303 l 1
 238 303 l 1
 238 70 l 1
 255 54 l 1
 325 49 l 1
 325 0 l 1
 30 0 l 1
 30 49 l 1
 90 54 l 1
 106 70 l 1
 106 603 l 1
 90 617 l 1
 26 622 l 1
EndSplineSet
EndChar

StartChar: G
Encoding: 71 71 39
Width: 710
Flags: HMW
HStem: -12 67<356 428.5> 281 49<398 690 398 690> 619 63<351.5 438 294 440.5>
VStem: 40 145<250 427.5 250 442.5> 488 128<58 262 29 262>
LayerCount: 2
Fore
SplineSet
40 340 m 0
 40 545 183 682 405 682 c 0
 471 682 542 671 616 649 c 1
 616 479 l 1
 543 479 l 1
 524 585 l 1
 509 603 l 1
 482 614 455 619 426 619 c 0
 277 619 185 515 185 340 c 0
 185 160 279 55 433 55 c 0
 443 55 462 56 488 58 c 1
 488 262 l 1
 472 276 l 1
 398 281 l 1
 398 330 l 1
 690 330 l 1
 690 281 l 1
 632 276 l 1
 616 262 l 1
 616 29 l 1
 539 2 465 -12 392 -12 c 0
 182 -12 40 132 40 340 c 0
EndSplineSet
EndChar

StartChar: H
Encoding: 72 72 40
Width: 760
Flags: HMW
HStem: 0 49<30 313 30 30> 322 60<237 526 237 526> 622 49<30 313 30 313>
VStem: 104 133<70 322 382 601> 526 133<70 322 322 322 382 601 70 601>
LayerCount: 2
Fore
SplineSet
30 0 m 1
 30 49 l 1
 88 54 l 1
 104 70 l 1
 104 601 l 1
 88 617 l 1
 30 622 l 1
 30 671 l 1
 313 671 l 1
 313 622 l 1
 253 617 l 1
 237 601 l 1
 237 382 l 1
 526 382 l 1
 526 601 l 1
 511 617 l 1
 451 622 l 1
 451 671 l 1
 733 671 l 1
 733 622 l 1
 675 617 l 1
 659 601 l 1
 659 70 l 1
 675 54 l 1
 733 49 l 1
 733 0 l 1
 451 0 l 1
 451 49 l 1
 511 54 l 1
 526 70 l 1
 526 322 l 1
 237 322 l 1
 237 70 l 1
 253 54 l 1
 313 49 l 1
 313 0 l 1
 30 0 l 1
EndSplineSet
EndChar

StartChar: I
Encoding: 73 73 41
Width: 354
Flags: MW
HStem: 0 49<30 30 30 329> 622 49<30 329 30 329>
VStem: 112 134<70 603 70 603>
LayerCount: 2
Fore
SplineSet
30 0 m 1
 30 49 l 1
 96 54 l 1
 112 70 l 1
 112 603 l 1
 96 617 l 1
 30 622 l 1
 30 671 l 1
 329 671 l 1
 329 622 l 1
 262 617 l 1
 246 603 l 1
 246 70 l 1
 262 54 l 1
 329 49 l 1
 329 0 l 1
 30 0 l 1
EndSplineSet
EndChar

StartChar: J
Encoding: 74 74 42
Width: 465
Flags: HMW
HStem: -12 58<135.5 183.5 135.5 236.5> 622 49<170 464 170 464>
VStem: 256 131<261 262 262 603>
LayerCount: 2
Fore
SplineSet
12 12 m 1
 12 192 l 1
 85 192 l 1
 108 60 l 1
 122 47 l 1
 127 47 133 46 138 46 c 0
 229 46 256 115 256 261 c 2
 256 603 l 1
 240 617 l 1
 170 622 l 1
 170 671 l 1
 464 671 l 1
 464 622 l 1
 403 617 l 1
 387 603 l 1
 387 262 l 2
 387 75 318 -12 155 -12 c 0
 108 -12 61 -4 12 12 c 1
EndSplineSet
EndChar

StartChar: K
Encoding: 75 75 43
Width: 650
Flags: MW
HStem: 0 49<30 30 30 314> 294 47<239 267 239 297 239 267> 622 49<30 314 30 314>
VStem: 106 133<70 294 341 603>
DStem2: 267 341 387 388 0.636427 0.771337<112.624 340.966> 387 388 297 294 0.538838 -0.842409<30.691 339.4>
LayerCount: 2
Fore
SplineSet
30 0 m 1
 30 49 l 1
 91 54 l 1
 106 70 l 1
 106 603 l 1
 91 617 l 1
 30 622 l 1
 30 671 l 1
 314 671 l 1
 314 622 l 1
 255 617 l 1
 239 603 l 1
 239 341 l 1
 267 341 l 1
 484 604 l 1
 478 617 l 1
 422 622 l 1
 422 671 l 1
 647 671 l 1
 647 622 l 1
 577 615 l 1
 387 388 l 1
 600 55 l 1
 672 49 l 1
 672 0 l 1
 465 0 l 1
 465 35 l 1
 297 294 l 1
 239 294 l 1
 239 70 l 1
 255 54 l 1
 314 49 l 1
 314 0 l 1
 30 0 l 1
EndSplineSet
EndChar

StartChar: L
Encoding: 76 76 44
Width: 543
Flags: MW
HStem: 0 58<238 430 238 532> 622 49<27 315 27 315>
VStem: 105 133<70 603 58 603>
LayerCount: 2
Fore
SplineSet
27 0 m 1
 27 49 l 1
 88 54 l 1
 105 70 l 1
 105 603 l 1
 91 617 l 1
 27 622 l 1
 27 671 l 1
 315 671 l 1
 315 622 l 1
 254 617 l 1
 238 603 l 1
 238 58 l 1
 430 58 l 1
 443 74 l 1
 458 196 l 1
 532 196 l 1
 532 0 l 1
 27 0 l 1
EndSplineSet
EndChar

StartChar: M
Encoding: 77 77 45
Width: 883
Flags: MW
HStem: 0 49<25 25 25 252> 623 48<25 287>
VStem: 103 72<74 602 74 604 74 604> 658 126<70 603 70 607 70 607>
DStem2: 287 643 175 602 0.319531 -0.947576<3.06309 484.784> 443 184 450 0 0.324165 0.946001<0 469.854>
LayerCount: 2
Fore
SplineSet
25 0 m 1
 25 49 l 1
 89 56 l 1
 103 74 l 1
 103 604 l 1
 91 617 l 1
 25 623 l 1
 25 671 l 1
 287 671 l 1
 287 643 l 1
 443 184 l 1
 598 642 l 1
 598 671 l 1
 863 671 l 1
 863 623 l 1
 795 617 l 1
 784 603 l 1
 784 70 l 1
 795 54 l 1
 863 49 l 1
 863 0 l 1
 586 0 l 1
 586 49 l 1
 648 54 l 1
 658 70 l 1
 658 607 l 1
 450 0 l 1
 378 0 l 1
 175 602 l 1
 175 74 l 1
 190 56 l 1
 252 49 l 1
 252 0 l 1
 25 0 l 1
EndSplineSet
EndChar

StartChar: N
Encoding: 78 78 46
Width: 727
Flags: HMW
HStem: 0 48<26 26 26 254> 622 49<25 255>
VStem: 103 73<74 537 74 603 74 603> 561 73<169 597 0 597>
DStem2: 255 644 176 537 0.541628 -0.840619<47.1576 565.032>
LayerCount: 2
Fore
SplineSet
25 622 m 1
 25 671 l 1
 255 671 l 1
 255 644 l 1
 561 169 l 5
 561 597 l 5
 543 616 l 1
 482 624 l 1
 482 671 l 1
 710 671 l 1
 710 624 l 1
 651 616 l 1
 634 597 l 1
 634 0 l 1
 522 0 l 1
 176 537 l 1
 176 74 l 1
 192 56 l 1
 254 48 l 1
 254 0 l 1
 26 0 l 1
 26 48 l 1
 85 56 l 1
 103 74 l 1
 103 603 l 1
 89 617 l 1
 25 622 l 1
EndSplineSet
EndChar

StartChar: O
Encoding: 79 79 47
Width: 752
Flags: HMW
HStem: -16 61<324.5 427> 622 64<331.5 421 331.5 434.5>
VStem: 41 149<245 393.5> 567 150<280 389.5 280 422.5>
LayerCount: 2
Fore
SplineSet
41 339 m 0
 41 448 76 536 144 599 c 0
 207 657 285 686 378 686 c 0
 464 686 537 660 598 608 c 0
 675 542 717 446 717 333 c 0
 717 227 680 137 610 72 c 0
 549 15 469 -16 385 -16 c 0
 178 -16 41 126 41 339 c 0
190 337 m 0
 190 153 271 45 378 45 c 0
 488 45 567 153 567 330 c 0
 567 515 489 622 380 622 c 0
 269 622 190 516 190 337 c 0
EndSplineSet
EndChar

StartChar: P
Encoding: 80 80 48
Width: 587
Flags: HMW
HStem: 0 49<29 29 29 324> 247 58<298.5 326 268.5 390> 613 58<238 290 238 238>
VStem: 106 132<70 250 307 603 603 603> 430 138<412 512.5>
LayerCount: 2
Fore
SplineSet
25 622 m 1
 25 671 l 1
 295 671 l 2
 480 671 568 613 568 469 c 0
 568 331 474 247 306 247 c 0
 291 247 268 248 238 250 c 1
 238 70 l 1
 253 54 l 1
 324 49 l 1
 324 0 l 1
 29 0 l 1
 29 49 l 1
 88 54 l 1
 106 70 l 1
 106 603 l 1
 91 617 l 1
 25 622 l 1
238 307 m 1
 251 306 263 305 274 305 c 0
 378 305 430 359 430 465 c 0
 430 560 381 613 290 613 c 2
 238 613 l 1
 238 307 l 1
EndSplineSet
EndChar

StartChar: Q
Encoding: 81 81 49
Width: 752
Flags: HMW
HStem: -178 60<447 603> -2 52 622 65<322 419 315.5 431.5>
VStem: 39 151<248.5 375> 313 141 568 152<245.5 389 245 425>
LayerCount: 2
Fore
SplineSet
39 336 m 0
 39 414 59 483 97 543 c 0
 154 631 257 687 374 687 c 0
 464 687 538 662 598 610 c 0
 676 543 720 446 720 332 c 0
 720 158 615 26 454 -2 c 1
 457 -82 500 -118 589 -118 c 0
 617 -118 648 -114 681 -106 c 1
 681 -157 l 1
 617 -171 563 -178 516 -178 c 0
 378 -178 313 -125 313 -9 c 0
 313 -8 313 -7 313 -6 c 0
 146 20 39 153 39 336 c 0
190 339 m 0
 190 158 273 50 383 50 c 0
 490 50 568 156 568 335 c 0
 568 515 487 622 376 622 c 0
 268 622 190 517 190 339 c 0
EndSplineSet
EndChar

StartChar: R
Encoding: 82 82 50
Width: 671
Flags: HMW
HStem: 0 49<31 313 31 31> 295 57<236 325.5 236 325.5> 614 57<236 236 236 282>
VStem: 106 130<70 295 70 353 353 603 603 603> 430 140<454 527>
LayerCount: 2
Fore
SplineSet
31 0 m 1
 31 49 l 1
 90 54 l 1
 106 70 l 1
 106 603 l 1
 90 617 l 1
 31 622 l 1
 31 671 l 1
 335 671 l 2
 490 671 570 611 570 500 c 0
 570 408 511 350 398 329 c 1
 446 318 480 299 503 267 c 0
 534 223 542 169 561 119 c 0
 582 64 612 49 679 49 c 0
 683 49 687 49 692 49 c 1
 692 1 l 1
 657 -4 623 -7 592 -7 c 0
 549 -7 512 5 488 24 c 0
 436 64 427 109 411 157 c 0
 380 252 354 295 253 295 c 0
 248 295 242 295 236 295 c 1
 236 70 l 1
 252 54 l 1
 313 49 l 1
 313 0 l 1
 31 0 l 1
236 353 m 1
 249 352 261 352 272 352 c 0
 379 352 430 394 430 486 c 0
 430 568 379 614 282 614 c 2
 236 614 l 1
 236 353 l 1
EndSplineSet
EndChar

StartChar: S
Encoding: 83 83 51
Width: 568
Flags: MW
HStem: -11 65<236.5 292.5 236.5 334> 619 64<284.5 337>
VStem: 73 130<501 541.5> 381 136<134.5 176>
LayerCount: 2
Fore
SplineSet
59 22 m 1
 59 203 l 1
 135 203 l 1
 151 83 l 1
 164 68 l 1
 192 59 221 54 252 54 c 0
 333 54 381 94 381 149 c 0
 381 203 345 239 274 275 c 0
 234 295 187 312 143 349 c 0
 97 388 73 437 73 486 c 0
 73 597 166 683 309 683 c 0
 371 683 434 671 497 649 c 1
 497 487 l 1
 425 487 l 1
 408 591 l 1
 394 605 l 1
 376 614 353 619 321 619 c 0
 248 619 203 579 203 524 c 0
 203 478 231 448 284 416 c 0
 315 397 368 382 427 344 c 0
 485 307 517 253 517 194 c 0
 517 75 416 -11 252 -11 c 0
 188 -11 121 0 59 22 c 1
EndSplineSet
EndChar

StartChar: T
Encoding: 84 84 52
Width: 603
Flags: HMW
HStem: 0 49<155 454 155 155> 614 57<117 237 117 117 372 492 372 372>
VStem: 237 135<70 614 70 614>
LayerCount: 2
Fore
SplineSet
16 494 m 5
 16 671 l 5
 593 671 l 5
 593 494 l 5
 524 494 l 5
 507 601 l 5
 492 614 l 5
 372 614 l 5
 372 70 l 1
 389 54 l 1
 454 49 l 1
 454 0 l 1
 155 0 l 1
 155 49 l 1
 220 54 l 1
 237 70 l 1
 237 614 l 5
 117 614 l 5
 101 601 l 5
 85 494 l 5
 16 494 l 5
EndSplineSet
EndChar

StartChar: U
Encoding: 85 85 53
Width: 705
Flags: HMW
HStem: -12 79<334 449> 622 49<20 307 20 307>
VStem: 97 134<257 603> 546 73<262 599>
LayerCount: 2
Fore
SplineSet
20 622 m 1
 20 671 l 1
 307 671 l 1
 307 622 l 1
 245 617 l 1
 231 603 l 1
 231 253 l 2
 231 124 274 67 394 67 c 0
 505 67 546 129 546 262 c 2
 546 599 l 1
 531 616 l 1
 467 622 l 1
 467 671 l 1
 694 671 l 1
 694 622 l 1
 633 616 l 1
 619 599 l 1
 619 252 l 2
 619 69 543 -12 355 -12 c 0
 256 -12 182 18 141 70 c 0
 102 121 97 180 97 257 c 2
 97 603 l 1
 83 617 l 1
 20 622 l 1
EndSplineSet
EndChar

StartChar: V
Encoding: 86 86 54
Width: 635
Flags: HMW
HStem: -2 20 622 49<-21 254 -21 254>
VStem: -21 681<622 671 622 671>
DStem2: 185 602 45 610 0.347763 -0.937582<0 485.266> 351 146 373 -2 0.341496 0.939883<0 483.568>
LayerCount: 2
Fore
SplineSet
-21 622 m 1
 -21 671 l 1
 254 671 l 1
 254 622 l 1
 196 617 l 1
 185 602 l 1
 351 146 l 1
 512 602 l 1
 501 617 l 1
 441 622 l 1
 441 671 l 1
 660 671 l 1
 660 622 l 1
 595 609 l 1
 373 -2 l 1
 272 -2 l 1
 45 610 l 1
 -21 622 l 1
EndSplineSet
EndChar

StartChar: W
Encoding: 87 87 55
Width: 946
Flags: HMW
HStem: 0 20 622 49<2 264>
VStem: 2 942<622 671 622 671>
DStem2: 194 602 65 608 0.257465 -0.966288<0 429.845> 306 187 324 0 0.284598 0.958647<0 359.942> 551 671 476 512 0.289748 -0.957103<130.448 516.649> 699 176 728 0 0.244037 0.969766<0 432.926>
LayerCount: 2
Fore
SplineSet
2 622 m 1
 2 671 l 1
 264 671 l 1
 264 623 l 1
 202 616 l 1
 194 602 l 1
 306 187 l 1
 450 671 l 1
 551 671 l 1
 699 176 l 1
 804 596 l 1
 792 610 l 1
 726 622 l 1
 726 671 l 1
 944 671 l 1
 944 622 l 1
 881 608 l 1
 728 0 l 1
 631 0 l 1
 476 512 l 1
 324 0 l 1
 227 0 l 1
 65 608 l 1
 2 622 l 1
EndSplineSet
EndChar

StartChar: X
Encoding: 88 88 56
Width: 637
Flags: HMW
HStem: 0 48<0 231 0 0> 623 48<14 297 14 297>
VStem: 0 644<0 48 0 48>
DStem2: 64 58 160 71 0.602812 0.797883<68.2425 311.823 456.22 680.599> 229 605 77 613 0.538878 -0.842384<0 218.115 322.379 556.599>
LayerCount: 2
Fore
SplineSet
0 0 m 1
 0 48 l 1
 64 58 l 1
 259 325 l 1
 77 613 l 1
 14 623 l 1
 14 671 l 1
 297 671 l 1
 297 623 l 1
 237 618 l 1
 229 605 l 1
 343 419 l 1
 473 602 l 1
 464 616 l 1
 409 623 l 1
 409 671 l 1
 633 671 l 1
 633 623 l 1
 571 615 l 1
 385 363 l 1
 577 61 l 1
 644 48 l 1
 644 0 l 1
 354 0 l 1
 354 48 l 1
 417 56 l 1
 424 69 l 1
 302 269 l 1
 160 71 l 1
 166 54 l 1
 231 48 l 1
 231 0 l 1
 0 0 l 1
EndSplineSet
EndChar

StartChar: Y
Encoding: 89 89 57
Width: 610
Flags: HMW
HStem: 0 50<162 462 162 162> 622 49<-11 262 -11 262>
VStem: 245 133<69 264 264 264>
DStem2: 197 605 53 612 0.483077 -0.875578<0 288.578> 334 351 378 288 0.50702 0.861934<0 283.678>
LayerCount: 2
Fore
SplineSet
-11 622 m 1
 -11 671 l 1
 262 671 l 1
 262 622 l 1
 206 617 l 1
 197 605 l 1
 334 351 l 1
 477 596 l 1
 469 612 l 1
 409 623 l 1
 409 671 l 1
 627 671 l 1
 627 622 l 1
 568 611 l 1
 378 288 l 1
 378 69 l 1
 394 55 l 1
 462 50 l 1
 462 0 l 1
 162 0 l 1
 162 50 l 1
 229 55 l 1
 245 69 l 1
 245 264 l 1
 53 612 l 1
 -11 622 l 1
EndSplineSet
EndChar

StartChar: Z
Encoding: 90 90 58
Width: 592
Flags: HMW
HStem: 0 59<194 450 194 550> 613 58<168 394 168 168>
VStem: 44 506<0 55 55 55>
DStem2: 44 55 194 59 0.531363 0.847144<83.093 658.684>
LayerCount: 2
Fore
SplineSet
44 0 m 1
 44 55 l 1
 394 613 l 1
 168 613 l 1
 149 601 l 1
 133 494 l 1
 62 494 l 1
 62 671 l 1
 544 671 l 1
 544 616 l 1
 194 59 l 1
 450 59 l 1
 460 73 l 1
 478 194 l 1
 550 194 l 1
 550 0 l 1
 44 0 l 1
EndSplineSet
EndChar

StartChar: bracketleft
Encoding: 91 91 59
Width: 443
Flags: HMW
HStem: -132 55<251 405 251 405> 652 56<251 405 251 251>
VStem: 136 115<-77 652 -77 708 -77 708>
LayerCount: 2
Fore
SplineSet
136 -132 m 1
 136 708 l 1
 405 708 l 1
 405 652 l 1
 251 652 l 1
 251 -77 l 1
 405 -77 l 1
 405 -132 l 1
 136 -132 l 1
EndSplineSet
EndChar

StartChar: backslash
Encoding: 92 92 60
Width: 491
Flags: MW
HStem: -93 764<-7 486 -7 411>
VStem: -7 493
LayerCount: 2
Fore
SplineSet
-7 671 m 1
 68 671 l 1
 486 -93 l 1
 411 -93 l 1
 -7 671 l 1
EndSplineSet
EndChar

StartChar: bracketright
Encoding: 93 93 61
Width: 443
Flags: HMW
HStem: -132 55<42 196 42 312 42 196> 653 55<42 196 42 312>
VStem: 196 116<-77 653 653 653>
LayerCount: 2
Fore
SplineSet
42 -77 m 1
 196 -77 l 1
 196 653 l 1
 42 653 l 1
 42 708 l 1
 312 708 l 1
 312 -132 l 1
 42 -132 l 1
 42 -77 l 1
EndSplineSet
EndChar

StartChar: asciicircum
Encoding: 94 94 62
Width: 1000
Flags: HMW
HStem: 438 276<201 552 201 552 447 797 447 746>
VStem: 201 596<438 438>
LayerCount: 2
Fore
SplineSet
201 438 m 1
 447 714 l 1
 552 714 l 1
 797 438 l 1
 746 438 l 1
 499 632 l 1
 252 438 l 1
 201 438 l 1
EndSplineSet
EndChar

StartChar: underscore
Encoding: 95 95 63
Width: 500
Flags: HMW
HStem: -236 84<0 500 0 500>
VStem: 0 500<-236 -152 -236 -152>
LayerCount: 2
Fore
SplineSet
0 -152 m 1
 500 -152 l 1
 500 -236 l 1
 0 -236 l 1
 0 -152 l 1
EndSplineSet
EndChar

StartChar: quoteleft
Encoding: 8216 8216 64
Width: 255
Flags: HMW
HStem: 395 303<112 200>
VStem: 50 158<466.5 474.5 444.5 540>
LayerCount: 2
Fore
SplineSet
50 498 m 0
 50 582 102 654 200 698 c 1
 221 668 l 1
 159 630 128 584 128 532 c 0
 128 526 128 521 129 515 c 1
 189 515 l 1
 201 500 208 484 208 465 c 0
 208 424 179 395 138 395 c 0
 86 395 50 435 50 498 c 0
EndSplineSet
EndChar

StartChar: a
Encoding: 97 97 65
Width: 544
Flags: HMW
HStem: -9 9 44 24 261 51<343 344> 446 53<241.5 282>
VStem: 40 132<120 176 120 178.5> 343 125<57 322 98 261 261 261>
LayerCount: 2
Fore
SplineSet
40 121 m 0
 40 236 135 265 344 312 c 1
 344 342 l 2
 344 414 315 446 249 446 c 0
 234 446 219 444 201 440 c 1
 201 346 l 1
 109 346 l 2
 79 346 63 356 63 383 c 0
 63 440 149 499 281 499 c 0
 421 499 468 450 468 322 c 2
 468 63 l 1
 481 49 l 1
 534 44 l 1
 534 0 l 1
 356 0 l 1
 343 57 l 1
 279 14 225 -9 171 -9 c 0
 94 -9 40 45 40 121 c 0
172 143 m 0
 172 97 200 68 246 68 c 0
 272 68 304 78 343 98 c 1
 343 261 l 1
 225 235 172 209 172 143 c 0
EndSplineSet
EndChar

StartChar: b
Encoding: 98 98 66
Width: 577
Flags: HMW
HStem: -1 54<192 297.5 192 297.5> 420 78<259 407> 653 39<9 81 9 9> 719 20<157 205 205 205>
VStem: 81 124<54 54 54 412 453 653 653 653> 413 134<213 302>
LayerCount: 2
Fore
SplineSet
9 653 m 1
 9 692 l 1
 157 739 l 1
 205 739 l 1
 205 453 l 1
 259 483 306 498 350 498 c 0
 464 498 547 406 547 271 c 0
 547 155 492 69 389 23 c 0
 352 7 296 -1 219 -1 c 0
 210 -1 201 -1 192 -1 c 2
 81 1 l 1
 81 653 l 1
 9 653 l 1
205 54 m 1
 216 53 227 53 237 53 c 0
 358 53 413 114 413 245 c 0
 413 359 360 420 268 420 c 0
 250 420 229 417 205 412 c 1
 205 54 l 1
EndSplineSet
EndChar

StartChar: c
Encoding: 99 99 67
Width: 476
Flags: HMW
HStem: -8 79<278.5 307> 448 49<267 305.5>
VStem: 35 136<202 314>
LayerCount: 2
Fore
SplineSet
35 238 m 0
 35 390 143 497 293 497 c 0
 396 497 458 449 458 388 c 0
 458 349 429 320 386 320 c 0
 364 320 345 326 327 339 c 1
 327 445 l 1
 317 447 309 448 302 448 c 0
 232 448 171 376 171 262 c 0
 171 142 232 71 325 71 c 0
 368 71 415 86 464 116 c 1
 464 45 l 1
 400 10 339 -8 275 -8 c 0
 130 -8 35 93 35 238 c 0
EndSplineSet
EndChar

StartChar: d
Encoding: 100 100 68
Width: 596
Flags: HMW
HStem: -9 9 44 32 444 56<272.5 308.5 219 325.5> 652 40<316 389 316 316> 719 20<465 511 511 511>
VStem: 37 134<197 312.5 197 312.5> 389 122<0 739 56 739 95 429 429 429 490 652 652 652>
LayerCount: 2
Fore
SplineSet
37 232 m 0
 37 393 143 500 295 500 c 0
 322 500 353 497 389 490 c 1
 389 652 l 1
 316 652 l 1
 316 692 l 1
 465 739 l 1
 511 739 l 1
 511 64 l 1
 525 48 l 1
 576 44 l 1
 576 0 l 1
 389 0 l 1
 389 56 l 1
 332 14 282 -9 231 -9 c 0
 119 -9 37 88 37 232 c 0
171 253 m 0
 171 141 222 76 305 76 c 0
 329 76 357 83 389 95 c 1
 389 429 l 1
 360 439 336 444 315 444 c 0
 230 444 171 372 171 253 c 0
EndSplineSet
EndChar

StartChar: e
Encoding: 101 101 69
Width: 524
Flags: HMW
HStem: -9 78<276.5 319> 255 53<170 361 170 492 165 361> 445 55<244 301.5>
VStem: 37 128<194.5 252.5 252.5 255 194.5 318.5> 361 131<255 319 255 360.5>
LayerCount: 2
Fore
SplineSet
37 242 m 0
 37 395 140 500 284 500 c 0
 415 500 492 418 492 274 c 0
 492 268 492 261 492 255 c 1
 165 255 l 1
 165 254 165 253 165 252 c 0
 165 137 227 69 326 69 c 0
 379 69 433 87 491 124 c 1
 491 50 l 1
 424 11 354 -9 284 -9 c 0
 135 -9 37 91 37 242 c 0
170 308 m 1
 361 308 l 1
 361 312 361 315 361 319 c 0
 361 402 329 445 274 445 c 0
 214 445 173 395 170 308 c 1
EndSplineSet
EndChar

StartChar: f
Encoding: 102 102 70
Width: 341
Flags: HMW
HStem: 0 46<31 31 31 301> 414 60<218 352 218 352> 694 49<257 347>
VStem: 95 123<67 414 66 414 482 530>
LayerCount: 2
Fore
SplineSet
30 414 m 1
 30 452 l 1
 95 482 l 1
 95 578 128 650 197 701 c 0
 234 729 277 743 318 743 c 0
 376 743 412 713 412 670 c 0
 412 643 392 621 354 608 c 1
 257 694 l 1
 231 667 218 616 218 542 c 0
 218 540 218 537 218 534 c 2
 218 474 l 1
 352 474 l 1
 352 414 l 1
 218 414 l 1
 218 66 l 1
 234 51 l 1
 301 46 l 1
 301 0 l 1
 31 0 l 1
 31 46 l 1
 81 51 l 1
 95 67 l 1
 95 414 l 1
 30 414 l 1
EndSplineSet
EndChar

StartChar: g
Encoding: 103 103 71
Width: 551
Flags: HW
HStem: -217 53<238.5 308 238.5 321.5> 19 86<198 223> 168 45<252.5 288.5 241 323> 411 57<447 555 447 447> 450 47<242 289>
VStem: 34 122<-91 -49> 55 128<296 370.5 296 376> 346 123<297 347 286 371> 391 119<-87 -45.5>
LayerCount: 2
Fore
SplineSet
34 -80 m 0xe480
 34 -18 73 24 137 30 c 1
 128 49 124 66 124 80 c 0
 124 113 142 142 179 175 c 1
 98 198 55 253 55 325 c 0
 55 427 136 497 269 497 c 0x2b
 312 497 358 488 407 468 c 1x11
 555 468 l 1
 555 411 l 1
 447 411 l 1
 462 385 469 360 469 334 c 0x11
 469 238 389 168 257 168 c 0
 248 168 238 168 228 169 c 1
 223 156 220 144 220 132 c 0
 220 124 221 115 223 105 c 1
 291 96 l 1
 436 75 510 45 510 -40 c 0
 510 -134 402 -217 241 -217 c 0
 109 -217 34 -162 34 -80 c 0xe480
156 -64 m 0
 156 -118 205 -164 272 -164 c 0
 344 -164 391 -121 391 -70 c 0
 391 -21 354 -7 283 5 c 2
 198 19 l 1xe480
 170 -4 156 -32 156 -64 c 0
183 334 m 0
 183 258 217 213 265 213 c 0
 312 213 346 259 346 335 c 0
 346 407 311 450 267 450 c 0x2b
 217 450 183 407 183 334 c 0
EndSplineSet
EndChar

StartChar: h
Encoding: 104 104 72
Width: 597
Flags: HMW
HStem: 0 45<24 271 24 24> 411 87<295 429> 653 39<16 89 16 16> 719 20<164 212 212 212>
VStem: 89 123<64 394 437 653 653 653> 398 122<64 303 303 332 64 340>
LayerCount: 2
Fore
SplineSet
16 653 m 1
 16 692 l 1
 164 739 l 1
 212 739 l 1
 212 437 l 1
 284 476 338 498 383 498 c 0
 475 498 520 443 520 332 c 2
 520 64 l 1
 533 49 l 1
 586 45 l 1
 586 0 l 1
 341 0 l 1
 341 45 l 1
 384 49 l 1
 398 64 l 1
 398 303 l 2
 398 377 370 411 308 411 c 0
 282 411 250 405 212 394 c 1
 212 64 l 1
 227 49 l 1
 271 45 l 1
 271 0 l 1
 24 0 l 1
 24 45 l 1
 75 49 l 1
 89 64 l 1
 89 653 l 1
 16 653 l 1
EndSplineSet
EndChar

StartChar: j
Encoding: 106 106 74
Width: 297
Flags: W
HStem: -214 45<-17 76> 409 39<38 109 38 38> 476 20<189 231 231 231> 575 149<114.625 219.75>
VStem: 94 147<596.125 702.875> 109 122<48 98 98 409 409 409>
LayerCount: 2
Back
SplineSet
-80 -144 m 0
 -80 -112 -58 -85 -22 -78 c 1
 76 -169 l 1
 101 -135 109 -69 109 29 c 2
 109 409 l 1
 38 409 l 1
 38 448 l 1
 189 496 l 1
 231 496 l 1
 231 98 l 2
 231 -2 222 -76 177 -134 c 0
 138 -184 75 -214 11 -214 c 0
 -45 -214 -80 -184 -80 -144 c 0
94 649 m 0x18
 94 693 124 724 169 724 c 0
 210 724 242 692 242 648 c 0
 242 607 208 575 167 575 c 0
 127 575 94 605 94 649 c 0x18
EndSplineSet
Fore
Refer: 306 -1 N 1 0 0 1 4 0 2
Refer: 228 567 N 1 0 0 1 0 0 2
EndChar

StartChar: k
Encoding: 107 107 75
Width: 553
Flags: HMW
HStem: 0 44<25 25 25 277> 226 33<214 236 214 263 214 236> 442 44<328 532 328 532> 653 39<18 91 18 18> 719 20<172 214 214 214>
VStem: 91 123<64 226 259 653 653 653>
DStem2: 236 259 353 307 0.650417 0.759578<112.558 219.859> 353 307 263 226 0.52465 -0.851318<21.7383 241.794>
LayerCount: 2
Fore
SplineSet
18 653 m 1
 18 692 l 1
 172 739 l 1
 214 739 l 1
 214 259 l 1
 236 259 l 1
 379 426 l 1
 372 437 l 1
 328 442 l 1
 328 486 l 1
 532 486 l 1
 532 442 l 1
 467 434 l 1
 353 307 l 1
 512 49 l 1
 571 44 l 1
 571 0 l 1
 379 0 l 1
 379 39 l 1
 263 226 l 1
 214 226 l 1
 214 62 l 1
 227 48 l 1
 277 44 l 1
 277 0 l 1
 25 0 l 1
 25 44 l 1
 77 49 l 1
 91 64 l 1
 91 653 l 1
 18 653 l 1
EndSplineSet
EndChar

StartChar: l
Encoding: 108 108 76
Width: 304
Flags: MW
HStem: 0 44<23 23 23 291> 652 39<23 95 23 23> 719 20<174 218 218 218>
VStem: 95 123<66 652 652 652>
LayerCount: 2
Fore
SplineSet
23 0 m 1
 23 44 l 1
 81 50 l 1
 95 64 l 1
 95 652 l 1
 23 652 l 1
 23 691 l 1
 174 739 l 1
 218 739 l 1
 218 66 l 1
 233 50 l 1
 291 44 l 1
 291 0 l 1
 23 0 l 1
EndSplineSet
EndChar

StartChar: m
Encoding: 109 109 77
Width: 892
Flags: W
HStem: 0 45<31 82 234 276 339 380 530 575 637 680 830 883> 412 88<298.211 401.355 599.236 718.914>
VStem: 96 124<64 401.449> 394 122<66 386.75> 694 123<64 384.277>
LayerCount: 2
Fore
SplineSet
31 0 m 1
 31 45 l 1
 82 49 l 1
 96 64 l 1
 96 409 l 1
 31 409 l 1
 31 449 l 1
 172 496 l 1
 220 496 l 1
 220 437 l 1
 288 477 340 500 384 500 c 0
 434 500 474 476 501 430 c 1
 581 476 641 498 678 498 c 0
 771 498 817 443 817 332 c 2
 817 64 l 1
 830 49 l 1
 883 45 l 1
 883 0 l 1
 637 0 l 1
 637 45 l 1
 680 49 l 1
 694 64 l 1
 694 303 l 2
 694 378 668 411 602 411 c 0
 577 411 549 404 516 392 c 1
 516 64 l 1
 530 49 l 1
 575 44 l 1
 575 0 l 1
 339 0 l 1
 339 45 l 1
 380 49 l 1
 394 66 l 1
 394 309 l 2
 394 379 368 412 304 412 c 0
 280 412 252 406 220 394 c 1
 220 64 l 1
 234 49 l 1
 276 45 l 1
 276 0 l 1
 31 0 l 1
EndSplineSet
EndChar

StartChar: n
Encoding: 110 110 78
Width: 605
Flags: W
HStem: 0 45<31 31 31 278> 411 38 411 87<302.5 437>
VStem: 96 124<64 394 64 409 64 409> 405 122<64 303 303 332 64 340>
LayerCount: 2
Fore
SplineSet
28 409 m 1xd8
 28 449 l 1xd8
 172 496 l 1
 220 496 l 1
 220 437 l 1
 291 476 347 498 391 498 c 0
 483 498 527 443 527 332 c 2
 527 64 l 1
 540 49 l 1
 593 45 l 1
 593 0 l 1
 348 0 l 1
 348 45 l 1
 391 49 l 1
 405 64 l 1
 405 303 l 2
 405 377 378 411 315 411 c 0xb8
 290 411 258 405 220 394 c 1
 220 64 l 1
 234 49 l 1
 278 45 l 1
 278 0 l 1
 31 0 l 1
 31 45 l 1
 82 49 l 1
 96 64 l 1
 96 409 l 1
 28 409 l 1xd8
EndSplineSet
EndChar

StartChar: o
Encoding: 111 111 79
Width: 577
Flags: HMW
HStem: -8 53<256 328 256 367> 446 53<256.5 327.5>
VStem: 37 139<181.5 311.5 181.5 320> 409 138<179 309.5>
LayerCount: 2
Fore
SplineSet
37 243 m 0
 37 397 139 499 296 499 c 0
 449 499 547 400 547 241 c 0
 547 93 446 -8 288 -8 c 0
 138 -8 37 92 37 243 c 0
176 247 m 0
 176 116 221 45 291 45 c 0
 365 45 409 114 409 244 c 0
 409 375 363 446 292 446 c 0
 221 446 176 376 176 247 c 0
EndSplineSet
EndChar

StartChar: p
Encoding: 112 112 80
Width: 591
Flags: W
HStem: -219 46<23 77 228 290> -1 54<214.31 348.035> 409 40<22 43.7447> 413 86<283.35 420.522>
VStem: 91 122<-153 5 56.1609 402.031> 424 136<148.158 346.938>
LayerCount: 2
Fore
SplineSet
22 409 m 1xec
 22 449 l 1xec
 168 496 l 1
 213 496 l 1
 213 436 l 1
 272 477 322 499 371 499 c 0xdc
 477 499 560 403 560 263 c 0
 560 103 457 -1 295 -1 c 0
 273 -1 246 1 213 5 c 1
 213 -155 l 1
 228 -169 l 1
 291 -173 l 1
 290 -219 l 1
 23 -219 l 1
 23 -173 l 1
 77 -168 l 1
 91 -153 l 1
 91 409 l 1
 22 409 l 1xec
213 60 m 1
 236 55 257 53 277 53 c 0
 365 53 424 126 424 246 c 0
 424 353 373 413 292 413 c 0xdc
 269 413 243 406 213 394 c 1
 213 60 l 1
EndSplineSet
EndChar

StartChar: q
Encoding: 113 113 81
Width: 575
Flags: HMW
HStem: -218 46<304 571 304 304> -4 79<177.5 322.5> 444 55<281 341>
VStem: 37 135<193.5 312.5 193.5 313.5> 383 123<-154 43 43 43 82 428 -155 439 -155 439>
LayerCount: 2
Fore
SplineSet
37 229 m 0
 37 398 150 499 353 499 c 0
 398 499 449 494 509 486 c 1
 507 452 506 433 506 428 c 2
 506 -155 l 1
 521 -169 l 1
 571 -173 l 1
 571 -218 l 1
 304 -218 l 1
 304 -172 l 1
 368 -168 l 1
 383 -154 l 1
 383 43 l 1
 327 12 278 -4 234 -4 c 0
 121 -4 37 90 37 229 c 0
172 250 m 0
 172 137 226 75 313 75 c 0
 332 75 356 77 383 82 c 1
 383 439 l 1
 365 442 349 444 333 444 c 0
 229 444 172 375 172 250 c 0
EndSplineSet
EndChar

StartChar: r
Encoding: 114 114 82
Width: 421
Flags: HW
HStem: 0 45<29 29 29 305> 379 119<282 365> 409 40<24 96 24 24>
VStem: 96 123<64 351 64 409 64 409>
LayerCount: 2
Fore
SplineSet
24 409 m 1
 24 449 l 1xb0
 171 496 l 1
 219 496 l 1
 215 394 l 1
 251 433 291 467 332 496 c 1
 339 497 347 498 354 498 c 0
 376 498 398 492 420 481 c 1
 407 343 l 1
 355 343 l 1
 340 368 319 379 290 379 c 0
 274 379 250 370 219 351 c 1
 219 64 l 1
 234 49 l 1
 305 45 l 1
 305 0 l 1
 29 0 l 1xd0
 29 45 l 1
 82 49 l 1
 96 64 l 1
 96 409 l 1
 24 409 l 1
EndSplineSet
EndChar

StartChar: s
Encoding: 115 115 83
Width: 447
Flags: HMW
HStem: -11 55<192 234 192 270.5> 444 56<222.5 258.5>
VStem: 48 123<363 394> 292 118<103.5 143>
LayerCount: 2
Fore
SplineSet
41 14 m 1
 41 162 l 1
 102 162 l 1
 113 76 l 1
 123 65 l 1
 149 51 177 44 207 44 c 0
 261 44 292 72 292 116 c 0
 292 170 238 180 160 219 c 0
 86 256 48 291 48 351 c 0
 48 437 121 500 244 500 c 0
 294 500 344 492 395 475 c 1
 395 342 l 1
 335 342 l 1
 325 417 l 1
 313 428 l 1
 292 438 270 444 247 444 c 0
 198 444 171 421 171 384 c 0
 171 342 205 325 264 296 c 0
 353 253 410 226 410 154 c 0
 410 53 335 -11 206 -11 c 0
 158 -11 103 -3 41 14 c 1
EndSplineSet
EndChar

StartChar: t
Encoding: 116 116 84
Width: 358
Flags: HMW
HStem: -5 73<186.5 303> 414 60<208 356 208 356> 578 20<145 208 208 208>
VStem: 84 124<129.5 165 165 414>
LayerCount: 2
Fore
SplineSet
19 414 m 1
 19 452 l 1
 93 494 l 1
 145 598 l 1
 208 598 l 1
 208 474 l 1
 356 474 l 1
 356 414 l 1
 208 414 l 1
 208 165 l 2
 208 94 225 68 291 68 c 0
 315 68 336 70 356 75 c 1
 356 27 l 1
 296 5 244 -5 203 -5 c 0
 170 -5 143 1 120 17 c 0
 85 40 84 72 84 123 c 2
 84 414 l 1
 19 414 l 1
EndSplineSet
EndChar

StartChar: u
Encoding: 117 117 85
Width: 600
Flags: HW
HStem: -9 86<178.5 319.5> 0 45<393 582> 412 39<23 88 23 23> 479 20<164 212 212 212 470 516 516 516>
VStem: 88 124<162 189 189 412 412 412> 393 123<0 499 55 499 93 412 412 412>
LayerCount: 2
Fore
SplineSet
23 412 m 1
 23 451 l 1
 164 499 l 1xbc
 212 499 l 1
 212 189 l 2
 212 111 238 77 307 77 c 0xbc
 332 77 360 83 393 93 c 1
 393 412 l 1
 328 412 l 1
 328 451 l 1
 470 499 l 1
 516 499 l 1
 516 64 l 1
 530 49 l 1
 582 45 l 1
 582 0 l 1
 393 0 l 1x74
 393 55 l 1
 330 14 278 -9 225 -9 c 0
 132 -9 88 47 88 162 c 2
 88 412 l 1
 23 412 l 1
EndSplineSet
EndChar

StartChar: v
Encoding: 118 118 86
Width: 513
Flags: HMW
HStem: 0 20 441 46<-6 248 -6 248>
VStem: -6 540<441 487 441 487>
DStem2: 185 423 54 435 0.345205 -0.938527<0 309.951> 289 131 304 0 0.368434 0.929654<0 312.531>
LayerCount: 2
Fore
SplineSet
-6 441 m 1
 -6 487 l 1
 248 487 l 1
 248 441 l 1
 196 436 l 1
 185 423 l 1
 289 131 l 1
 403 422 l 1
 395 436 l 1
 344 441 l 1
 344 487 l 1
 534 487 l 1
 534 441 l 1
 476 434 l 1
 304 0 l 1
 214 0 l 1
 54 435 l 1
 -6 441 l 1
EndSplineSet
EndChar

StartChar: w
Encoding: 119 119 87
Width: 799
Flags: HMW
HStem: 0 20 441 46<-1 247 -1 247>
VStem: -1 812<441 487 441 487>
DStem2: 187 420 59 435 0.284313 -0.958731<0 299.144> 268 132 288 0 0.314641 0.949211<0 259.206> 485 487 407 359 0.295395 -0.955375<99.2473 371.356> 594 132 619 0 0.299026 0.954245<0 302.091>
LayerCount: 2
Fore
SplineSet
-1 441 m 1
 -1 487 l 1
 247 487 l 1
 247 441 l 1
 198 434 l 1
 187 420 l 1
 268 132 l 1
 385 487 l 1
 485 487 l 1
 594 132 l 1
 682 421 l 1
 675 435 l 1
 622 441 l 1
 622 487 l 1
 811 487 l 1
 811 441 l 1
 755 434 l 1
 619 0 l 1
 518 0 l 1
 407 359 l 1
 288 0 l 1
 188 0 l 1
 59 435 l 1
 -1 441 l 1
EndSplineSet
EndChar

StartChar: x
Encoding: 120 120 88
Width: 531
Flags: HMW
HStem: 0 44<11 205 11 11> 441 46<14 255>
VStem: 11 520<0 44 0 44>
DStem2: 212 428 71 433 0.57856 -0.81564<0 143.346 213.319 373.528> 292 309 329 268 0.610633 0.791914<0 152.114>
LayerCount: 2
Fore
SplineSet
11 0 m 1
 11 44 l 1
 70 55 l 1
 210 234 l 1
 71 433 l 1
 14 441 l 1
 14 487 l 1
 255 487 l 1
 255 445 l 1
 217 439 l 1
 212 428 l 1
 292 309 l 1
 379 434 l 1
 328 443 l 1
 328 487 l 1
 512 487 l 1
 512 441 l 1
 457 434 l 1
 329 268 l 1
 478 53 l 1
 531 44 l 1
 531 0 l 1
 297 0 l 1
 297 39 l 1
 332 48 l 1
 336 58 l 1
 248 192 l 1
 154 54 l 1
 205 44 l 1
 205 0 l 1
 11 0 l 1
EndSplineSet
EndChar

StartChar: y
Encoding: 121 121 89
Width: 515
Flags: HMW
HStem: -219 85<78.5 156> 443 43<-4 250 -4 250>
VStem: 17 519
DStem2: 189 423 56 434 0.370672 -0.928764<0 302.873> 297 140 289 -35 0.380551 0.92476<0 302.262>
LayerCount: 2
Fore
SplineSet
-4 443 m 1
 -4 486 l 1
 250 486 l 1
 250 443 l 1
 199 437 l 1
 189 423 l 1
 297 140 l 1
 406 422 l 1
 397 437 l 1
 344 443 l 1
 344 486 l 1
 536 486 l 1
 536 443 l 1
 482 434 l 1
 289 -35 l 2
 240 -153 169 -219 103 -219 c 0
 54 -219 17 -183 17 -145 c 0
 17 -116 36 -91 69 -74 c 1
 156 -134 l 1
 182 -113 209 -72 234 -12 c 1
 56 434 l 1
 -4 443 l 1
EndSplineSet
EndChar

StartChar: z
Encoding: 122 122 90
Width: 495
Flags: MW
HStem: 0 56<185 370 185 465> 432 54<142 304 142 142>
VStem: 46 419<0 62 62 62>
DStem2: 46 62 185 56 0.574044 0.818825<74.8791 451.068>
LayerCount: 2
Fore
SplineSet
46 0 m 1
 46 62 l 1
 304 432 l 1
 142 432 l 1
 129 418 l 1
 119 335 l 1
 54 335 l 1
 54 486 l 1
 450 486 l 1
 450 434 l 1
 185 56 l 1
 370 56 l 1
 385 72 l 1
 397 164 l 1
 465 164 l 1
 465 0 l 1
 46 0 l 1
EndSplineSet
EndChar

StartChar: braceleft
Encoding: 123 123 91
Width: 493
Flags: HMW
HStem: -134 53<416 421> 263 57<46 66 46 49.5> 654 51<400 421>
VStem: 183 115<448 466 466 529 413.5 532 413.5 596>
LayerCount: 2
Fore
SplineSet
46 263 m 1
 46 320 l 1
 53 320 60 320 66 320 c 0
 156 320 183 354 183 448 c 2
 183 532 l 2
 183 660 245 705 400 705 c 0
 407 705 414 705 421 705 c 1
 421 654 l 1
 322 651 298 619 298 529 c 2
 298 466 l 2
 298 361 255 308 153 291 c 1
 253 275 299 221 299 119 c 2
 299 46 l 2
 299 -49 320 -80 421 -81 c 1
 421 -134 l 1
 411 -134 401 -135 391 -135 c 0
 238 -135 183 -88 183 51 c 2
 183 132 l 2
 183 229 154 263 66 263 c 0
 59 263 53 263 46 263 c 1
EndSplineSet
EndChar

StartChar: bar
Encoding: 124 124 92
Width: 500
Flags: HMW
HStem: -236 20 744 20<207 294 294 294>
VStem: 207 87<-236 764 -236 764>
LayerCount: 2
Fore
SplineSet
207 -236 m 1
 207 764 l 1
 294 764 l 1
 294 -236 l 1
 207 -236 l 1
EndSplineSet
EndChar

StartChar: braceright
Encoding: 125 125 93
Width: 493
Flags: HMW
HStem: -135 54<62 168.5> 263 56<373 418.5 371.5 420.5 417 418.5 371.5 437> 654 51<62 83>
VStem: 186 115<466 529 529 532 401.5 574.5>
LayerCount: 2
Fore
SplineSet
62 -81 m 1
 164 -80 185 -48 185 46 c 2
 185 119 l 2
 185 221 230 275 330 291 c 1
 227 309 186 361 186 466 c 2
 186 529 l 2
 186 620 160 651 62 654 c 1
 62 705 l 1
 69 705 76 705 83 705 c 0
 240 705 301 661 301 532 c 2
 301 448 l 2
 301 355 328 319 415 319 c 0
 422 319 429 320 437 320 c 1
 437 263 l 1
 430 263 424 263 417 263 c 0
 329 263 300 229 300 132 c 2
 300 51 l 2
 300 -88 245 -135 92 -135 c 0
 82 -135 72 -134 62 -134 c 1
 62 -81 l 1
EndSplineSet
EndChar

StartChar: asciitilde
Encoding: 126 126 94
Width: 833
Flags: HW
HStem: 224 84<546.5 591> 290 83<247 304.5 247 307>
VStem: 87 660<293 293 293 303 303 303>
LayerCount: 2
Fore
SplineSet
87 212 m 1
 87 303 l 1
 156 350 218 373 276 373 c 0x60
 333 373 378 358 419 344 c 0
 468 327 513 308 562 308 c 0
 620 308 679 334 747 383 c 1
 747 293 l 1xa0
 682 248 621 224 561 224 c 0xa0
 532 224 500 230 468 241 c 0
 399 264 339 290 275 290 c 0
 217 290 158 262 87 212 c 1
EndSplineSet
EndChar

StartChar: exclamdown
Encoding: 161 161 95
Width: 340
Flags: HMW
HStem: -8 487<145.5 192> 532 152<149.5 190 149.5 190.5>
VStem: 95 150<587.5 630>
LayerCount: 2
Fore
SplineSet
94 75 m 0
 94 85 94 101 97 122 c 2
 143 479 l 1
 195 479 l 1
 241 124 l 2
 244 102 246 84 246 69 c 0
 246 22 215 -8 169 -8 c 0
 122 -8 94 23 94 75 c 0
95 609 m 0
 95 651 129 684 170 684 c 0
 210 684 245 651 245 609 c 0
 245 566 211 532 170 532 c 0
 129 532 95 566 95 609 c 0
EndSplineSet
EndChar

StartChar: cent
Encoding: 162 162 96
Width: 581
Flags: HMW
HStem: -102 20 1 56<360 372> 455 57<360 371.5> 592 20<305 360 360 360>
VStem: 59 127<202 306 202 324> 305 55<-102 1 -102 2 -102 2 59 453 453 453 512 612>
LayerCount: 2
Fore
SplineSet
59 253 m 0
 59 395 152 495 305 510 c 1
 305 612 l 1
 360 612 l 1
 360 512 l 1
 408 511 455 502 503 483 c 1
 503 339 l 1
 444 339 l 1
 429 437 l 1
 406 450 383 455 360 455 c 1
 360 57 l 1
 384 57 407 62 429 72 c 1
 444 176 l 1
 504 176 l 1
 504 25 l 1
 464 10 416 3 360 1 c 1
 360 -102 l 1
 305 -102 l 1
 305 2 l 1
 156 13 59 115 59 253 c 0
186 252 m 0
 186 152 233 79 305 59 c 1
 305 453 l 1
 231 432 186 360 186 252 c 0
EndSplineSet
EndChar

StartChar: sterling
Encoding: 163 163 97
Width: 581
Flags: HMW
HStem: 0 100<241 540 241 540> 299 60<76 145 76 146 76 145 269 449 269 269> 625 54<341 390>
VStem: 142 124<409 488.5 409 501.5>
LayerCount: 2
Fore
SplineSet
43 0 m 1
 43 72 l 1
 122 92 147 149 147 263 c 0
 147 275 146 287 146 299 c 1
 76 299 l 1
 76 359 l 1
 145 359 l 1
 143 379 142 399 142 417 c 0
 142 586 227 679 368 679 c 0
 470 679 538 626 538 564 c 0
 538 525 508 496 461 496 c 0
 452 496 438 499 421 504 c 1
 421 620 l 1
 408 624 396 625 384 625 c 0
 298 625 266 559 266 418 c 0
 266 400 267 380 268 359 c 1
 449 359 l 1
 449 299 l 1
 269 299 l 1
 269 204 237 140 168 101 c 1
 170 93 l 1
 203 98 227 100 241 100 c 2
 540 100 l 1
 540 0 l 1
 43 0 l 1
EndSplineSet
EndChar

StartChar: fraction
Encoding: 8260 8260 98
Width: 167
Flags: HMW
HStem: 0 671<-166 332 -166 332>
VStem: -166 498
LayerCount: 2
Fore
SplineSet
-166 0 m 1
 262 671 l 1
 332 671 l 1
 -95 0 l 1
 -166 0 l 1
EndSplineSet
EndChar

StartChar: yen
Encoding: 165 165 99
Width: 595
Flags: HMW
HStem: 0 50<152 451 152 152> 235 49<22 227 22 237 22 227 365 578 365 365> 380 50<22 148 22 178 22 148 446 578> 622 49<-7 256 -7 256>
VStem: -7 244 365 238
LayerCount: 2
Fore
SplineSet
-7 622 m 1
 -7 671 l 1
 256 671 l 1
 256 622 l 1
 202 617 l 1
 193 605 l 1
 324 351 l 1
 459 596 l 1
 451 612 l 1
 395 623 l 1
 395 671 l 1
 603 671 l 1
 603 622 l 1
 547 611 l 1
 446 430 l 1
 578 430 l 1
 578 380 l 1
 416 380 l 1
 363 284 l 1
 578 284 l 1
 578 235 l 1
 365 235 l 1
 365 69 l 1
 381 55 l 1
 451 50 l 1
 451 0 l 1
 152 0 l 1
 152 50 l 1
 220 55 l 1
 237 69 l 1
 237 235 l 1
 22 235 l 1
 22 284 l 1
 227 284 l 1
 178 380 l 1
 22 380 l 1
 22 430 l 1
 148 430 l 1
 54 612 l 1
 -7 622 l 1
EndSplineSet
EndChar

StartChar: florin
Encoding: 402 402 100
Width: 581
Flags: HMW
HStem: -148 56<75 167> 309 60<105 215 105 215 105 217 338 338 338 493> 628 55<381 467.5>
VStem: 217 121<105 309 309 309>
LayerCount: 2
Fore
SplineSet
12 -80 m 0
 12 -52 31 -24 66 -7 c 1
 167 -92 l 1
 209 -52 217 11 217 105 c 2
 217 309 l 1
 105 309 l 1
 105 369 l 1
 215 369 l 1
 215 376 215 382 215 388 c 0
 215 487 230 556 272 604 c 0
 316 653 384 683 440 683 c 0
 495 683 535 647 535 606 c 0
 535 577 514 552 474 533 c 1
 381 628 l 1
 340 587 336 532 336 453 c 0
 336 445 336 417 337 369 c 1
 493 369 l 1
 493 309 l 1
 338 309 l 1
 339 281 340 255 340 230 c 0
 340 119 328 40 303 -10 c 0
 258 -98 179 -148 103 -148 c 0
 47 -148 12 -119 12 -80 c 0
EndSplineSet
EndChar

StartChar: section
Encoding: 167 167 101
Width: 500
Flags: HMW
HStem: -142 53<218.5 262.5 218.5 295> 668 51<240.5 283>
VStem: 46 86<284 322> 365 89<272 304>
LayerCount: 2
Fore
SplineSet
46 286 m 0
 46 358 85 409 164 443 c 1
 97 478 66 517 66 574 c 0
 66 662 140 719 271 719 c 0
 320 719 370 711 423 695 c 1
 423 559 l 1
 370 559 l 1
 360 641 l 1
 327 659 297 668 269 668 c 0
 212 668 173 634 173 589 c 0
 173 533 229 518 315 475 c 0
 409 428 454 377 454 306 c 0
 454 238 410 174 333 143 c 1
 402 107 434 68 434 11 c 0
 434 -78 359 -142 231 -142 c 0
 178 -142 125 -131 71 -110 c 1
 70 27 l 1
 128 27 l 1
 141 -64 l 1
 173 -81 204 -89 233 -89 c 0
 292 -89 330 -54 330 -10 c 0
 330 53 265 73 165 122 c 0
 86 160 46 216 46 286 c 0
132 314 m 0
 132 254 183 217 284 171 c 1
 338 203 365 236 365 277 c 0
 365 331 315 373 216 415 c 1
 161 394 132 358 132 314 c 0
EndSplineSet
EndChar

StartChar: currency
Encoding: 164 164 102
Width: 606
Flags: HMW
HStem: 226 65<281 327> 574 65<280 326 280 343>
VStem: 97 65<409.5 454.5> 446 64<409.5 454.5 409.5 470.5>
LayerCount: 2
Fore
SplineSet
37 211 m 1
 136 311 l 1
 110 346 97 387 97 432 c 0
 97 477 110 518 136 553 c 1
 37 653 l 1
 82 698 l 1
 181 599 l 1
 217 626 257 639 303 639 c 0
 349 639 390 626 426 599 c 1
 525 698 l 1
 571 653 l 1
 471 553 l 1
 497 518 510 477 510 432 c 0
 510 387 497 346 471 311 c 1
 571 211 l 1
 525 166 l 1
 426 266 l 1
 389 239 350 226 304 226 c 0
 258 226 217 239 181 266 c 1
 82 166 l 1
 37 211 l 1
162 432 m 0
 162 354 225 291 304 291 c 0
 383 291 446 354 446 432 c 0
 446 509 382 574 304 574 c 0
 226 574 162 509 162 432 c 0
EndSplineSet
EndChar

StartChar: quotesingle
Encoding: 39 39 103
Width: 175
Flags: HMW
HStem: 418 296<78 78 78 97>
VStem: 41 93<658 678>
LayerCount: 2
Fore
SplineSet
41 661 m 0
 41 695 58 714 87 714 c 0
 117 714 134 696 134 661 c 0
 134 655 134 648 133 642 c 2
 97 418 l 1
 78 418 l 1
 42 642 l 2
 41 649 41 655 41 661 c 0
EndSplineSet
EndChar

StartChar: quotedblleft
Encoding: 8220 8220 104
Width: 475
Flags: HMW
HStem: 395 303<113 200 200 380>
VStem: 50 158<466.5 473.5 443.5 540> 271 158<467.5 474.5 444.5 540.5>
LayerCount: 2
Fore
SplineSet
50 498 m 0
 50 582 101 654 200 698 c 1
 222 668 l 1
 159 630 128 583 128 531 c 0
 128 526 128 520 129 515 c 1
 190 515 l 1
 203 500 208 483 208 464 c 0
 208 423 181 395 139 395 c 0
 87 395 50 435 50 498 c 0
271 499 m 0
 271 582 323 654 421 698 c 1
 443 668 l 1
 380 630 349 584 349 531 c 0
 349 526 349 521 350 515 c 1
 410 515 l 1
 422 500 429 484 429 465 c 0
 429 424 401 395 359 395 c 0
 307 395 271 436 271 499 c 0
EndSplineSet
EndChar

StartChar: guillemotleft
Encoding: 171 171 105
Width: 449
Flags: HMW
HStem: 54 372<208 208 208 404>
VStem: 35 173<54 282 54 282> 231 173<54 282 54 282>
LayerCount: 2
Fore
SplineSet
35 198 m 1
 35 282 l 1
 208 426 l 1
 208 342 l 1
 100 240 l 1
 208 138 l 1
 208 54 l 1
 35 198 l 1
231 198 m 1
 231 282 l 1
 404 426 l 1
 404 342 l 1
 296 240 l 1
 404 138 l 1
 404 54 l 1
 231 198 l 1
EndSplineSet
EndChar

StartChar: guilsinglleft
Encoding: 8249 8249 106
Width: 255
Flags: HMW
HStem: 54 372<207 207>
VStem: 35 172<54 282 54 282>
LayerCount: 2
Fore
SplineSet
35 198 m 1
 35 282 l 1
 207 426 l 1
 207 342 l 1
 99 240 l 1
 207 138 l 1
 207 54 l 1
 35 198 l 1
EndSplineSet
EndChar

StartChar: guilsinglright
Encoding: 8250 8250 107
Width: 255
Flags: HMW
HStem: 54 372<38 38>
VStem: 38 172<54 282 138 282 198 426 198 426>
LayerCount: 2
Fore
SplineSet
38 54 m 1
 38 138 l 1
 146 240 l 1
 38 342 l 1
 38 426 l 1
 210 282 l 1
 210 198 l 1
 38 54 l 1
EndSplineSet
EndChar

StartChar: fi
Encoding: 64257 64257 108
Width: 622
Flags: HW
HStem: 0 45<31 286 31 31> 414 60<218 415 218 437> 579 139<466.5 503.5> 693 52<254 341.5>
VStem: 96 122<64 414 64 414 482 486 485.5 532> 415 122<64 414 414 414> 418 135<629 668.5 629 669.5>
LayerCount: 2
Fore
SplineSet
31 0 m 1
 31 45 l 1
 81 49 l 1
 96 64 l 1
 96 414 l 1
 31 414 l 1
 31 452 l 1
 96 482 l 2
 96 483 96 485 96 486 c 0
 96 578 128 647 193 698 c 0
 232 729 278 745 316 745 c 0
 367 745 397 719 397 681 c 0
 397 654 381 630 351 612 c 1xdc
 254 693 l 1
 228 661 218 609 218 534 c 2
 218 474 l 1
 437 474 l 1
 492 501 l 1
 537 501 l 1
 537 64 l 1
 551 49 l 1
 604 45 l 1
 604 0 l 1
 349 0 l 1
 349 45 l 1
 400 49 l 1
 415 64 l 1
 415 414 l 1
 218 414 l 1
 218 64 l 1
 234 49 l 1
 286 45 l 1
 286 0 l 1
 31 0 l 1
418 649 m 0x22
 418 690 446 718 487 718 c 0
 524 718 553 688 553 649 c 0
 553 609 522 579 485 579 c 0
 448 579 418 608 418 649 c 0x22
EndSplineSet
EndChar

StartChar: fl
Encoding: 64258 64258 109
Width: 627
Flags: HMW
HStem: 0 45<31 286 31 31> 414 60<218 353 218 353> 695 50<258 340>
VStem: 96 122<64 414 64 414 482 486 485.5 530.5> 420 122<66 650 650 650>
LayerCount: 2
Fore
SplineSet
31 0 m 1
 31 45 l 1
 81 49 l 1
 96 64 l 1
 96 414 l 1
 31 414 l 1
 31 452 l 1
 96 482 l 2
 96 483 96 485 96 486 c 0
 96 575 126 644 188 695 c 0
 227 728 274 745 318 745 c 0
 362 745 390 729 403 696 c 1
 505 744 l 1
 542 744 l 1
 542 66 l 1
 557 50 l 1
 615 44 l 1
 615 0 l 1
 350 0 l 1
 350 44 l 1
 404 50 l 1
 420 64 l 1
 420 650 l 1
 384 650 l 1
 353 613 l 1
 258 695 l 1
 230 665 218 612 218 534 c 2
 218 474 l 1
 353 474 l 1
 353 414 l 1
 218 414 l 1
 218 64 l 1
 234 49 l 1
 286 45 l 1
 286 0 l 1
 31 0 l 1
EndSplineSet
EndChar

StartChar: endash
Encoding: 8211 8211 110
Width: 500
Flags: HMW
HStem: 195 91<0 500 0 500>
VStem: 0 500<195 286 195 286>
LayerCount: 2
Fore
SplineSet
0 195 m 1
 0 286 l 1
 500 286 l 1
 500 195 l 1
 0 195 l 1
EndSplineSet
EndChar

StartChar: dagger
Encoding: 8224 8224 111
Width: 500
Flags: HMW
HStem: -130 20 460 42<242 259 242 259> 698 20<250 250>
LayerCount: 2
Fore
SplineSet
17 483 m 1
 88 535 l 1
 232 490 l 1
 232 471 l 1
 88 431 l 1
 17 483 l 1
193 294 m 1
 242 460 l 1
 259 460 l 1
 309 294 l 1
 259 -130 l 1
 242 -130 l 1
 193 294 l 1
196 642 m 1
 250 718 l 1
 303 642 l 1
 259 502 l 1
 242 502 l 1
 196 642 l 1
269 471 m 1
 269 490 l 1
 410 535 l 1
 483 483 l 1
 410 431 l 1
 269 471 l 1
EndSplineSet
EndChar

StartChar: daggerdbl
Encoding: 8225 8225 112
Width: 500
Flags: HMW
HStem: -132 20 84 43<243 258 243 259 243 259> 460 42<243 258 258 258> 698 20<250 250>
LayerCount: 2
Fore
SplineSet
17 105 m 1
 88 157 l 1
 232 112 l 1
 232 94 l 1
 88 53 l 1
 17 105 l 1
17 483 m 1
 88 535 l 1
 232 490 l 1
 232 471 l 1
 88 431 l 1
 17 483 l 1
187 294 m 1
 243 460 l 1
 258 460 l 1
 310 294 l 1
 258 127 l 1
 243 127 l 1
 187 294 l 1
199 -56 m 1
 243 84 l 1
 259 84 l 1
 302 -56 l 1
 250 -132 l 1
 199 -56 l 1
199 642 m 1
 250 718 l 1
 302 642 l 1
 259 502 l 1
 243 502 l 1
 199 642 l 1
269 94 m 1
 269 112 l 1
 410 157 l 1
 483 105 l 1
 410 53 l 1
 269 94 l 1
269 471 m 1
 269 490 l 1
 410 535 l 1
 483 483 l 1
 410 431 l 1
 269 471 l 1
EndSplineSet
EndChar

StartChar: periodcentered
Encoding: 183 183 113
Width: 289
Flags: W
HStem: 256 158<90.352 199.648>
VStem: 66 158<280.352 389.648>
LayerCount: 2
Back
SplineSet
144 415 m 0
 188 415 224 379 224 335 c 0
 224 292 188 256 144 256 c 0
 101 256 66 291 66 335 c 0
 66 379 101 415 144 415 c 0
EndSplineSet
Fore
Refer: 14 46 N 1 0 0 1 0 264 2
EndChar

StartChar: paragraph
Encoding: 182 182 114
Width: 491
Flags: HMW
HStem: -79 20 628 43<261 457>
VStem: 19 250<396 537.5> 339 57<-79 618 -79 623 -79 623>
LayerCount: 2
Fore
SplineSet
19 464 m 0
 19 611 95 671 261 671 c 2
 457 671 l 1
 457 628 l 1
 396 618 l 1
 396 -79 l 1
 339 -79 l 1
 339 623 l 1
 269 623 l 1
 269 262 l 1
 263 262 257 262 252 262 c 0
 95 262 19 328 19 464 c 0
EndSplineSet
EndChar

StartChar: bullet
Encoding: 8226 8226 115
Width: 590
Flags: MW
HStem: 227 289<255 334>
VStem: 150 289<332.5 412 332.5 412>
LayerCount: 2
Fore
SplineSet
150 372 m 0
 150 452 215 516 295 516 c 0
 374 516 439 452 439 372 c 0
 439 293 374 227 294 227 c 0
 214 227 150 292 150 372 c 0
EndSplineSet
EndChar

StartChar: quotesinglbase
Encoding: 8218 8218 116
Width: 255
Flags: HMW
HStem: -174 303<55 141.5>
VStem: 47 157<50.5 57.5 -15.5 80.5>
LayerCount: 2
Fore
SplineSet
33 -144 m 1
 95 -106 126 -60 126 -7 c 0
 126 -1 126 4 125 10 c 1
 65 10 l 1
 53 25 47 41 47 60 c 0
 47 101 73 129 115 129 c 0
 168 129 204 89 204 26 c 0
 204 -57 153 -130 55 -174 c 1
 33 -144 l 1
EndSplineSet
EndChar

StartChar: quotedblbase
Encoding: 8222 8222 117
Width: 475
Flags: HMW
HStem: -174 303<57 145.5 98 278>
VStem: 49 159<50 58 -15 81> 270 158<50.5 57.5 -15.5 80.5>
LayerCount: 2
Fore
SplineSet
36 -144 m 1
 98 -106 129 -59 129 -7 c 0
 129 -1 129 4 128 10 c 1
 68 10 l 1
 55 24 49 40 49 60 c 0
 49 102 77 129 119 129 c 0
 172 129 208 89 208 27 c 0
 208 -57 155 -131 57 -174 c 1
 36 -144 l 1
257 -144 m 1
 319 -105 350 -60 350 -7 c 0
 350 -1 350 4 349 10 c 1
 289 10 l 1
 276 24 270 41 270 60 c 0
 270 101 297 129 339 129 c 0
 392 129 428 89 428 26 c 0
 428 -57 376 -130 278 -174 c 1
 257 -144 l 1
EndSplineSet
EndChar

StartChar: quotedblright
Encoding: 8221 8221 118
Width: 475
Flags: HMW
HStem: 395 303<69 157.5 110 290>
VStem: 61 159<619 626 553 649.5> 282 158<618.5 626 553 649>
LayerCount: 2
Fore
SplineSet
48 425 m 1
 111 463 142 510 142 562 c 0
 142 567 142 573 141 578 c 1
 80 578 l 1
 67 592 61 609 61 629 c 0
 61 670 89 698 131 698 c 0
 184 698 220 657 220 595 c 0
 220 511 167 437 69 395 c 1
 48 425 l 1
269 425 m 1
 331 463 362 509 362 561 c 0
 362 567 362 572 361 578 c 1
 301 578 l 1
 288 592 282 609 282 628 c 0
 282 670 309 698 351 698 c 0
 404 698 440 657 440 595 c 0
 440 511 388 438 290 395 c 1
 269 425 l 1
EndSplineSet
EndChar

StartChar: guillemotright
Encoding: 187 187 119
Width: 449
Flags: HMW
HStem: 54 372<43 43 43 239>
VStem: 43 172<54 282 138 282 198 426 198 426> 239 173<54 282 138 282 198 426 198 426>
LayerCount: 2
Fore
SplineSet
239 54 m 1
 239 138 l 1
 347 240 l 1
 239 342 l 1
 239 426 l 1
 412 282 l 1
 412 198 l 1
 239 54 l 1
EndSplineSet
Refer: 107 8250 S 1 0 0 1 5 0 2
EndChar

StartChar: perthousand
Encoding: 8240 8240 121
Width: 1287
Flags: HW
HStem: -12 45<671.5 716.5 671.5 747 1070.5 1115.5> 263 46<178 222.5 178 254> 363 44<672 716.5 1071 1115.5> 638 45<178 222.5>
VStem: 37 95<419.5 528.5 419.5 540> 271 99<419 528.5> 530 95<143.5 252.5 143.5 263.5> 764 99<143 252.5> 928 96<143.5 252.5 143.5 263.5> 1162 100<143 252.5>
LayerCount: 2
Fore
SplineSet
37 474 m 0
 37 606 102 683 203 683 c 0
 304 683 370 605 370 474 c 0
 370 342 305 263 203 263 c 0
 101 263 37 341 37 474 c 0
132 474 m 0
 132 365 156 309 200 309 c 0
 245 309 271 364 271 474 c 0
 271 583 245 638 200 638 c 0xffc0
 156 638 132 583 132 474 c 0
203 0 m 1
 621 671 l 1
 691 671 l 1
 273 0 l 1
 203 0 l 1
530 198 m 0
 530 329 595 407 696 407 c 0
 797 407 863 328 863 198 c 0
 863 66 798 -12 696 -12 c 0
 594 -12 530 65 530 198 c 0
625 198 m 0
 625 89 649 33 694 33 c 0
 739 33 764 88 764 198 c 0
 764 307 739 363 694 363 c 0
 650 363 625 307 625 198 c 0
928 198 m 0
 928 329 994 407 1095 407 c 0
 1196 407 1262 328 1262 198 c 0
 1262 66 1197 -12 1095 -12 c 0
 993 -12 928 65 928 198 c 0
1024 198 m 0
 1024 89 1048 33 1093 33 c 0
 1138 33 1162 88 1162 198 c 0
 1162 307 1138 363 1093 363 c 0
 1049 363 1024 307 1024 198 c 0
EndSplineSet
EndChar

StartChar: questiondown
Encoding: 191 191 122
Width: 487
Flags: HMW
HStem: -8 59<297 300 297 317> 531 152<257 298.5>
VStem: 38 130<137.5 216.5 137.5 226> 203 150<586.5 629>
LayerCount: 2
Fore
SplineSet
38 177 m 0
 38 275 108 347 247 392 c 1
 247 483 l 1
 312 483 l 1
 312 348 l 1
 217 315 168 256 168 177 c 0
 168 98 215 51 297 51 c 0
 298 51 299 51 300 51 c 2
 345 164 l 1
 352 165 358 165 365 165 c 0
 412 165 439 142 439 103 c 0
 439 43 372 -8 262 -8 c 0
 125 -8 38 69 38 177 c 0
203 608 m 0
 203 650 236 683 278 683 c 0
 319 683 353 650 353 608 c 0
 353 565 319 531 278 531 c 0
 236 531 203 565 203 608 c 0
EndSplineSet
EndChar

StartChar: grave
Encoding: 96 96 123
Width: 500
Flags: MW
HStem: 552 190<86 307 86 239>
VStem: 86 221<552 742>
LayerCount: 2
Fore
SplineSet
86 742 m 1
 210 742 l 1
 307 552 l 1
 239 552 l 1
 86 742 l 1
EndSplineSet
EndChar

StartChar: acute
Encoding: 180 180 124
Width: 500
Flags: HMW
HStem: 552 190<206 427 206 427>
VStem: 206 221<552 742>
LayerCount: 2
Fore
SplineSet
206 552 m 1
 303 742 l 1
 427 742 l 1
 273 552 l 1
 206 552 l 1
EndSplineSet
EndChar

StartChar: circumflex
Encoding: 710 710 125
Width: 500
Flags: HMW
HStem: 552 190<96 294 96 294 206 404 206 327>
VStem: 96 308<552 552>
LayerCount: 2
Fore
SplineSet
96 552 m 1
 206 742 l 1
 294 742 l 1
 404 552 l 1
 327 552 l 1
 250 677 l 1
 174 552 l 1
 96 552 l 1
EndSplineSet
EndChar

StartChar: tilde
Encoding: 732 732 126
Width: 500
Flags: HMW
HStem: 570 152
VStem: 87 324<570 708.5 584.5 708.5>
LayerCount: 2
Fore
SplineSet
87 570 m 1
 87 576 87 582 87 587 c 0
 87 664 119 706 174 706 c 0
 233 706 283 659 318 659 c 0
 344 659 357 677 357 714 c 0
 357 716 357 719 357 722 c 1
 411 722 l 1
 411 717 411 711 411 706 c 0
 411 629 377 587 324 587 c 0
 259 587 209 633 179 633 c 0
 155 633 142 614 142 580 c 0
 142 577 142 574 142 570 c 1
 87 570 l 1
EndSplineSet
EndChar

StartChar: macron
Encoding: 175 175 127
Width: 500
Flags: HMW
HStem: 604 71<86 417 86 417>
VStem: 86 331<604 675 604 675>
LayerCount: 2
Fore
SplineSet
86 604 m 1
 86 675 l 1
 417 675 l 1
 417 604 l 1
 86 604 l 1
EndSplineSet
EndChar

StartChar: breve
Encoding: 728 728 128
Width: 500
Flags: HMW
HStem: 567 71<214.5 287.5 214.5 305>
VStem: 98 305<705 710 710 719 716.5 719>
LayerCount: 2
Fore
SplineSet
98 705 m 0
 98 710 98 714 98 719 c 1
 149 718 l 1
 149 716 149 714 149 712 c 0
 149 655 178 638 251 638 c 0
 324 638 352 656 352 712 c 0
 352 714 352 716 352 718 c 1
 403 719 l 1
 403 715 403 712 403 708 c 0
 403 605 359 567 251 567 c 0
 143 567 98 604 98 705 c 0
EndSplineSet
EndChar

StartChar: dotaccent
Encoding: 729 729 129
Width: 500
Flags: HMW
HStem: 579 134<232 267.5 232 268>
VStem: 185 130<627 664 627 664>
LayerCount: 2
Fore
SplineSet
185 645 m 0
 185 683 214 713 250 713 c 0
 285 713 315 683 315 645 c 0
 315 609 286 579 250 579 c 0
 213 579 185 608 185 645 c 0
EndSplineSet
EndChar

StartChar: dieresis
Encoding: 168 168 130
Width: 500
Flags: HMW
HStem: 579 131<129.5 164 129.5 164.5 335.5 370>
VStem: 83 127<626 662.5> 290 126<626 662.5>
LayerCount: 2
Fore
SplineSet
83 644 m 0
 83 681 112 710 147 710 c 0
 181 710 210 681 210 644 c 0
 210 608 182 579 147 579 c 0
 112 579 83 608 83 644 c 0
290 644 m 0
 290 681 318 710 353 710 c 0
 387 710 416 681 416 644 c 0
 416 608 387 579 353 579 c 0
 317 579 290 608 290 644 c 0
EndSplineSet
EndChar

StartChar: ring
Encoding: 730 730 131
Width: 500
Flags: HMW
HStem: 546 52<232 268.5 232 283.5> 731 52<232 268.5>
VStem: 132 52<647 683.5 647 698> 317 52<647 683.5>
LayerCount: 2
Fore
SplineSet
132 665 m 0
 132 731 184 783 250 783 c 0
 316 783 369 731 369 665 c 0
 369 599 317 546 250 546 c 0
 183 546 132 598 132 665 c 0
184 665 m 0
 184 629 214 598 250 598 c 0
 287 598 317 629 317 665 c 0
 317 702 287 731 250 731 c 0
 214 731 184 702 184 665 c 0
EndSplineSet
EndChar

StartChar: cedilla
Encoding: 184 184 132
Width: 500
Flags: HMW
HStem: -230 50<239.5 253.5 225.5 290> -110 54<246.5 318>
VStem: 295 78<-155 -133>
LayerCount: 2
Fore
SplineSet
172 -172 m 1
 198 -177 218 -180 233 -180 c 0
 274 -180 295 -167 295 -143 c 0
 295 -123 279 -110 250 -110 c 0
 243 -110 236 -111 228 -112 c 1
 228 0 l 1
 276 0 l 1
 276 -57 l 1
 281 -56 287 -56 292 -56 c 0
 344 -56 373 -85 373 -132 c 0
 373 -190 327 -230 253 -230 c 0
 226 -230 200 -226 172 -219 c 1
 172 -172 l 1
EndSplineSet
EndChar

StartChar: hungarumlaut
Encoding: 733 733 133
Width: 500
Flags: HW
HStem: 552 190<108 311 108 311 239 239 239 305>
VStem: 108 203<552 742> 239 250<552 742>
LayerCount: 2
Fore
SplineSet
108 552 m 1
 202 742 l 1xc0
 311 742 l 1
 166 552 l 1
 108 552 l 1
239 552 m 1
 366 742 l 1xa0
 489 742 l 1
 305 552 l 1
 239 552 l 1
EndSplineSet
EndChar

StartChar: ogonek
Encoding: 731 731 134
Width: 500
Flags: HMW
HStem: -224 72<287 289.5> -20 20<245 299 299 299>
VStem: 176 73<-116 -112.5>
LayerCount: 2
Fore
SplineSet
176 -134 m 0
 176 -91 200 -40 245 0 c 1
 299 0 l 1
 266 -30 249 -66 249 -99 c 0
 249 -133 269 -152 305 -152 c 0
 313 -152 323 -151 336 -149 c 1
 336 -217 l 1
 317 -222 298 -224 281 -224 c 0
 212 -224 176 -192 176 -134 c 0
EndSplineSet
EndChar

StartChar: caron
Encoding: 711 711 135
Width: 500
Flags: MW
HStem: 551 190<96 294 96 206>
VStem: 96 308<741 741>
LayerCount: 2
Fore
SplineSet
96 741 m 1
 174 741 l 1
 250 616 l 1
 327 741 l 1
 404 741 l 1
 294 551 l 1
 206 551 l 1
 96 741 l 1
EndSplineSet
EndChar

StartChar: emdash
Encoding: 8212 8212 136
Width: 1000
Flags: MW
HStem: 196 90<0 1000 0 1000>
VStem: 0 1000<196 286 196 286>
LayerCount: 2
Fore
SplineSet
0 196 m 1
 0 286 l 1
 1000 286 l 1
 1000 196 l 1
 0 196 l 1
EndSplineSet
EndChar

StartChar: AE
Encoding: 198 198 137
Width: 890
Flags: MW
HStem: 0 57<544 764 544 863> 245 59<229 417 229 417 194 417> 317 60<544 663 544 663> 615 56<544 732 544 544>
VStem: 417 127<70 245 245 245 304 317 377 615>
DStem2: 2 56 89 69 0.514265 0.857631<55.8903 260.831 329.431 636.946>
LayerCount: 2
Fore
SplineSet
-58 0 m 1
 -58 49 l 1
 2 56 l 1
 330 602 l 1
 319 617 l 1
 262 622 l 1
 262 671 l 1
 830 671 l 1
 830 514 l 1
 760 514 l 1
 745 602 l 1
 732 615 l 1
 544 615 l 1
 544 377 l 1
 663 377 l 1
 677 391 l 1
 687 463 l 1
 745 463 l 1
 745 231 l 1
 687 231 l 1
 677 303 l 1
 663 317 l 1
 544 317 l 1
 544 57 l 1
 764 57 l 1
 778 73 l 1
 795 179 l 1
 863 179 l 1
 863 0 l 1
 340 0 l 1
 340 49 l 1
 401 54 l 1
 417 70 l 1
 417 245 l 1
 194 245 l 1
 89 69 l 1
 96 56 l 1
 156 49 l 1
 156 0 l 1
 -58 0 l 1
229 304 m 1
 417 304 l 1
 417 616 l 1
 229 304 l 1
EndSplineSet
EndChar

StartChar: ordfeminine
Encoding: 170 170 138
Width: 408
Flags: HMW
HStem: 324 6 361 17 513 35<257 258> 642 37<181.5 211.5>
VStem: 30 99<414 453 414 455> 257 94<370 555 399 513 513 513>
LayerCount: 2
Fore
SplineSet
30 415 m 0
 30 495 101 515 258 548 c 1
 258 569 l 2
 258 620 236 642 187 642 c 0
 176 642 164 641 151 638 c 1
 151 572 l 1
 82 572 l 2
 59 572 47 579 47 598 c 0
 47 638 112 679 211 679 c 0
 316 679 351 645 351 555 c 2
 351 374 l 1
 361 364 l 1
 401 361 l 1
 401 330 l 1
 267 330 l 1
 257 370 l 1
 209 340 169 324 128 324 c 0
 71 324 30 361 30 415 c 0
129 430 m 0
 129 398 150 378 185 378 c 0
 204 378 228 385 257 399 c 1
 257 513 l 1
 169 494 129 476 129 430 c 0
EndSplineSet
EndChar

StartChar: Lslash
Encoding: 321 321 139
Width: 543
Flags: HMW
HStem: 0 58<237 430 237 532> 622 49<27 315 27 315>
VStem: 105 132<70 276 276 276 341 362 428 603>
LayerCount: 2
Fore
SplineSet
9 275 m 1
 105 341 l 1
 105 603 l 1
 91 617 l 1
 27 622 l 1
 27 671 l 1
 315 671 l 1
 315 622 l 1
 254 617 l 1
 237 603 l 1
 237 428 l 1
 334 493 l 1
 365 448 l 1
 237 362 l 1
 237 58 l 1
 430 58 l 1
 442 74 l 1
 457 196 l 1
 532 196 l 1
 532 0 l 1
 27 0 l 1
 27 49 l 1
 88 54 l 1
 105 70 l 1
 105 276 l 1
 35 228 l 1
 9 275 l 1
EndSplineSet
EndChar

StartChar: Oslash
Encoding: 216 216 140
Width: 752
Flags: HMW
HStem: -16 62<358 420> 622 64<323.5 400>
VStem: 41 143<306 430 306 441> 573 145<281 368.5>
LayerCount: 2
Fore
SplineSet
41 334 m 0
 41 548 176 686 381 686 c 0
 431 686 479 676 526 656 c 1
 583 753 l 1
 632 725 l 1
 575 627 l 1
 668 553 718 462 718 334 c 0
 718 228 679 135 609 70 c 0
 548 13 467 -16 373 -16 c 0
 319 -16 269 -5 221 19 c 1
 162 -83 l 1
 116 -50 l 1
 173 48 l 1
 87 115 41 215 41 334 c 0
184 344 m 0
 184 268 198 202 228 142 c 1
 485 584 l 1
 454 610 420 622 380 622 c 0
 267 622 184 516 184 344 c 0
264 92 m 1
 298 61 336 46 380 46 c 0
 491 46 573 154 573 327 c 0
 573 410 560 479 524 538 c 1
 264 92 l 1
EndSplineSet
EndChar

StartChar: OE
Encoding: 338 338 141
Width: 1010
Flags: W
HStem: -11 66<289.912 439.383> 0 57<662 881> 319 58<662 780> 615 56<662 848> 616 65<292.806 439.265>
VStem: 40 147<199.814 471.635> 540 122<57 98 185.226 319 377 483.65 578 615> 803 59<231 293.125 400 463> 878 69<514 558.154> 912 68<135.353 179>
LayerCount: 2
Fore
SplineSet
40 336 m 0xa740
 40 544 165 681 345 681 c 0xaf40
 433 681 501 645 540 578 c 1
 540 671 l 1
 947 671 l 1
 947 514 l 1
 878 514 l 1x3780
 865 596 l 1
 848 615 l 1
 662 615 l 1
 662 377 l 1
 781 377 l 1
 795 391 l 1
 803 463 l 1
 862 463 l 1
 862 231 l 1
 803 231 l 1
 795 302 l 1
 780 319 l 1
 662 319 l 1
 662 57 l 1
 881 57 l 1
 895 73 l 1
 912 179 l 1
 980 179 l 1
 980 0 l 1
 540 0 l 1x7740
 540 98 l 1
 486 24 420 -11 335 -11 c 0
 280 -11 229 4 186 32 c 0
 95 91 40 199 40 336 c 0xa740
187 338 m 0
 187 159 264 55 364 55 c 0
 467 55 542 159 542 332 c 0
 542 512 468 616 365 616 c 0
 262 616 187 512 187 338 c 0
EndSplineSet
EndChar

StartChar: ordmasculine
Encoding: 186 186 142
Width: 433
Flags: HMW
HStem: 324 37<192 246 192 275.5> 642 37<192.5 245.5>
VStem: 28 104<457 548 457 554> 307 103<455.5 546.5>
LayerCount: 2
Fore
SplineSet
28 500 m 0
 28 608 104 679 222 679 c 0
 337 679 410 610 410 499 c 0
 410 395 335 324 216 324 c 0
 104 324 28 394 28 500 c 0
132 503 m 0
 132 411 166 361 218 361 c 0
 274 361 307 410 307 501 c 0
 307 592 272 642 219 642 c 0
 166 642 132 593 132 503 c 0
EndSplineSet
EndChar

StartChar: ae
Encoding: 230 230 143
Width: 768
Flags: HMW
HStem: -10 78<131 250> 252 52<446 607 444 734 446 446> 443 55<526.5 555.5>
VStem: 41 128<120 176 120 179> 328 118<131 252 131 261 131 261 131 342 131 378.5> 607 128<304 318 315.5 347 272 359.5>
LayerCount: 2
Fore
SplineSet
41 124 m 0
 41 234 130 265 328 312 c 1
 328 342 l 2
 328 415 300 446 234 446 c 0
 224 446 210 444 194 440 c 1
 194 346 l 1
 105 346 l 2
 76 346 63 356 63 383 c 0
 63 441 145 499 271 499 c 0
 335 499 381 483 415 444 c 1
 453 480 500 498 553 498 c 0
 666 498 735 418 735 276 c 0
 735 268 734 260 734 252 c 1
 446 252 l 1
 446 131 l 1
 490 91 538 71 594 71 c 0
 644 71 687 89 734 124 c 1
 734 50 l 1
 676 11 616 -9 552 -9 c 0
 478 -9 412 16 358 64 c 1
 291 15 230 -10 171 -10 c 0
 91 -10 41 42 41 124 c 0
169 143 m 0
 169 97 196 68 238 68 c 0
 262 68 291 78 328 98 c 1
 328 261 l 1
 217 231 169 209 169 143 c 0
444 304 m 1
 607 304 l 1
 607 309 607 313 607 318 c 0
 607 401 581 443 530 443 c 0
 474 443 445 396 444 304 c 1
EndSplineSet
EndChar

StartChar: dotlessi
Encoding: 305 305 144
Width: 305
Flags: HMW
HStem: 0 45<30 292 30 30> 409 40<32 98 32 32> 476 20<173 221 221 221>
VStem: 98 123<64 409 409 409>
LayerCount: 2
Fore
SplineSet
30 0 m 1
 30 45 l 1
 84 49 l 1
 98 64 l 1
 98 409 l 1
 32 409 l 1
 32 449 l 1
 173 496 l 1
 221 496 l 1
 221 64 l 1
 236 49 l 1
 292 45 l 1
 292 0 l 1
 30 0 l 1
EndSplineSet
EndChar

StartChar: lslash
Encoding: 322 322 145
Width: 304
Flags: HMW
HStem: 0 44<23 291 23 23> 652 39<23 95 23 23> 719 20<174 218 218 218>
VStem: 95 123<66 291 291 291 355 375 66 652>
LayerCount: 2
Fore
SplineSet
-2 288 m 1
 95 355 l 1
 95 652 l 1
 23 652 l 1
 23 691 l 1
 174 739 l 1
 218 739 l 1
 219 441 l 1
 297 496 l 1
 328 451 l 1
 218 375 l 1
 218 66 l 1
 233 50 l 1
 291 44 l 1
 291 0 l 1
 23 0 l 1
 23 44 l 1
 81 50 l 1
 95 64 l 1
 95 291 l 1
 26 242 l 1
 -2 288 l 1
EndSplineSet
EndChar

StartChar: oslash
Encoding: 248 248 146
Width: 577
Flags: HMW
HStem: -8 53<278 328.5 274.5 373> 446 52<254.5 302.5>
VStem: 37 133<229.5 313.5 229.5 321.5> 413 134<175 265.5>
LayerCount: 2
Fore
SplineSet
37 244 m 0
 37 399 136 498 295 498 c 0
 327 498 358 493 389 483 c 1
 438 571 l 1
 480 547 l 1
 433 463 l 1
 508 417 547 344 547 247 c 0
 547 93 446 -8 300 -8 c 0
 256 -8 217 -3 180 12 c 1
 126 -83 l 1
 85 -56 l 1
 137 35 l 1
 70 84 37 154 37 244 c 0
170 251 m 0
 170 208 176 167 188 128 c 1
 355 424 l 1
 335 439 315 446 290 446 c 0
 219 446 170 376 170 251 c 0
217 78 m 1
 235 56 259 45 290 45 c 0
 367 45 413 113 413 237 c 0
 413 294 406 341 386 381 c 1
 217 78 l 1
EndSplineSet
EndChar

StartChar: oe
Encoding: 339 339 147
Width: 861
Flags: HMW
HStem: -8 53<249 313> 255 53<522 696 522 827 518 696> 445 54<599.5 641.5>
VStem: 37 135<181 311.5 181 321> 392 126<255 255 255 309.5> 696 131<255 320 255 361>
LayerCount: 2
Fore
SplineSet
37 244 m 0
 37 398 135 498 280 498 c 0
 357 498 418 471 463 419 c 1
 509 472 566 499 633 499 c 0
 754 499 827 418 827 275 c 0
 827 268 827 262 827 255 c 1
 518 255 l 1
 519 139 578 72 674 72 c 0
 729 72 774 89 825 124 c 1
 825 50 l 1
 765 11 702 -8 636 -8 c 0
 563 -8 505 18 458 71 c 1
 406 17 349 -8 277 -8 c 0
 134 -8 37 92 37 244 c 0
172 247 m 0
 172 115 215 45 283 45 c 0
 351 45 392 114 392 244 c 0
 392 375 350 446 282 446 c 0
 215 446 172 376 172 247 c 0
522 308 m 1
 696 308 l 1
 696 312 696 316 696 320 c 0
 696 402 667 445 616 445 c 0
 563 445 526 397 522 308 c 1
EndSplineSet
EndChar

StartChar: germandbls
Encoding: 223 223 148
Width: 642
Flags: HW
HStem: -8 55<414 449.5 414 487.5> 0 44<18 245> 684 58<290.5 359>
VStem: 84 125<64 438 438 445 64 534> 299 120<378 394> 507 115<108.5 152>
LayerCount: 2
Fore
SplineSet
18 0 m 1
 18 46 l 1
 74 50 l 1
 84 64 l 1
 84 438 l 2
 84 630 194 742 355 742 c 0
 475 742 549 672 549 563 c 0
 549 532 545 502 538 471 c 1x7c
 529 472 520 473 511 473 c 0
 453 473 419 444 419 400 c 0
 419 356 451 339 498 311 c 0
 577 264 622 228 622 154 c 0
 622 63 545 -8 430 -8 c 0
 394 -8 351 -2 300 12 c 1
 300 155 l 1
 362 155 l 1
 370 62 l 1
 386 52 404 47 424 47 c 0x8c
 475 47 507 78 507 122 c 0
 507 182 453 203 369 250 c 0
 325 275 299 316 299 363 c 0
 299 425 341 477 413 494 c 1
 419 526 423 551 423 570 c 0
 423 640 386 684 332 684 c 0
 249 684 209 604 209 445 c 2
 209 64 l 1
 213 49 l 1
 245 44 l 1
 245 0 l 1
 18 0 l 1
EndSplineSet
EndChar

StartChar: Aring
Encoding: 197 197 153
Width: 651
Flags: HMW
HStem: 0 49<-11 204 -11 -11> 238 56<210 386 210 409 191 386> 658 20<275 380 380 380> 726 52<298.5 334 298.5 348.5> 911 52<298.5 334>
VStem: -11 211 252 129<825.5 862.5 825.5 863> 433 236
LayerCount: 2
Fore
SplineSet
200 844 m 0
 200 910 251 963 316 963 c 0
 381 963 433 910 433 844 c 0
 433 778 381 726 316 726 c 0
 251 726 200 777 200 844 c 0
252 844 m 0
 252 807 281 778 316 778 c 0
 352 778 381 807 381 844 c 0
 381 881 352 911 316 911 c 0
 281 911 252 882 252 844 c 0
EndSplineSet
Refer: 33 65 S 1 0 0 1 0 0 2
EndChar

StartChar: aring
Encoding: 229 229 181
Width: 544
Flags: HW
HStem: -9 9 44 24 261 51<343 344> 446 53<241.5 282> 546 52<258.5 293.5 258.5 308.5> 731 52<258.5 294>
VStem: 40 132<120 176 120 178.5> 159 53<646.5 684 646.5 697.5> 341 127 343 50
LayerCount: 2
Fore
SplineSet
159 665 m 0
 159 730 212 783 276 783 c 0x0d40
 341 783 393 731 393 665 c 0
 393 599 341 546 276 546 c 0
 211 546 159 598 159 665 c 0
212 665 m 0
 212 628 241 598 276 598 c 0
 311 598 341 628 341 665 c 0
 341 702 312 731 276 731 c 0x0d80
 241 731 212 703 212 665 c 0
EndSplineSet
Refer: 65 97 S 1 0 0 1 0 0 2
EndChar

StartChar: trademark
Encoding: 8482 8482 205
Width: 800
Flags: HMW
HStem: 398 25<163 290 163 163> 637 25<156 198 156 156 256 298 256 256>
VStem: 198 58<429 637 429 637> 398 32<429 628 429 631 429 631> 622 55<429 628 628 628>
LayerCount: 2
Fore
SplineSet
111 588 m 1
 111 662 l 1
 342 662 l 1
 342 588 l 1
 312 588 l 1
 305 632 l 1
 298 637 l 1
 256 637 l 1
 256 429 l 1
 290 423 l 1
 290 398 l 1
 163 398 l 1
 163 423 l 1
 198 429 l 1
 198 637 l 1
 156 637 l 1
 149 632 l 1
 142 588 l 1
 111 588 l 1
367 398 m 1
 367 423 l 1
 398 429 l 1
 398 631 l 1
 367 636 l 1
 367 662 l 1
 480 662 l 1
 480 649 l 1
 538 480 l 1
 597 648 l 1
 597 662 l 1
 709 662 l 1
 709 636 l 1
 677 630 l 1
 677 429 l 1
 709 423 l 1
 709 398 l 1
 594 398 l 1
 594 422 l 1
 622 429 l 1
 622 628 l 1
 540 398 l 1
 509 398 l 1
 430 628 l 1
 430 429 l 1
 460 423 l 1
 460 398 l 1
 367 398 l 1
EndSplineSet
EndChar

StartChar: copyright
Encoding: 169 169 206
Width: 876
Flags: HMW
HStem: -50 46<398 487.5 398 490.5> 103 49<426.5 478.5> 525 48<427.5 482> 684 45<399.5 486.5>
VStem: 62 48<293 386 293 390.5> 212 109<282 394.5 282 406.5> 776 48<295 386>
LayerCount: 2
Fore
SplineSet
62 339 m 0
 62 442 101 539 173 614 c 0
 245 688 342 729 444 729 c 0
 543 729 643 687 715 613 c 0
 784 542 824 441 824 336 c 0
 824 236 782 137 707 61 c 0
 635 -11 543 -50 438 -50 c 0
 342 -50 247 -9 174 65 c 0
 101 139 62 234 62 339 c 0
110 340 m 0
 110 246 144 162 208 97 c 0
 273 31 353 -4 443 -4 c 0
 532 -4 614 31 677 97 c 0
 741 164 776 250 776 340 c 0
 776 432 740 521 678 584 c 0
 615 648 529 684 444 684 c 0
 355 684 270 647 207 582 c 0
 143 516 110 432 110 340 c 0
212 338 m 0
 212 475 310 573 459 573 c 0
 508 573 555 565 600 548 c 1
 600 427 l 1
 547 427 l 1
 532 507 l 1
 513 519 493 525 471 525 c 0
 384 525 321 450 321 339 c 0
 321 225 384 152 469 152 c 0
 490 152 511 157 533 167 c 1
 548 253 l 1
 600 253 l 1
 600 128 l 1
 555 111 505 103 452 103 c 0
 311 103 212 200 212 338 c 0
EndSplineSet
EndChar

StartChar: logicalnot
Encoding: 172 172 207
Width: 833
Flags: HMW
HStem: 340 81<124 628 124 709>
VStem: 628 81<176 340 340 340>
LayerCount: 2
Fore
SplineSet
124 340 m 1
 124 421 l 1
 709 421 l 1
 709 176 l 1
 628 176 l 1
 628 340 l 1
 124 340 l 1
EndSplineSet
EndChar

StartChar: registered
Encoding: 174 174 208
Width: 876
Flags: HMW
HStem: -50 46<397.5 487.5 397.5 490.5> 122 37<690 695> 313 41<391 446 391 446> 519 40<408 445.5> 684 45<400 487.5>
VStem: 62 48<293 385.5 293 390.5> 297 94<169 313 169 355 355 512 512 512> 516 103<421.5 463> 776 48<294.5 385.5>
LayerCount: 2
Fore
SplineSet
62 339 m 0
 62 442 101 539 173 614 c 0
 245 688 342 729 444 729 c 0
 543 729 643 687 715 613 c 0
 784 542 824 441 824 336 c 0
 824 236 782 137 707 61 c 0
 635 -11 543 -50 438 -50 c 0
 342 -50 247 -9 174 65 c 0
 101 139 62 234 62 339 c 0
110 339 m 0
 110 247 143 164 205 100 c 0
 272 31 352 -4 443 -4 c 0
 532 -4 614 31 677 97 c 0
 741 163 776 249 776 340 c 0
 776 431 741 519 681 581 c 0
 618 647 531 684 444 684 c 0
 356 684 271 648 207 582 c 0
 144 516 110 432 110 339 c 0
244 524 m 1
 244 559 l 1
 464 559 l 2
 567 559 619 522 619 451 c 0
 619 392 578 353 500 338 c 1
 576 322 587 276 608 219 c 0
 624 175 641 159 690 159 c 0
 692 159 693 159 695 159 c 1
 695 122 l 1
 667 118 647 116 634 116 c 0
 603 116 577 122 556 136 c 0
 516 162 513 201 498 242 c 0
 480 293 455 313 402 313 c 0
 399 313 395 313 391 313 c 1
 391 169 l 1
 448 158 l 1
 448 121 l 1
 247 121 l 1
 247 157 l 1
 297 168 l 1
 297 512 l 1
 244 524 l 1
391 355 m 1
 398 354 405 354 411 354 c 0
 481 354 516 384 516 437 c 0
 516 489 480 519 411 519 c 0
 405 519 398 519 391 518 c 1
 391 355 l 1
EndSplineSet
EndChar

StartChar: minus
Encoding: 8722 8722 209
Width: 833
Flags: HMW
HStem: 257 83<124 709 124 709>
VStem: 124 585<257 340 257 340>
LayerCount: 2
Fore
SplineSet
124 257 m 1
 124 340 l 1
 709 340 l 1
 709 257 l 1
 124 257 l 1
EndSplineSet
EndChar

StartChar: Eth
Encoding: 208 208 210
Width: 716
Flags: HMW
HStem: 0 56<238 296 296 320> 321 61<15 105 15 105 238 379> 615 56<238 238 238 296>
VStem: 105 133<70 321 56 321 382 601 601 601> 532 149<242.5 430>
LayerCount: 2
Fore
SplineSet
15 321 m 1
 15 382 l 1
 105 382 l 1
 105 601 l 1
 89 617 l 1
 29 622 l 1
 29 671 l 1
 320 671 l 2
 552 671 681 545 681 335 c 0
 681 122 554 0 320 0 c 2
 29 0 l 1
 29 49 l 1
 89 54 l 1
 105 70 l 1
 105 321 l 1
 15 321 l 1
238 56 m 1
 296 56 l 2
 455 56 532 149 532 336 c 0
 532 524 455 615 296 615 c 2
 238 615 l 1
 238 382 l 1
 379 382 l 1
 379 321 l 1
 238 321 l 1
 238 56 l 1
EndSplineSet
EndChar

StartChar: Thorn
Encoding: 222 222 211
Width: 587
Flags: HMW
HStem: 0 49<32 323 32 32> 128 58<302.5 329 270.5 393> 492 56<272 298 298 330> 622 49<32 323 32 323>
VStem: 109 132<70 131 188 490 548 601> 434 138<291 393.5>
LayerCount: 2
Fore
SplineSet
32 0 m 1
 32 49 l 1
 92 54 l 1
 109 70 l 1
 109 603 l 1
 95 617 l 1
 32 622 l 1
 32 671 l 1
 323 671 l 1
 323 622 l 1
 257 617 l 1
 241 601 l 1
 241 548 l 1
 298 548 l 2
 483 548 572 489 572 347 c 0
 572 210 477 128 309 128 c 0
 296 128 273 129 241 131 c 1
 241 70 l 1
 257 54 l 1
 323 49 l 1
 323 0 l 1
 32 0 l 1
241 188 m 1
 253 187 265 186 276 186 c 0
 382 186 434 238 434 344 c 0
 434 443 382 492 278 492 c 0
 266 492 254 491 241 490 c 1
 241 188 l 1
EndSplineSet
EndChar

StartChar: brokenbar
Encoding: 166 166 213
Width: 500
Flags: HMW
HStem: -171 20 199 130<207 294 207 294> 679 20<207 294 294 294>
VStem: 207 87<-171 199 -171 199 329 699>
LayerCount: 2
Fore
SplineSet
207 -171 m 1
 207 199 l 1
 294 199 l 1
 294 -171 l 1
 207 -171 l 1
207 329 m 1
 207 699 l 1
 294 699 l 1
 294 329 l 1
 207 329 l 1
EndSplineSet
EndChar

StartChar: degree
Encoding: 176 176 214
Width: 329
Flags: HMW
HStem: 424 54<140 190.5 140 204.5> 659 54<140 190>
VStem: 21 53<544 594 544 608.5> 255 54<544.5 594>
LayerCount: 2
Fore
SplineSet
21 568 m 0
 21 649 85 713 165 713 c 0
 245 713 309 648 309 568 c 0
 309 490 245 424 164 424 c 0
 84 424 21 487 21 568 c 0
74 569 m 0
 74 519 115 478 165 478 c 0
 216 478 255 520 255 569 c 0
 255 619 215 659 165 659 c 0
 115 659 74 619 74 569 c 0
EndSplineSet
EndChar

StartChar: divide
Encoding: 247 247 215
Width: 833
Flags: HMW
HStem: 46 133<399 435.5 399 436> 258 81<124 709 124 709> 417 134<399 435.5 399 436>
VStem: 350 134<94 130.5 94 130.5 465 501.5>
LayerCount: 2
Fore
SplineSet
124 258 m 1
 124 339 l 1
 709 339 l 1
 709 258 l 1
 124 258 l 1
350 112 m 0
 350 149 381 179 417 179 c 0
 454 179 484 149 484 112 c 0
 484 76 455 46 417 46 c 0
 379 46 350 75 350 112 c 0
350 483 m 0
 350 520 381 551 417 551 c 0
 454 551 484 520 484 483 c 0
 484 447 455 417 417 417 c 0
 379 417 350 446 350 483 c 0
EndSplineSet
EndChar

StartChar: eth
Encoding: 240 240 216
Width: 569
Flags: HMW
HStem: -9 53<253.5 328 253.5 366> 436 50<265.5 287 205 317.5> 724 20<270 270>
VStem: 35 137<177.5 305 177.5 315> 408 131<187 290.5>
LayerCount: 2
Fore
SplineSet
35 243 m 0
 35 387 135 486 275 486 c 0
 299 486 322 485 346 481 c 1
 324 517 301 548 276 578 c 1
 156 507 l 1
 132 551 l 1
 241 615 l 1
 209 651 l 1
 128 655 l 1
 125 690 l 1
 270 744 l 1
 345 669 l 1
 452 731 l 1
 477 688 l 1
 377 629 l 1
 485 503 539 384 539 265 c 0
 539 96 439 -9 293 -9 c 0
 135 -9 35 91 35 243 c 0
172 242 m 0
 172 113 216 44 291 44 c 0
 365 44 408 117 408 257 c 0
 408 324 397 378 373 424 c 1
 348 432 327 436 308 436 c 0
 223 436 172 368 172 242 c 0
EndSplineSet
EndChar

StartChar: micro
Encoding: 181 181 217
Width: 578
Flags: HMW
HStem: -205 20 -12 81<175 223> 412 20<86 187 187 187 355 457 457 457>
VStem: -53 598<-171.5 154>
LayerCount: 2
Fore
SplineSet
-53 -156 m 0
 -53 -104 -5 4 33 182 c 2
 86 432 l 1
 187 432 l 1
 138 204 l 2
 131 172 128 149 128 136 c 0
 128 94 154 69 196 69 c 0
 253 69 285 103 301 177 c 2
 355 432 l 1
 457 432 l 1
 402 172 l 2
 398 153 393 133 393 111 c 0
 393 83 409 67 435 67 c 0
 462 67 481 81 498 111 c 0
 513 138 516 164 534 164 c 0
 542 164 545 159 545 149 c 0
 545 135 535 91 517 58 c 0
 491 12 456 -12 410 -12 c 0
 356 -12 325 24 324 91 c 1
 296 23 252 -12 194 -12 c 0
 130 -12 91 26 84 98 c 1
 46 -107 61 -205 -5 -205 c 0
 -35 -205 -53 -187 -53 -156 c 0
EndSplineSet
EndChar

StartChar: multiply
Encoding: 215 215 218
Width: 833
Flags: HMW
HStem: 16 564<197 197 197 646>
VStem: 140 563<74 74 74 523>
LayerCount: 2
Fore
SplineSet
140 74 m 1
 364 298 l 1
 140 523 l 1
 197 580 l 1
 421 356 l 1
 646 580 l 1
 703 523 l 1
 479 298 l 1
 703 74 l 1
 646 16 l 1
 421 241 l 1
 197 16 l 1
 140 74 l 1
EndSplineSet
EndChar

StartChar: onesuperior
Encoding: 185 185 221
Width: 383
Flags: HMW
HStem: 268 30<98 327 98 98> 602 31<72 72> 665 12
VStem: 172 86<312 608 608 608>
LayerCount: 2
Fore
SplineSet
72 602 m 1
 72 633 l 1
 215 677 l 1
 258 677 l 1
 258 310 l 1
 265 300 l 1
 327 298 l 1
 327 268 l 1
 98 268 l 1
 98 298 l 1
 164 302 l 1
 172 312 l 1
 172 608 l 1
 166 615 l 1
 72 602 l 1
EndSplineSet
EndChar

StartChar: plusminus
Encoding: 177 177 222
Width: 833
Flags: HMW
HStem: 7 82<124 709 124 709> 345 81<124 375 124 375 458 709>
VStem: 375 83<182 345 182 345 426 589>
LayerCount: 2
Fore
SplineSet
124 7 m 1
 124 89 l 1
 709 89 l 1
 709 7 l 1
 124 7 l 1
124 345 m 1
 124 426 l 1
 375 426 l 1
 375 589 l 1
 458 589 l 1
 458 426 l 1
 709 426 l 1
 709 345 l 1
 458 345 l 1
 458 182 l 1
 375 182 l 1
 375 345 l 1
 124 345 l 1
EndSplineSet
EndChar

StartChar: thorn
Encoding: 254 254 223
Width: 591
Flags: HMW
HStem: -219 46<25 25 25 293> -1 54<286 323 269 378.5> 413 86<282 426> 652 39<20 93 20 20> 719 20<171 215 215 215>
VStem: 93 122<-153 5 60 394 436 652 652 652> 427 135<186 299.5>
LayerCount: 2
Fore
SplineSet
20 652 m 1
 20 691 l 1
 171 739 l 1
 215 739 l 1
 215 436 l 1
 274 477 324 499 373 499 c 0
 479 499 562 403 562 263 c 0
 562 103 460 -1 297 -1 c 0
 275 -1 248 1 215 5 c 1
 215 -155 l 1
 230 -169 l 1
 294 -173 l 1
 293 -219 l 1
 25 -219 l 1
 25 -173 l 1
 80 -168 l 1
 93 -153 l 1
 93 652 l 1
 20 652 l 1
215 60 m 1
 238 55 259 53 279 53 c 0
 367 53 427 126 427 246 c 0
 427 353 375 413 294 413 c 0
 270 413 244 406 215 394 c 1
 215 60 l 1
EndSplineSet
EndChar

StartChar: threesuperior
Encoding: 179 179 225
Width: 383
Flags: HW
HStem: 261 36<160.5 192 160.5 218> 454 40<159.5 174 123 192> 639 38<152.5 182>
VStem: 240 89<552 588> 255 90<356.5 402>
LayerCount: 2
Fore
SplineSet
28 336 m 0
 28 360 46 375 75 375 c 0
 83 375 90 374 100 371 c 1
 121 306 l 1
 139 300 154 297 167 297 c 0
 217 297 255 333 255 380 c 0x88
 255 424 220 454 164 454 c 0
 155 454 141 453 123 451 c 1
 123 494 l 1
 130 494 137 494 143 494 c 0
 205 494 240 521 240 567 c 0
 240 609 206 639 158 639 c 0
 147 639 134 636 121 632 c 1
 121 561 l 1
 110 555 100 553 86 553 c 0
 57 553 38 570 38 594 c 0
 38 638 96 677 185 677 c 0
 273 677 329 634 329 576 c 0
 329 528 292 495 220 480 c 1x70
 301 474 345 438 345 384 c 0
 345 316 275 261 161 261 c 0
 80 261 28 297 28 336 c 0
EndSplineSet
EndChar

StartChar: twosuperior
Encoding: 178 178 226
Width: 383
Flags: HMW
HStem: 268 61<114 299 114 351> 639 39<159 190>
VStem: 246 91<522.5 582>
LayerCount: 2
Fore
SplineSet
32 268 m 1
 32 315 l 1
 171 414 246 480 246 555 c 0
 246 609 215 639 165 639 c 0
 153 639 140 637 127 632 c 1
 127 555 l 1
 112 548 98 544 85 544 c 0
 56 544 38 561 38 586 c 0
 38 636 98 678 193 678 c 0
 281 678 337 630 337 561 c 0
 337 484 261 420 114 329 c 1
 299 329 l 1
 311 382 l 1
 351 382 l 1
 351 268 l 1
 32 268 l 1
EndSplineSet
EndChar

StartChar: uni0237
Encoding: 567 567 228
Width: 297
Flags: HMW
HStem: -214 45<-17 76> 409 39<38 109 38 38> 476 20<189 231 231 231>
VStem: 109 122<48 98 98 409 409 409>
LayerCount: 2
Fore
SplineSet
-80 -144 m 0
 -80 -112 -58 -85 -22 -78 c 1
 76 -169 l 1
 101 -135 109 -69 109 29 c 2
 109 409 l 1
 38 409 l 1
 38 448 l 1
 189 496 l 1
 231 496 l 1
 231 98 l 2
 231 -2 222 -76 177 -134 c 0
 138 -184 75 -214 11 -214 c 0
 -45 -214 -80 -184 -80 -144 c 0
EndSplineSet
EndChar

StartChar: afii10033
Encoding: 1055 1055 256
Width: 758
Flags: HW
HStem: 0 49<30 88 253 313 445 505 670 728> 611 60<237 521> 622 49<30 88 670 728>
VStem: 104 133<70 601> 521 133<70 601>
LayerCount: 2
Fore
SplineSet
30 0 m 1
 30 49 l 1
 88 54 l 1
 104 70 l 1
 104 601 l 1
 88 617 l 1
 30 622 l 1
 30 671 l 1xb8
 728 671 l 1
 728 622 l 1xb8
 670 617 l 1
 654 601 l 1
 654 70 l 1
 670 54 l 1
 728 49 l 1
 728 0 l 1
 445 0 l 1
 445 49 l 1
 505 54 l 1
 521 70 l 1
 521 611 l 1
 237 611 l 1xd8
 237 70 l 1
 253 54 l 1
 313 49 l 1
 313 0 l 1
 30 0 l 1
EndSplineSet
EndChar

StartChar: afii10040
Encoding: 1062 1062 257
Width: 764
Flags: W
HStem: -170 21G<663.762 738> 0 60<237 517> 0 49<30 88> 622 49<30 88 253 313 441 501 666 724>
VStem: 104 133<70 601> 517 133<70 601> 668 70<-170 -136.969>
LayerCount: 2
Fore
SplineSet
30 0 m 1xbe
 30 49 l 1xbe
 88 54 l 1
 104 70 l 1
 104 601 l 1
 88 617 l 1
 30 622 l 1
 30 671 l 1
 313 671 l 1
 313 622 l 1
 253 617 l 1
 237 601 l 1
 237 60 l 1
 517 60 l 1xde
 517 601 l 1
 501 617 l 1
 441 622 l 1
 441 671 l 1
 724 671 l 1
 724 622 l 1
 666 617 l 1
 650 601 l 1
 650 70 l 1
 666 54 l 1
 738 48 l 1
 738 -170 l 1
 668 -170 l 1
 636 -19 l 1
 616 0 l 1
 30 0 l 1xbe
EndSplineSet
EndChar

StartChar: afii10026
Encoding: 1048 1048 258
Width: 772
Flags: W
HStem: 0 49<30 88 253 313 459 519 684 742> 622 49<30 88 253 313 459 519 684 742>
VStem: 104 133<70 125 222 601> 535 133<70 467 565 601>
DStem2: 237 222 237 125 0.655852 0.75489<0 380.392>
LayerCount: 2
Back
SplineSet
612 556 m 1
 199 81 l 1
 151 123 l 1
 564 598 l 1
 612 556 l 1
535 601 m 1
 519 617 l 1
 459 622 l 1
 459 671 l 1
 742 671 l 1
 742 622 l 1
 684 617 l 1
 668 601 l 1
 668 70 l 1
 684 54 l 1
 742 49 l 1
 742 0 l 1
 459 0 l 1
 459 49 l 1
 519 54 l 1
 535 70 l 1
 535 601 l 1
30 0 m 1
 30 49 l 1
 88 54 l 1
 104 70 l 1
 104 601 l 1
 88 617 l 1
 30 622 l 1
 30 671 l 1
 313 671 l 1
 313 622 l 1
 253 617 l 1
 237 601 l 1
 237 70 l 1
 253 54 l 1
 313 49 l 1
 313 0 l 1
 30 0 l 1
EndSplineSet
Fore
SplineSet
30 0 m 1
 30 49 l 1
 88 54 l 1
 104 70 l 1
 104 601 l 1
 88 617 l 1
 30 622 l 1
 30 671 l 1
 313 671 l 1
 313 622 l 1
 253 617 l 1
 237 601 l 1
 237 222 l 1
 535 565 l 1
 535 601 l 1
 519 617 l 1
 459 622 l 1
 459 671 l 1
 742 671 l 1
 742 622 l 1
 684 617 l 1
 668 601 l 1
 668 70 l 1
 684 54 l 1
 742 49 l 1
 742 0 l 1
 459 0 l 1
 459 49 l 1
 519 54 l 1
 535 70 l 1
 535 467 l 1
 237 125 l 1
 237 70 l 1
 253 54 l 1
 313 49 l 1
 313 0 l 1
 30 0 l 1
EndSplineSet
EndChar

StartChar: afii10020
Encoding: 1043 1043 259
Width: 540
Flags: W
HStem: 0 49<30 90 255 325> 490 21G<451.909 522> 613 58<238 424> 622 49<26 90>
VStem: 106 132<70 603> 455 67<490 535.294>
LayerCount: 2
Back
SplineSet
30 0 m 5
 30 49 l 5
 90 54 l 5
 106 70 l 5
 106 603 l 5
 90 617 l 5
 26 622 l 5
 26 671 l 5
 528 671 l 5
 528 503 l 5
 459 503 l 5
 444 600 l 5
 431 613 l 5
 238 613 l 5
 238 364 l 5
 372 364 l 5
 386 377 l 5
 396 450 l 5
 455 450 l 5
 455 217 l 5
 396 217 l 5
 386 290 l 5
 372 303 l 5
 238 303 l 5
 238 70 l 5
 255 54 l 5
 325 49 l 5
 325 0 l 5
 30 0 l 5
EndSplineSet
Fore
SplineSet
26 622 m 1xdc
 26 671 l 1
 522 671 l 1xdc
 522 490 l 1
 455 490 l 1
 438 600 l 1
 424 613 l 1
 238 613 l 1xec
 238 70 l 1
 255 54 l 1
 325 49 l 1
 325 0 l 1
 30 0 l 1
 30 49 l 1
 90 54 l 1
 106 70 l 1
 106 603 l 1
 90 617 l 1
 26 622 l 1xdc
EndSplineSet
EndChar

StartChar: afii10046
Encoding: 1068 1068 260
Width: 605
Flags: W
HStem: 0 58<237.841 389.286> 0 49<29 88> 325 58<237 386.448> 622 49<30 88 253 318>
VStem: 104 133<70 323.957 380 601> 437 140<102.239 276.539>
LayerCount: 2
Back
SplineSet
30 0 m 5
 30 49 l 5
 88 54 l 5
 104 70 l 5
 104 601 l 5
 88 617 l 5
 30 622 l 5
 30 671 l 5
 313 671 l 5
 313 622 l 5
 253 617 l 5
 237 601 l 5
 237 382 l 5
 526 382 l 5
 526 601 l 5
 511 617 l 5
 451 622 l 5
 451 671 l 5
 733 671 l 5
 733 622 l 5
 675 617 l 5
 659 601 l 5
 659 70 l 5
 675 54 l 5
 733 49 l 5
 733 0 l 5
 451 0 l 5
 451 49 l 5
 511 54 l 5
 526 70 l 5
 526 322 l 5
 237 322 l 5
 237 70 l 5
 253 54 l 5
 313 49 l 5
 313 0 l 5
 30 0 l 5
29 671 m 1xf4
 329 671 l 2
 477 671 551 618 551 514 c 0x78
 551 436 503 382 408 357 c 1
 525 355 590 294 590 196 c 0
 590 70 502 0 338 0 c 2
 29 0 l 1
 29 49 l 1
 88 54 l 1
 104 70 l 1
 104 603 l 1
 88 617 l 1
 29 622 l 1
 29 671 l 1xf4
234 373 m 1xfc
 243 372 252 372 261 372 c 0
 365 372 413 412 413 502 c 0
 413 580 368 617 274 617 c 0
 261 617 248 616 234 615 c 1
 234 373 l 1xfc
234 57 m 1xf4
 251 56 267 55 282 55 c 0
 398 55 450 94 450 190 c 0
 450 275 400 317 300 317 c 0
 284 317 262 317 234 315 c 1
 234 57 l 1xf4
EndSplineSet
Fore
SplineSet
29 0 m 1x7c
 29 49 l 1x7c
 88 54 l 1
 104 70 l 1
 104 601 l 1
 88 617 l 1
 30 622 l 1
 30 671 l 1
 318 671 l 1
 318 622 l 1
 253 617 l 1
 237 601 l 1
 237 380 l 1
 264.5 382.5 285 383 301 383 c 0
 474 383 577 328 577 192 c 0
 577 49 468 0 317 0 c 2xbc
 29 0 l 1x7c
237 61 m 1
 255 59 269 58 285 58 c 0xbc
 400 58 437 97 437 192 c 0
 437 293 382 325 296 325 c 0
 281 325 263.5 325 237 322 c 1
 237 61 l 1
EndSplineSet
EndChar

StartChar: afii10018
Encoding: 1041 1041 261
Width: 632
Flags: MW
HStem: 0 58<237.846 394.513> 335 58<237 390.157> 613 58<237 442>
VStem: 104 133<70 332.59 388 601> 450 140<109.223 277.715> 475 64<494 531.1>
LayerCount: 2
Back
SplineSet
29 671 m 1xf4
 329 671 l 2
 477 671 551 618 551 514 c 0x78
 551 436 503 382 408 357 c 1
 525 355 590 294 590 196 c 0
 590 70 502 0 338 0 c 2
 29 0 l 1
 29 49 l 1
 88 54 l 1
 104 70 l 1
 104 603 l 1
 88 617 l 1
 29 622 l 1
 29 671 l 1xf4
234 373 m 1xfc
 243 372 252 372 261 372 c 0
 365 372 413 412 413 502 c 0
 413 580 368 617 274 617 c 0
 261 617 248 616 234 615 c 1
 234 373 l 1xfc
234 57 m 1xf4
 251 56 267 55 282 55 c 0
 398 55 450 94 450 190 c 0
 450 275 400 317 300 317 c 0
 284 317 262 317 234 315 c 1
 234 57 l 1xf4
EndSplineSet
Fore
SplineSet
28 622 m 1xf8
 28 671 l 1
 539 671 l 1
 539 494 l 1
 475 494 l 1xf4
 455 600 l 1
 442 613 l 1
 237 613 l 1
 237 388 l 1
 264 392 285 393 314 393 c 0
 483 393 590 334 590 197 c 0
 590 52 483 0 324 0 c 2
 29 0 l 1
 29 49 l 1
 88 54 l 1
 104 70 l 1
 104 601 l 1
 88 617 l 1
 28 622 l 1xf8
237 62 m 1
 255 60 276 58 292 58 c 0
 408 58 450 102 450 197 c 0xf8
 450 311 366 335 303 335 c 0
 284 335 266 334 237 330 c 1
 237 62 l 1
EndSplineSet
EndChar

StartChar: afii10045
Encoding: 1067 1067 262
Width: 922
Flags: HW
HStem: 0 49<30 88 609 669 834 892> 0 58<237.841 389.286> 325 58<237 386.448> 622 49<30 88 253 318 609 669 834 892>
VStem: 104 133<70 323.957 380 601> 437 140<102.239 276.539> 685 133<70 601>
LayerCount: 2
Fore
SplineSet
609 0 m 1xbe
 609 49 l 1
 669 54 l 1
 685 70 l 1
 685 601 l 1
 669 617 l 1
 609 622 l 1
 609 671 l 1
 892 671 l 1
 892 622 l 1
 834 617 l 1
 818 601 l 1
 818 70 l 1
 834 54 l 1
 892 49 l 1
 892 0 l 1
 609 0 l 1xbe
EndSplineSet
Refer: 260 1068 N 1 0 0 1 0 0 2
EndChar

StartChar: afii10048
Encoding: 1070 1070 263
Width: 1052
Flags: HW
HStem: -16 61<622.5 725> 0 49<30 88 253 313> 322 60<237 386> 622 49<30 88 253 313> 622 64<629.5 719 629.5 732.5>
VStem: 104 133<70 322 382 601> 339 149<245 393.5> 865 150<280 389.5 280 422.5>
LayerCount: 2
Fore
SplineSet
30 0 m 1x77
 30 49 l 1
 88 54 l 1
 104 70 l 1
 104 601 l 1
 88 617 l 1
 30 622 l 1
 30 671 l 1
 313 671 l 1
 313 622 l 1
 253 617 l 1
 237 601 l 1
 237 382 l 1
 386 382 l 1
 386 322 l 1
 237 322 l 1
 237 70 l 1
 253 54 l 1
 313 49 l 1
 313 0 l 1
 30 0 l 1x77
EndSplineSet
Refer: 47 79 N 1 0 0 1 298 0 2
EndChar

StartChar: afii10047
Encoding: 1069 1069 264
Width: 648
Flags: HW
HStem: -12 63<141.332 329.072> 288 87<294.385 399.666> 324 87<171.272 274.994> 487 21G<37 112.656> 618 65<138.85 332.727>
VStem: 37 70<155.227 188 487 521.263> 448 147<204.422 358>
LayerCount: 2
Back
SplineSet
37 24 m 1
 37 196 l 1
 109 196 l 1
 134 75 l 1
 149 60 l 1
 173 54 193 51 210 51 c 0
 359 51 450 157 450 336 c 0
 450 513 360 618 223 618 c 0
 197 618 171 613 144 603 c 1
 130 586 l 1
 111 479 l 1
 37 479 l 1
 37 646 l 1
 104 670 172 683 241 683 c 0
 345 683 430 652 493 591 c 0
 561 526 597 437 597 335 c 0
 597 207 535 95 431 33 c 0
 382 4 319 -12 247 -12 c 0
 174 -12 104 0 37 24 c 1
EndSplineSet
Fore
SplineSet
37 34 m 1x9e
 37 188 l 1
 107 188 l 1
 129 85 l 1
 141 68 l 1
 163 58 197 51 223 51 c 0
 403 51 448 183 448 345 c 1
 450 358 l 1
 441 375 460 618 236 618 c 0
 205 618 165 610 138 597 c 1
 126 580 l 1
 109 487 l 1
 37 487 l 1
 37 640 l 1
 106 669 176 683 251 683 c 0
 489 683 595 526 595 335 c 0
 595 154 493 -12 257 -12 c 0
 177 -12 100 3 37 34 c 1x9e
112 341 m 1
 153 384 200 411 234 411 c 0xbe
 281 411 327 375 372 375 c 0
 402 375 442 377 446 434 c 1
 456 364 l 1
 409 309 378 288 333 288 c 0xde
 291 288 239 324 204 324 c 0xbe
 183 324 172 323 141 301 c 1
 112 341 l 1
EndSplineSet
EndChar

StartChar: afii10042
Encoding: 1064 1064 265
Width: 1039
Flags: W
HStem: 0 60<237 453 586 802> 0 49<30 88 951 1009> 622 49<30 88 252 306 384 438 601 655 733 787 951 1009>
VStem: 104 133<70 601> 453 133<60 601> 802 133<70 601>
CounterMasks: 1 1c
LayerCount: 2
Fore
SplineSet
30 0 m 1x7c
 30 49 l 1x7c
 88 54 l 1
 104 70 l 1
 104 601 l 1
 88 617 l 1
 30 622 l 1
 30 671 l 1
 306 671 l 1
 306 622 l 1
 252 617 l 1
 237 601 l 1
 237 60 l 1
 453 60 l 1
 453 601 l 1
 438 617 l 1
 384 622 l 1
 384 671 l 1
 655 671 l 1
 655 622 l 1
 601 617 l 1
 586 601 l 1
 586 60 l 1
 802 60 l 1xbc
 802 601 l 1
 787 617 l 1
 733 622 l 1
 733 671 l 1
 1009 671 l 1
 1009 622 l 1
 951 617 l 1
 935 601 l 1
 935 70 l 1
 951 54 l 1
 1009 49 l 1
 1009 0 l 1
 30 0 l 1x7c
EndSplineSet
EndChar

StartChar: afii10043
Encoding: 1065 1065 266
Width: 1051
Flags: HW
HStem: -170 21G<950.762 1025> 0 49<30 88 951 1009> 0 60<237 453 586 802> 622 49<30 88 252 306 384 438 601 655 733 787 951 1009>
VStem: 104 133<70 601> 453 133<60 601> 802 133<70 601> 955 70<-170 -136.969>
LayerCount: 2
Fore
SplineSet
903 0 m 1
 951 54 l 1xbf
 1025 48 l 1
 1025 -170 l 1
 955 -170 l 1
 923 -19 l 1
 903 0 l 1
EndSplineSet
Refer: 265 1064 N 1 0 0 1 0 0 2
EndChar

StartChar: afii10038
Encoding: 1060 1060 267
Width: 823
Flags: W
HStem: -4 49<263 328 497 562> 111 58<244.635 345 480 580.365> 517 58<244.635 345 480 580.365> 631 49<263 328 497 562>
VStem: 36 138<240.604 445.396> 345 135<66 610> 651 138<240.604 445.396>
CounterMasks: 1 0e
LayerCount: 2
Fore
SplineSet
36 343 m 0
 36 473 105 575 345 575 c 9
 345 517 l 17
 220 517 174 453 174 343 c 0
 174 233 220 169 345 169 c 9
 345 111 l 17
 105 111 36 213 36 343 c 0
263 -4 m 1
 263 45 l 1
 328 50 l 1
 345 66 l 1
 345 610 l 1
 328 626 l 1
 263 631 l 1
 263 680 l 1
 562 680 l 1
 562 631 l 1
 497 626 l 1
 480 610 l 1
 480 66 l 1
 497 50 l 1
 562 45 l 1
 562 -4 l 1
 263 -4 l 1
480 111 m 9
 480 169 l 17
 605 169 651 233 651 343 c 0
 651 453 605 517 480 517 c 9
 480 575 l 17
 720 575 789 473 789 343 c 0
 789 213 720 111 480 111 c 9
EndSplineSet
EndChar

StartChar: afii10041
Encoding: 1063 1063 268
Width: 715
Flags: W
HStem: 0 49<397 462 627 685> 251 84<253.171 399.594> 622 49<25 83 248 305 405 462 627 685>
VStem: 99 133<359.257 601> 478 133<70 315 374.523 601>
LayerCount: 2
Fore
SplineSet
25 622 m 1
 25 671 l 1
 305 671 l 1
 305 622 l 1
 248 617 l 1
 232 601 l 1
 232 431 l 2
 232 342 275 335 323 335 c 0
 373 335 431 360 478 385 c 1
 478 601 l 1
 462 617 l 1
 405 622 l 1
 405 671 l 1
 685 671 l 1
 685 622 l 1
 627 617 l 1
 611 601 l 1
 611 70 l 1
 627 54 l 1
 685 49 l 1
 685 0 l 1
 397 0 l 1
 397 49 l 1
 462 54 l 1
 478 70 l 1
 478 315 l 1
 422 279 370 251 276 251 c 0
 156 251 99 302 99 469 c 2
 99 601 l 1
 83 617 l 1
 25 622 l 1
EndSplineSet
EndChar

StartChar: afii10079
Encoding: 1085 1085 269
Width: 624
Flags: W
HStem: 0 45<31 82 234 277 347 390 542 593> 229 56<133 428> 441 45<31 82 234 277 347 390 542 593>
VStem: 96 124<64 229 285 422> 404 124<64 229 285 422>
LayerCount: 2
Fore
SplineSet
31 0 m 1
 31 45 l 1
 82 49 l 1
 96 64 l 1
 96 422 l 1
 82 437 l 1
 31 441 l 1
 31 486 l 1
 277 486 l 1
 277 441 l 1
 234 437 l 1
 220 422 l 1
 220 64 l 1
 234 49 l 1
 277 45 l 1
 277 0 l 1
 31 0 l 1
129 229 m 1
 133 285 l 1
 428 285 l 1
 455 229 l 1
 129 229 l 1
347 0 m 1
 347 45 l 1
 390 49 l 1
 404 64 l 1
 404 422 l 1
 390 437 l 1
 347 441 l 1
 347 486 l 1
 593 486 l 1
 593 441 l 1
 542 437 l 1
 528 422 l 1
 528 64 l 1
 542 49 l 1
 593 45 l 1
 593 0 l 1
 347 0 l 1
EndSplineSet
EndChar

StartChar: afii10049
Encoding: 1071 1071 270
Width: 703
Flags: W
HStem: -10 59<15.6788 112.323> 0 49<14 97.8288 390 451 615 673> 287 57<351.259 467> 614 57<299.646 467> 622 49<615 673>
VStem: 105 138<409.882 561.408> 467 132<70 286 345 603>
LayerCount: 2
Back
SplineSet
692 671 m 1
 692 622 l 1
 633 617 l 1
 617 603 l 1
 617 70 l 1
 633 54 l 1
 692 49 l 1
 692 0 l 1
 410 0 l 1
 410 49 l 1
 471 54 l 1
 487 70 l 1
 487 295 l 1
 481 295 475 295 470 295 c 0
 369 295 343 252 312 157 c 0
 296 109 287 64 235 24 c 0
 211 5 174 -7 131 -7 c 0
 100 -7 66 -4 31 1 c 1
 31 49 l 1
 36 49 40 49 44 49 c 0
 111 49 141 64 162 119 c 0
 181 169 189 223 220 267 c 0
 243 299 277 318 325 329 c 1
 212 350 153 408 153 500 c 0
 153 611 233 671 388 671 c 2
 692 671 l 1
487 614 m 1
 441 614 l 2
 344 614 293 568 293 486 c 0
 293 394 344 352 451 352 c 0
 462 352 474 352 487 353 c 1
 487 614 l 1
EndSplineSet
Fore
SplineSet
14 1 m 1xa6
 14 49 l 1x66
 24 49 l 2
 126 49 138 90 157 168 c 0
 170 222 196 294 284 321 c 1
 172 347 105 393 105 489 c 0
 105 605 184 671 342 671 c 2xb6
 673 671 l 1
 673 622 l 1
 615 617 l 1
 599 603 l 1
 599 70 l 1
 615 54 l 1
 673 49 l 1
 673 0 l 1
 390 0 l 1
 390 49 l 1x6e
 451 54 l 1
 467 70 l 1
 467 286 l 1
 460 287 426 287 412 287 c 0
 326 287 302 193 288 138 c 0
 276 91 247 -10 99 -10 c 0
 74 -10 50 -6 14 1 c 1xa6
243 487 m 0
 243 402 307 344 408 344 c 0
 424 344 454 344 467 345 c 1
 467 614 l 1
 395 614 l 2x36
 298 614 243 569 243 487 c 0
EndSplineSet
EndChar

StartChar: afii10044
Encoding: 1066 1066 271
Width: 764
Flags: HMW
HStem: 0 58<396.841 548.286> 325 58<396 545.448> 613 58<120 356.1>
VStem: 22 66<486 530.333> 263 133<70 323.957 380 605> 596 140<102.239 276.539>
LayerCount: 2
Fore
SplineSet
22 486 m 1
 22 671 l 1
 475 671 l 1
 475 622 l 1
 411 617 l 1
 396 603 l 1
 396 380 l 1
 424 382 444 383 460 383 c 0
 633 383 736 328 736 192 c 0
 736 49 627 0 476 0 c 2
 187 0 l 1
 187 49 l 1
 247 54 l 1
 263 70 l 1
 263 613 l 1
 120 613 l 1
 106 600 l 1
 88 486 l 1
 22 486 l 1
396 61 m 1
 414 59 428 58 444 58 c 0
 559 58 596 97 596 192 c 0
 596 293 541 325 455 325 c 0
 440 325 422 325 396 322 c 1
 396 61 l 1
EndSplineSet
EndChar

StartChar: afii10081
Encoding: 1087 1087 272
Width: 622
Flags: W
HStem: 0 45<31 82 234 277 345 388 540 591> 430 56<220 402> 441 45<31 82 540 591>
VStem: 96 124<64 422> 402 124<64 422>
LayerCount: 2
Fore
SplineSet
31 0 m 1xd8
 31 45 l 1
 82 49 l 1
 96 64 l 1
 96 422 l 1
 82 437 l 1
 31 441 l 1
 31 486 l 1
 591 486 l 1
 591 441 l 1xb8
 540 437 l 1
 526 422 l 1
 526 64 l 1
 540 49 l 1
 591 45 l 1
 591 0 l 1
 345 0 l 1
 345 45 l 1
 388 49 l 1
 402 64 l 1
 402 430 l 1
 220 430 l 1
 220 64 l 1
 234 49 l 1
 277 45 l 1
 277 0 l 1
 31 0 l 1xd8
EndSplineSet
EndChar

StartChar: afii10096
Encoding: 1102 1102 273
Width: 835
Flags: W
HStem: -8 53<514 586 514 625> 0 45<31 82 234 277> 225 56<133 396> 441 45<31 82 234 277> 446 53<514.5 585.5>
VStem: 96 124<64 225 281 422> 295 139<181.5 311.5 181.5 320> 667 138<179 309.5>
LayerCount: 2
Fore
SplineSet
31 0 m 1x77
 31 45 l 1
 82 49 l 1
 96 64 l 1
 96 422 l 1
 82 437 l 1
 31 441 l 1
 31 486 l 1
 277 486 l 1
 277 441 l 1
 234 437 l 1
 220 422 l 1
 220 64 l 1
 234 49 l 1
 277 45 l 1
 277 0 l 1
 31 0 l 1x77
129 225 m 1
 133 281 l 1
 396 281 l 1
 423 225 l 1
 129 225 l 1
EndSplineSet
Refer: 79 111 N 1 0 0 1 258 0 2
EndChar

StartChar: afii10029
Encoding: 1051 1051 274
Width: 742
Flags: W
HStem: -16 21G<83 152.5> 0 49<488 550 724.417 760> 622 49<282 349>
DStem2: 246 246 325 262 0.311432 0.950268<-174.476 312.087> 493 671 409 521 0.319953 -0.947433<115.239 592.112>
LayerCount: 2
Back
SplineSet
319 246 m 2
 436 603 l 1
246 246 m 2
 363 603 l 1
358 671 m 1
 564 61 l 1
493 671 m 1
 699 61 l 1
EndSplineSet
Fore
SplineSet
18 56 m 0xa0
 18 88 26 118 63 138 c 1
 146 64 l 1
 178 89 201.08 108.937 246 246 c 2
 363 603 l 1
 349 617 l 1
 282 622 l 1
 282 671 l 1
 493 671 l 1
 699 61 l 1
 760 49 l 1
 760 0 l 1
 488 0 l 1
 488 49 l 1x60
 550 54 l 1
 561 69 l 1
 409 521 l 1
 325 262 l 2
 243.221 9.84732 195 -16 110 -16 c 0
 56 -16 18 12 18 56 c 0xa0
EndSplineSet
EndChar

StartChar: afii10021
Encoding: 1044 1044 275
Width: 700
Flags: W
HStem: -170 21G<10 84.2384 615.762 690> 0 60<165 482> 622 49<198 267>
VStem: 10 70<-170 -136.969> 620 70<-170 -136.969>
DStem2: 91 60 165 60 0.330273 0.943885<24.4402 513.076> 411 671 327 521 0.320874 -0.947122<115.115 601.474>
LayerCount: 2
Back
SplineSet
-63 56 m 0xa0
 -63 88 -55 118 -18 138 c 1
 65 64 l 1
 97 89 120.08 108.937 165 246 c 2
 282 603 l 1
 268 617 l 1
 201 622 l 1
 201 671 l 1
 412 671 l 1
 618 61 l 1
 679 49 l 1
 679 0 l 1
 407 0 l 1
 407 49 l 1x60
 469 54 l 1
 480 69 l 1
 328 521 l 1
 244 262 l 2
 162.221 9.84766 114 -16 29 -16 c 0
 -25 -16 -63 12 -63 56 c 0xa0
EndSplineSet
Fore
SplineSet
10 48 m 1
 91 60 l 9
 281 603 l 1
 267 617 l 1
 198 622 l 1
 198 671 l 1
 411 671 l 1
 618 60 l 1
 690 48 l 1
 690 -170 l 1
 620 -170 l 1
 588 -19 l 1
 568 0 l 1
 132 0 l 1
 112 -19 l 1
 80 -170 l 1
 10 -170 l 1
 10 48 l 1
165 60 m 17
 482 60 l 1
 327 521 l 1
 165 60 l 17
EndSplineSet
EndChar

StartChar: afii10090
Encoding: 1096 1096 276
Width: 891
Flags: W
HStem: 0 56<219 384 507 672> 0 45<31 82 809 860> 441 45<31 82 233 274 329 370 521 562 617 658 809 860>
VStem: 96 123<64 422> 384 123<56 422> 672 123<64 422>
CounterMasks: 1 1c
LayerCount: 2
Fore
SplineSet
31 0 m 1x7c
 31 45 l 1x7c
 82 49 l 1
 96 64 l 1
 96 422 l 1
 82 437 l 1
 31 441 l 1
 31 486 l 1
 274 486 l 1
 274 441 l 1
 233 437 l 1
 219 422 l 1
 219 56 l 1
 384 56 l 1
 384 422 l 1
 370 437 l 1
 329 441 l 1
 329 486 l 1
 562 486 l 1
 562 441 l 1
 521 437 l 1
 507 422 l 1
 507 56 l 1
 672 56 l 1xbc
 672 422 l 1
 658 437 l 1
 617 441 l 1
 617 486 l 1
 860 486 l 1
 860 441 l 1
 809 437 l 1
 795 422 l 1
 795 64 l 1
 809 49 l 1
 860 45 l 1
 860 0 l 1
 31 0 l 1x7c
EndSplineSet
EndChar

StartChar: afii10088
Encoding: 1094 1094 277
Width: 626
Flags: W
HStem: -146 21G<529.188 599> 0 56<220 402> 0 45<31 82 540 591> 441 45<31 82 234 277 345 388 540 591>
VStem: 96 124<64 422> 402 124<64 422> 532 67<-146 -96.2222>
LayerCount: 2
Fore
SplineSet
31 0 m 1xbe
 31 45 l 1xbe
 82 49 l 1
 96 64 l 1
 96 422 l 1
 82 437 l 1
 31 441 l 1
 31 486 l 1
 277 486 l 1
 277 441 l 1
 234 437 l 1
 220 422 l 1
 220 56 l 1
 402 56 l 1xde
 402 422 l 1
 388 437 l 1
 345 441 l 1
 345 486 l 1
 591 486 l 1
 591 441 l 1
 540 437 l 1
 526 422 l 1
 526 64 l 1
 540 49 l 1
 591 45 l 1
 591 0 l 1
 31 0 l 1xbe
497 0 m 13
 540 49 l 29
 599 45 l 5
 599 -146 l 5
 532 -146 l 5
 514 -18 l 5
 497 0 l 13
EndSplineSet
EndChar

StartChar: afii10091
Encoding: 1097 1097 278
Width: 897
Flags: HW
HStem: -146 21G<800.188 870> 0 45<31 82 809 860> 0 56<219 384 507 672> 441 45<31 82 233 274 329 370 521 562 617 658 809 860>
VStem: 96 123<64 422> 384 123<56 422> 672 123<64 422> 803 67<-146 -96.2222>
LayerCount: 2
Fore
SplineSet
768 0 m 9xbf
 809 49 l 25
 870 45 l 1xdf
 870 -146 l 1
 803 -146 l 1
 785 -18 l 1
 768 0 l 9xbf
EndSplineSet
Refer: 276 1096 N 1 0 0 1 0 0 2
EndChar

StartChar: afii10086
Encoding: 1092 1092 279
Width: 709
Flags: W
HStem: -219 46<216 279 432 495> -6 53<233.2 294 417 477.8> 442 53<233.2 294 417 477.8> 643 39<221 243.043>
VStem: 32 135<135.304 354.025> 294 123<-155 643> 544 135<135.304 354.025>
CounterMasks: 1 0e
LayerCount: 2
Fore
SplineSet
32 245 m 0
 32 402 139 489 294 495 c 1
 294 442 l 1
 204 431 167 364 167 245 c 0
 167 125 204 58 294 47 c 1
 294 -6 l 1
 139 0 32 87 32 245 c 0
216 -173 m 1
 279 -169 l 1
 294 -155 l 1
 294 643 l 1
 221 643 l 1
 221 682 l 1
 369 729 l 1
 417 729 l 1
 417 -155 l 1
 432 -169 l 1
 495 -173 l 1
 495 -219 l 1
 216 -219 l 1
 216 -173 l 1
417 -6 m 1
 417 47 l 1
 507 58 544 125 544 245 c 0
 544 364 507 431 417 442 c 1
 417 495 l 1
 572 489 679 402 679 245 c 0
 679 87 572 0 417 -6 c 1
EndSplineSet
EndChar

StartChar: afii10028
Encoding: 1050 1050 280
Width: 709
Flags: W
HStem: -11 60<604.124 703.34> 0 49<31 89 254 314 685.332 704> 322 60<238 325.555> 596 87<507.417 602> 622 49<31 89 254 314>
VStem: 105 133<70 322 382 601> 591 74<538 591.007>
LayerCount: 2
Fore
SplineSet
31 0 m 1x66
 31 49 l 1
 89 54 l 1
 105 70 l 1
 105 601 l 1
 89 617 l 1
 31 622 l 1
 31 671 l 1
 314 671 l 1
 314 622 l 1x6e
 254 617 l 1
 238 601 l 1
 238 382 l 1
 258 382 l 2
 334 382 380 450 405 522 c 0
 439 621 481 683 588 683 c 0
 616 683 653 668 665 656 c 1
 665 538 l 1
 591 538 l 1
 584 580 574 596 552 596 c 0
 526 596 504 592 475 508 c 0
 450 436 414 380 371 360 c 1
 444 338 503 301 548 177 c 0
 588 65 606 49 685 49 c 0
 692 49 704 50 704 50 c 1
 704 1 l 1
 676 -7 649 -11 619 -11 c 0xb6
 514 -11 456 36 416 140 c 0
 380 233 345 322 265 322 c 2
 238 322 l 1
 238 70 l 1
 254 54 l 1
 314 49 l 1
 314 0 l 1
 31 0 l 1x66
EndSplineSet
EndChar

StartChar: afii10025
Encoding: 1047 1047 281
Width: 580
Flags: W
HStem: -12 63<140.357 337.704> 327 56<182 330.973> 489 21G<37 112.678> 618 65<141.109 325.105>
VStem: 37 70<155.667 190 489 522.833> 380 138<430.011 570.663> 402 140<109.766 262.405>
LayerCount: 2
Back
SplineSet
37 28 m 1xfa
 37 184 l 1
 107 184 l 1
 129 79 l 1
 143 64 l 1
 167 58 201 51 218 51 c 0
 339 51 398 92 398 189 c 0xfa
 398 260 346 327 240 327 c 1
 178 324 l 1
 178 386 l 1
 240 383 l 1
 355 386 376 449 376 510 c 0
 376 582 310 618 229 618 c 0
 194 618 165 609 138 599 c 1
 126 582 l 1
 109 491 l 1
 37 491 l 1
 37 642 l 1
 104 666 177 683 249 683 c 0
 409 683 514 610 514 507 c 0xfc
 514 431 478 384 385 358 c 1
 507 334 538 263 538 182 c 0
 538 53 435 -12 253 -12 c 0
 177 -12 104 4 37 28 c 1xfa
EndSplineSet
Fore
SplineSet
37 38 m 1xfa
 37 190 l 1
 107 190 l 1
 128 87 l 1
 140 70 l 1
 158 56 198 51 222 51 c 0
 343 51 402 92 402 189 c 0xfa
 402 260 350 327 244 327 c 1
 182 324 l 1
 182 386 l 1
 244 383 l 1
 359 386 380 449 380 510 c 0
 380 582 314 618 233 618 c 0
 196 618 162 608 136 594 c 1
 125 576 l 1
 109 489 l 1
 37 489 l 1
 37 636 l 1
 105 665 175 683 253 683 c 0
 413 683 518 610 518 507 c 0xfc
 518 431 482 384 389 358 c 1
 511 334 542 263 542 182 c 0
 542 53 439 -12 257 -12 c 0
 177 -12 107 0 37 38 c 1xfa
EndSplineSet
EndChar

StartChar: afii10037
Encoding: 1059 1059 282
Width: 662
Flags: W
HStem: -16 21G<167 255.5> 622 49<4 42.5 226 275 444 502 625.538 660>
DStem2: 215 602 70 610 0.442049 -0.896991<0 373.443> 378 266 443 234 0.377767 0.925901<0 362.101>
LayerCount: 2
Back
SplineSet
506 619 m 1
 309 130 l 1
432 130 m 1
 194 619 l 1
586 619 m 1
 389 130 l 1
 291 130 l 1
 53 619 l 1
EndSplineSet
Fore
SplineSet
4 622 m 1
 4 671 l 1
 275 671 l 1
 275 622 l 1
 226 617 l 1
 215 602 l 1
 378 266 l 1
 513 602 l 1
 502 617 l 1
 444 622 l 1
 444 671 l 1
 660 671 l 1
 660 622 l 1
 596 609 l 1
 443 234 l 2
 368 49 319 -16 192 -16 c 0
 142 -16 94 17 94 60 c 0
 94 99 112 135 154 146 c 1
 229 57 l 1
 267 63 285 76 310 123 c 1
 70 610 l 1
 4 622 l 1
EndSplineSet
EndChar

StartChar: afii10068
Encoding: 1075 1075 283
Width: 476
Flags: W
HStem: 0 46<31 81 234 301> 432 54<218 363> 441 45<26 81>
VStem: 95 123<67 422> 395 63<325 370.5>
LayerCount: 2
Fore
SplineSet
26 441 m 1xb8
 26 486 l 1
 458 486 l 1xb8
 458 325 l 1
 395 325 l 1
 381 416 l 1
 363 432 l 1
 218 432 l 1xd8
 218 66 l 1
 234 51 l 1
 301 46 l 1
 301 0 l 1
 31 0 l 1
 31 46 l 1
 81 51 l 1
 95 67 l 1
 95 422 l 1
 81 437 l 1
 26 441 l 1xb8
EndSplineSet
EndChar

StartChar: afii10084
Encoding: 1090 1090 284
Width: 505
Flags: W
HStem: 0 46<108 175 330 397> 318 168<18 81 424 487> 432 54<117 191 314 388>
VStem: 18 63<318 358.353> 191 123<66 432> 424 63<318 358.353>
CounterMasks: 1 1c
LayerCount: 2
Fore
SplineSet
18 318 m 5xdc
 18 486 l 5
 487 486 l 5
 487 318 l 5
 424 318 l 5xdc
 407 416 l 5
 388 432 l 5
 314 432 l 5
 314 66 l 1
 330 51 l 1
 397 46 l 1
 397 0 l 1
 108 0 l 1
 108 46 l 1
 175 51 l 1
 191 66 l 1
 191 432 l 5
 117 432 l 5xbc
 98 416 l 5
 81 318 l 5
 18 318 l 5xdc
EndSplineSet
EndChar

StartChar: afii10066
Encoding: 1073 1073 285
Width: 577
Flags: W
HStem: -8 53<233.729 352.406> 438 53<234.736 350.462>
VStem: 37 139<150.173 348.467> 37 61<350 432.278> 409 138<132.937 354.301> 460 46<713 759>
LayerCount: 2
Back
SplineSet
296 499 m 4
 449 499 547 400 547 241 c 4
 547 93 446 -8 288 -8 c 4
 138 -8 37 92 37 243 c 4
 37 397 139 499 296 499 c 4
292 446 m 4
 221 446 176 376 176 247 c 4
 176 116 221 45 291 45 c 4
 365 45 409 114 409 244 c 4
 409 375 363 446 292 446 c 4
EndSplineSet
Fore
SplineSet
37 282 m 0xe8
 37 378 59 472 103 532 c 0
 167 619 240 658 304 682 c 0
 388 714 448 720 460 759 c 1
 506 759 l 1
 474 641 456 631 349 594 c 0
 254 561 208 538 159 489 c 0
 115 445 98 384 98 350 c 1xd4
 101 350 l 1
 127 430 216 491 307 491 c 0
 460 491 547 392 547 237 c 0
 547 94 446 -8 288 -8 c 0
 138 -8 37 95 37 282 c 0xe8
176 240 m 0xe8
 176 118 221 45 291 45 c 0
 365 45 409 112 409 237 c 0
 409 370 360 438 295 438 c 0
 224 438 176 371 176 240 c 0xe8
EndSplineSet
EndChar

StartChar: afii10089
Encoding: 1095 1095 286
Width: 604
Flags: W
HStem: 0 45<327 370 522 573> 182 72<158 328.69> 441 45<23 74 224 265 329 370 522 573>
VStem: 88 122<264.639 422> 384 124<64 226 269.101 422>
LayerCount: 2
Fore
SplineSet
23 441 m 1
 23 486 l 1
 265 486 l 1
 265 441 l 1
 224 437 l 1
 210 422 l 1
 210 338 l 2
 210 260 236 254 275 254 c 0
 310 254 348 260 384 278 c 1
 384 422 l 1
 370 437 l 1
 329 441 l 1
 329 486 l 1
 573 486 l 1
 573 441 l 1
 522 437 l 1
 508 422 l 1
 508 64 l 1
 522 49 l 1
 573 45 l 1
 573 0 l 1
 327 0 l 1
 327 45 l 1
 370 49 l 1
 384 64 l 1
 384 226 l 1
 344 204 264 182 206 182 c 0
 110 182 88 256 88 326 c 2
 88 422 l 1
 74 437 l 1
 23 441 l 1
EndSplineSet
EndChar

StartChar: afii10077
Encoding: 1083 1083 287
Width: 602
Flags: W
HStem: -9 21G<69 139> 0 46<352 412 552 610> 442 45<206 270>
DStem2: 205 208 278 221 0.346315 0.938118<-142.304 177.931> 402 487 328 353 0.325991 -0.945373<102.557 406.739>
LayerCount: 2
Back
SplineSet
266 183 m 2
 375 481 l 1
281 481 m 1
 432 45 l 1
198 183 m 2
 307 481 l 1
 406 481 l 1
 557 45 l 1
614 0 m 1
 360 0 l 1
 360 46 l 1
 412 51 l 1
 423 64 l 1
 319 356 l 1
 205 65 l 1
 213 51 l 1
 264 46 l 1
 264 0 l 1
 74 0 l 1
 74 46 l 1
 132 53 l 1
 304 487 l 1
 394 487 l 1
 554 52 l 1
 614 46 l 1
 614 0 l 1
EndSplineSet
Fore
SplineSet
14 69 m 0xa0
 14 90 28 125 64 134 c 1
 126 74 l 1
 157 95 166 102 205 208 c 2
 284 422 l 1
 270 438 l 1
 206 442 l 1
 206 487 l 1
 402 487 l 1
 552 52 l 1
 610 46 l 1
 610 0 l 1
 352 0 l 1
 352 46 l 1x60
 412 51 l 1
 423 64 l 1
 328 353 l 1
 326 353 l 1
 278 221 l 2
 208 29 181 -9 97 -9 c 0
 41 -9 14 33 14 69 c 0xa0
EndSplineSet
EndChar

StartChar: afii10069
Encoding: 1076 1076 288
Width: 562
Flags: MW
HStem: -146 20 0 56<146 359> 442 45<137 203>
VStem: 8 67<-146 -96.2222> 487 67<-146 -96.2222>
DStem2: 77 52 146 56 0.353892 0.935286<28.1597 345.93> 335 487 260 353 0.325991 -0.945373<102.231 415.28>
LayerCount: 2
Back
SplineSet
-53 69 m 0xa0
 -53 90 -39 125 -3 134 c 1
 59 74 l 1
 90 95 99 102 138 208 c 2
 217 422 l 1
 203 438 l 1
 139 442 l 1
 139 487 l 1
 335 487 l 1
 485 52 l 1
 543 46 l 1
 543 0 l 1
 285 0 l 1
 285 46 l 1x60
 345 51 l 1
 356 64 l 1
 258 351 l 1
 211 221 l 2
 142 29 114 -9 30 -9 c 0
 -26 -9 -53 33 -53 69 c 0xa0
EndSplineSet
Fore
SplineSet
8 45 m 1
 77 52 l 1
 217 422 l 1
 203 438 l 1
 137 442 l 1
 137 487 l 1
 335 487 l 1
 485 52 l 1
 554 45 l 1
 554 -146 l 1
 487 -146 l 1
 469 -18 l 1
 452 0 l 1
 110 0 l 1
 93 -18 l 1
 75 -146 l 1
 8 -146 l 1
 8 45 l 1
146 56 m 1
 359 56 l 1
 260 353 l 1
 259 353 l 1
 146 56 l 1
EndSplineSet
EndChar

StartChar: afii10078
Encoding: 1084 1084 289
Width: 742
Flags: W
HStem: 0 45<31 82 172 213 467 508 660 711> 441 45<31 82 660 711>
VStem: 96 62<64 401> 522 124<64 405>
DStem2: 258 456 159 401 0.333804 -0.942643<18.7988 320.061> 365 154 374 0 0.341184 0.939997<0 289.164>
LayerCount: 2
Back
SplineSet
467 436 m 1
 308 0 l 1
420 0 m 1
 265 435 l 1
533 436 m 1
 374 0 l 1
 301 0 l 1
 146 435 l 1
EndSplineSet
Fore
SplineSet
31 0 m 1
 31 45 l 1
 82 49 l 1
 96 64 l 1
 96 422 l 1
 82 437 l 1
 31 441 l 1
 31 486 l 1
 258 486 l 1
 258 456 l 1
 364 154 l 1
 365 154 l 1
 474 456 l 9
 474 486 l 17
 711 486 l 1
 711 441 l 1
 660 437 l 1
 646 422 l 1
 646 64 l 1
 660 49 l 1
 711 45 l 1
 711 0 l 1
 467 0 l 1
 467 45 l 1
 508 49 l 1
 522 64 l 1
 522 405 l 1
 521 405 l 1
 374 0 l 1
 301 0 l 1
 159 401 l 1
 158 401 l 1
 158 64 l 1
 172 49 l 1
 213 45 l 1
 213 0 l 1
 31 0 l 1
EndSplineSet
EndChar

StartChar: afii10094
Encoding: 1100 1100 290
Width: 550
Flags: MW
HStem: 0 55<221.023 361.728> 236 56<221.142 364.515> 442 45<31 82 234 289>
VStem: 96 124<64 234.05 284 423> 389 136<83.2622 211.77>
LayerCount: 2
Back
SplineSet
133 285 m 1
 428 285 l 1
 455 229 l 1
 129 229 l 1
 133 285 l 1
593 0 m 1
 347 0 l 1
 347 45 l 1
 390 49 l 1
 404 64 l 1
 404 422 l 1
 390 437 l 1
 347 441 l 1
 347 486 l 1
 593 486 l 1
 593 441 l 1
 542 437 l 1
 528 422 l 1
 528 64 l 1
 542 49 l 1
 593 45 l 1
 593 0 l 1
31 0 m 1
 31 45 l 1
 82 49 l 1
 96 64 l 1
 96 422 l 1
 82 437 l 1
 31 441 l 1
 31 486 l 1
 277 486 l 1
 277 441 l 1
 234 437 l 1
 220 422 l 1
 220 64 l 1
 234 49 l 1
 277 45 l 1
 277 0 l 1
 31 0 l 1
EndSplineSet
Fore
SplineSet
31 0 m 1
 31 45 l 1
 82 49 l 1
 96 64 l 1
 96 423 l 1
 82 438 l 1
 31 442 l 1
 31 487 l 1
 289 487 l 1
 289 442 l 1
 234 438 l 1
 220 423 l 1
 220 284 l 1
 245 290 258 292 292 292 c 0
 415 292 525 264 525 146 c 0
 525 36 443 0 308 0 c 2
 31 0 l 1
220 63 m 1
 242 57 253 55 280 55 c 0
 358 55 389 86 389 146 c 0
 389 195 375 236 284 236 c 0
 262 236 244 236 220 230 c 1
 220 63 l 1
EndSplineSet
EndChar

StartChar: afii10095
Encoding: 1101 1101 291
Width: 490
Flags: HW
HStem: -8 72<97.7675 253.442> 49 67<30 97> 204 62<197.904 299.911> 232 62<106.299 210.616> 443 56<125.609 263.479>
VStem: 47 59<343 392.7> 328 132<146.826 351.68>
LayerCount: 2
Back
SplineSet
30 49 m 1x4e
 30 116 l 1x4e
 81 82 126 64 169 64 c 0
 270 64 328 133 328 261 c 0
 328 380 270 443 200 443 c 0
 183 443 157 441 128 430 c 1
 116 414 l 1
 106 343 l 1
 47 343 l 1
 47 468 l 1
 100 488 148 499 203 499 c 0
 353 499 460 396 460 238 c 0
 460 101 356 -8 214 -8 c 0x8e
 147 -8 91 10 30 49 c 1x4e
73 239 m 1
 98 271 130 294 162 294 c 0x1e
 204 294 233 266 260 266 c 0
 271 266 314 266 325 308 c 1
 336 286 l 1
 328 261 l 1
 309 224 274 204 246 204 c 0x2e
 205 204 176 232 145 232 c 0x1e
 133 232 113 231 95 213 c 1
 73 239 l 1
24 45 m 5
 24 116 l 5
 73 86 120 71 163 71 c 4
 256 71 317 142 317 262 c 4
 317 376 256 448 186 448 c 4
 179 448 171 447 161 445 c 5
 161 339 l 5
 143 326 124 320 102 320 c 4
 59 320 30 349 30 388 c 4
 30 449 92 497 195 497 c 4
 345 497 453 390 453 238 c 4
 453 93 358 -8 213 -8 c 4
 149 -8 88 10 24 45 c 5
EndSplineSet
Fore
SplineSet
73 239 m 1
 98 271 130 294 162 294 c 0
 204 294 233 266 260 266 c 0
 271 266 314 266 325 307 c 1
 312 396 260 443 200 443 c 0
 183 443 157 441 128 430 c 1
 116 414 l 1
 106 343 l 1
 47 343 l 1
 47 468 l 1
 100 488 148 499 203 499 c 0
 353 499 460 396 460 238 c 0
 460 101 356 -8 214 -8 c 0
 147 -8 91 10 30 49 c 1
 30 116 l 1
 81 82 126 64 169 64 c 0
 270 64 328 133 328 261 c 1
 309 224 274 204 246 204 c 0
 205 204 176 232 145 232 c 0
 133 232 113 231 95 213 c 1
 73 239 l 1
EndSplineSet
EndChar

StartChar: afii10067
Encoding: 1074 1074 292
Width: 570
Flags: HMW
HStem: 0 53<221.17 368.392> 232 52<221.669 356.889> 433 53<220.479 352.215>
VStem: 96 124<64 230.205 285.418 422> 376 128<307.434 410.598> 396 138<80.3995 206.462>
LayerCount: 2
Back
SplineSet
220 63 m 5xbc
 242 57 253 55 280 55 c 4
 358 55 389 86 389 146 c 4
 389 195 375 236 284 236 c 4
 262 236 244 236 220 230 c 5
 220 63 l 5xbc
31 0 m 5x7c
 31 45 l 5x7c
 82 49 l 5
 96 64 l 5
 96 423 l 5
 82 438 l 5
 31 442 l 5
 31 487 l 5
 289 487 l 5
 289 442 l 5
 234 438 l 5
 220 423 l 5
 220 284 l 5
 245 290 258 292 292 292 c 4
 415 292 525 270 525 146 c 4
 525 29 443 0 308 0 c 6xbc
 31 0 l 5x7c
EndSplineSet
Fore
SplineSet
31 0 m 1xf4
 31 45 l 1
 82 49 l 1
 96 64 l 1
 96 422 l 1
 82 437 l 1
 31 441 l 1
 31 486 l 1
 307 486 l 2
 435 486 504 443 504 368 c 0xf8
 504 316 454 273 395 265 c 1
 395 264 l 1
 464 261 534 215 534 136 c 0
 534 38 446 0 332 0 c 2
 31 0 l 1xf4
220 59 m 1
 245 53 267 53 294 53 c 0
 343 53 396 72 396 139 c 0xf4
 396 202 367 232 288 232 c 0
 266 232 256 232 220 228 c 1
 220 59 l 1
220 287 m 1
 246 285 260 284 276 284 c 0
 359 284 376 315 376 359 c 0xf8
 376 410 342 433 271 433 c 0
 254 433 230 430 220 426 c 1
 220 287 l 1
EndSplineSet
EndChar

StartChar: afii10073
Encoding: 1079 1079 293
Width: 482
Flags: MW
HStem: -9 55<122.388 273.472> 233 54<145 272.062> 444 55<121.948 274.537>
VStem: 41 59<111.308 149 349 395.2> 301 128<314.256 418.003> 308 138<77.8955 200.735>
LayerCount: 2
Back
SplineSet
41 21 m 1x7a
 41 146 l 1
 100 146 l 1x7a
 113 76 l 1
 123 65 l 1
 149 51 169 46 199 46 c 0
 252 46 308 68 308 137 c 0xba
 308 180 289 233 195 233 c 1
 140 231 l 1
 140 289 l 1
 194 287 l 1
 279 287 301 332 301 369 c 0
 301 411 265 444 203 444 c 0
 177 444 150 441 123 431 c 1
 110 420 l 1
 100 351 l 1
 41 351 l 1
 41 471 l 1
 95 490 169 499 219 499 c 0
 342 499 429 446 429 373 c 0xbc
 429 318 391 285 323 264 c 1
 390 254 446 208 446 135 c 0
 446 53 376 -9 225 -9 c 0xba
 163 -9 102 0 41 21 c 1x7a
EndSplineSet
Fore
SplineSet
41 27 m 1xf4
 41 149 l 1
 100 149 l 1
 113 79 l 1
 122 66 l 1
 148 52 169 46 199 46 c 0
 252 46 308 68 308 137 c 0xf4
 308 180 289 233 195 233 c 1
 145 231 l 1
 145 289 l 1
 194 287 l 1
 279 287 301 332 301 369 c 0
 301 411 265 444 203 444 c 0
 177 444 149 441 123 428 c 1
 110 415 l 1
 100 349 l 1
 41 349 l 1
 41 466 l 1
 95 489 169 499 219 499 c 0
 342 499 429 446 429 373 c 0xf8
 429 318 391 285 323 264 c 1
 390 254 446 208 446 135 c 0
 446 53 376 -9 225 -9 c 0
 163 -9 103 0 41 27 c 1xf4
EndSplineSet
EndChar

StartChar: afii10076
Encoding: 1082 1082 294
Width: 580
Flags: W
HStem: -7 55<506.533 575.758> 0 45<31 82 234 277 554.372 576> 229 54<220 280.225> 441 45<31 82 234 277> 476 20G<452 516.5>
VStem: 96 124<64 229 283 422>
LayerCount: 2
Back
SplineSet
220 229 m 1xa4
 220 283 l 1
 230 283 l 2
 270 283 313 328 337 382 c 0
 378 475 426 496 486 496 c 0
 555 496 568 443 568 420 c 0
 568 387 551 362 508 355 c 9
 448 431 l 17
 416 415 405 392 389 355 c 0
 374 321 354 284 316 268 c 1
 380 262 444 219 477 133 c 0
 501 71 515 48 559 48 c 0xac
 567 48 578 48 588 49 c 1
 588 0 l 1x64
 588 0 550 -7 528 -7 c 0
 482 -7 407 -3 368 86 c 0
 327 180 303 229 233 229 c 2
 220 229 l 1xa4
31 0 m 1x74
 31 45 l 1
 82 49 l 1
 96 64 l 1
 96 422 l 1
 82 437 l 1
 31 441 l 1
 31 486 l 1
 277 486 l 1
 277 441 l 1
 234 437 l 1
 220 422 l 1
 220 64 l 1
 234 49 l 1
 277 45 l 1
 277 0 l 1
 31 0 l 1x74
EndSplineSet
Fore
SplineSet
31 0 m 1x74
 31 45 l 1
 82 49 l 1
 96 64 l 1
 96 422 l 1
 82 437 l 1
 31 441 l 1
 31 486 l 1
 277 486 l 1
 277 441 l 1
 234 437 l 1
 220 422 l 1
 220 64 l 1
 234 49 l 1
 277 45 l 1
 277 0 l 1
 31 0 l 1x74
220 229 m 1
 220 283 l 1
 230 283 l 2
 270 283 313 328 337 382 c 0
 378 475 422 496 482 496 c 0
 551 496 564 443 564 420 c 0
 564 387 542 359 499 352 c 9
 452 435 l 17
 420 420 405 392 389 355 c 0
 374 321 354 284 316 268 c 1
 380 258 446 214 477 133 c 0
 501 71 510 48 554 48 c 0xac
 562 48 566 48 576 49 c 1
 576 0 l 1x64
 576 0 550 -7 528 -7 c 0xa4
 482 -7 407 -3 368 86 c 0
 327 180 303 229 233 229 c 2
 220 229 l 1
EndSplineSet
EndChar

StartChar: afii10074
Encoding: 1080 1080 295
Width: 630
Flags: MW
HStem: 0 45<31 82 234 277 353 396 548 599> 441 45<31 82 234 277 353 396 548 599>
VStem: 96 124<64 422> 410 124<64 422>
DStem2: 220 189 220 107 0.683343 0.730098<0 218.177>
LayerCount: 2
Back
SplineSet
112 73 m 1
 471 457 l 1
 512 419 l 1
 153 35 l 1
 112 73 l 1
599 0 m 1
 353 0 l 1
 353 45 l 1
 396 49 l 1
 410 64 l 1
 410 422 l 1
 396 437 l 1
 353 441 l 1
 353 486 l 1
 599 486 l 1
 599 441 l 1
 548 437 l 1
 534 422 l 1
 534 64 l 1
 548 49 l 1
 599 45 l 1
 599 0 l 1
31 0 m 1
 31 45 l 1
 82 49 l 1
 96 64 l 1
 96 422 l 1
 82 437 l 1
 31 441 l 1
 31 486 l 1
 277 486 l 1
 277 441 l 1
 234 437 l 1
 220 422 l 1
 220 64 l 1
 234 49 l 1
 277 45 l 1
 277 0 l 1
 31 0 l 1
EndSplineSet
Fore
SplineSet
31 0 m 1
 31 45 l 1
 82 49 l 1
 96 64 l 1
 96 422 l 1
 82 437 l 1
 31 441 l 1
 31 486 l 1
 277 486 l 1
 277 441 l 1
 234 437 l 1
 220 422 l 1
 220 189 l 1
 410 392 l 1
 410 422 l 1
 396 437 l 1
 353 441 l 1
 353 486 l 1
 599 486 l 1
 599 441 l 1
 548 437 l 1
 534 422 l 1
 534 64 l 1
 548 49 l 1
 599 45 l 1
 599 0 l 1
 353 0 l 1
 353 45 l 1
 396 49 l 1
 410 64 l 1
 410 310 l 1
 220 107 l 1
 220 64 l 1
 234 49 l 1
 277 45 l 1
 277 0 l 1
 31 0 l 1
EndSplineSet
EndChar

StartChar: cyrbreve
Encoding: 63188 63188 296
Width: 630
Flags: W
HStem: 547 49<248.803 381.197>
VStem: 132 110<608.194 695.342> 388 110<608.194 695.342>
LayerCount: 2
Fore
SplineSet
132 644 m 0
 132 666 135 682 151 696 c 9
 242 696 l 1
 242 622 l 1
 269 601 291 596 315 596 c 0
 339 596 361 601 388 622 c 1
 388 696 l 1
 479 696 l 17
 495 682 498 666 498 644 c 0
 498 600 460 547 315 547 c 0
 170 547 132 600 132 644 c 0
EndSplineSet
EndChar

StartChar: afii10097
Encoding: 1103 1103 299
Width: 592
Flags: W
HStem: -7 55<8.19876 83.7578> 0 45<8 31.625 315 358 510 561> 205 52<275.344 370.846> 431 55<235.918 371.116> 441 45<510 561>
VStem: 72 136<288.892 404.577> 372 124<64 204.922 257.386 422>
LayerCount: 2
Fore
SplineSet
8 0 m 1x66
 8 49 l 1
 16 48 24 48 32 48 c 0
 70 48 90 61 120 133 c 0
 141 183 173 212 222 228 c 1
 158 242 72 268 72 350 c 0
 72 470 187 486 281 486 c 2xb6
 561 486 l 1
 561 441 l 1
 510 437 l 1
 496 422 l 1
 496 64 l 1
 510 49 l 1
 561 45 l 1
 561 0 l 1
 315 0 l 1
 315 45 l 1x6e
 358 49 l 1
 372 64 l 1
 372 202 l 1
 358 205 356 205 337 205 c 0
 277 205 266 184 228 94 c 0
 195 15 118 -7 55 -7 c 0xa6
 39 -7 8 0 8 0 c 1x66
208 349 m 0
 208 276 267 257 327 257 c 0
 346 257 347 257 372 259 c 1
 372 425 l 1
 353 429 343 431 326 431 c 0
 279 431 208 427 208 349 c 0
EndSplineSet
EndChar

StartChar: afii10093
Encoding: 1099 1099 300
Width: 834
Flags: HW
HStem: 0 45<31 82 557 600 752 803> 0 55<221.023 361.728> 236 56<221.142 364.515> 442 45<31 82 234 289 557 600 752 803>
VStem: 96 124<64 234.05 284 423> 389 136<83.2622 211.77> 614 124<64 423>
LayerCount: 2
Fore
SplineSet
557 0 m 1
 557 45 l 1
 600 49 l 1
 614 64 l 1
 614 423 l 1
 600 438 l 1
 557 442 l 1
 557 487 l 1
 803 487 l 1
 803 442 l 1
 752 438 l 1
 738 423 l 1
 738 64 l 1
 752 49 l 1
 803 45 l 1
 803 0 l 1xbe
 557 0 l 1
EndSplineSet
Refer: 290 1100 N 1 0 0 1 0 0 2
EndChar

StartChar: afii10024
Encoding: 1046 1046 301
Width: 1047
Flags: W
HStem: -11 60<5.66025 103.91 943.09 1041.34> 0 49<5 23.6683 381 441 606 666 1023.33 1042> 322 60<378.569 457 590 668.431> 596 87<107 200.054 846.946 940> 622 49<381 441 606 666>
VStem: 44 74<538 591.007> 457 133<70 601> 929 74<538 591.007>
CounterMasks: 1 07
LayerCount: 2
Fore
SplineSet
5 1 m 1xb7
 5 50 l 1
 5 50 17 49 24 49 c 0
 103 49 117 65 157 177 c 0
 202 301 260 337 332 360 c 1
 289 380 254 436 230 508 c 0
 202 593 183 596 157 596 c 0
 135 596 125 580 118 538 c 1
 44 538 l 1
 44 656 l 1
 56 668 93 683 121 683 c 0
 228 683 266 622 300 522 c 0
 325 450 367 382 443 382 c 2
 457 382 l 1
 457 322 l 1
 436 322 l 2
 360 322 325 233 289 140 c 0
 249 35 195 -11 90 -11 c 0
 60 -11 33 -7 5 1 c 1xb7
381 0 m 1x6f
 381 49 l 1
 441 54 l 1
 457 70 l 1
 457 601 l 1
 441 617 l 1
 381 622 l 1
 381 671 l 1
 666 671 l 1
 666 622 l 1
 606 617 l 1
 590 601 l 1
 590 70 l 1
 606 54 l 1
 666 49 l 1
 666 0 l 1
 381 0 l 1x6f
590 322 m 1
 590 382 l 1
 604 382 l 2
 680 382 722 450 747 522 c 0
 781 622 819 683 926 683 c 0
 954 683 991 668 1003 656 c 1
 1003 538 l 1
 929 538 l 1
 922 580 912 596 890 596 c 0
 864 596 845 593 817 508 c 0
 793 436 758 380 715 360 c 1
 787 337 845 301 890 177 c 0
 930 65 944 49 1023 49 c 0
 1030 49 1042 50 1042 50 c 1
 1042 1 l 1
 1014 -7 987 -11 957 -11 c 0xb7
 852 -11 798 35 758 140 c 0
 722 233 687 322 611 322 c 2
 590 322 l 1
EndSplineSet
EndChar

StartChar: afii10072
Encoding: 1078 1078 302
Width: 824
Flags: W
HStem: -7 55<4.24166 73.0649 750.935 819.758> 0 45<4 25.6279 293 336 488 531 798.372 820> 229 54<294.268 350 474 529.732> 441 45<293 336 488 531> 476 20G<63.5 128 696 760.5>
VStem: 350 124<64 422>
LayerCount: 2
Fore
SplineSet
4 0 m 1x64
 4 49 l 1
 14 48 18 48 26 48 c 0
 70 48 78 70 100 133 c 0
 128 213 196 258 260 268 c 1
 219 285 202 319 188 355 c 0
 174 392 162 419 128 435 c 9
 81 352 l 17
 38 359 16 387 16 420 c 0
 16 443 29 496 98 496 c 0
 158 496 200 476 240 382 c 0
 263 328 304 283 344 283 c 2
 350 283 l 1
 350 229 l 1
 341 229 l 2
 271 229 246 182 209 86 c 0
 174 -5 98 -7 52 -7 c 0xac
 30 -7 4 0 4 0 c 1x64
293 0 m 1x74
 293 45 l 1
 336 49 l 1
 350 64 l 1
 350 422 l 1
 336 437 l 1
 293 441 l 1
 293 486 l 1
 531 486 l 1
 531 441 l 1
 488 437 l 1
 474 422 l 1
 474 64 l 1
 488 49 l 1
 531 45 l 1
 531 0 l 1
 293 0 l 1x74
474 229 m 1
 474 283 l 1
 480 283 l 2
 520 283 561 328 584 382 c 0
 624 476 666 496 726 496 c 0
 795 496 808 443 808 420 c 0
 808 387 786 359 743 352 c 9
 696 435 l 17
 662 419 650 392 636 355 c 0
 622 319 605 285 564 268 c 1
 628 258 696 213 724 133 c 0
 746 70 754 48 798 48 c 0xac
 806 48 810 48 820 49 c 1
 820 0 l 1x64
 820 0 794 -7 772 -7 c 0xa4
 726 -7 650 -5 615 86 c 0
 578 182 553 229 483 229 c 2
 474 229 l 1
EndSplineSet
EndChar

StartChar: afii10092
Encoding: 1098 1098 303
Width: 660
Flags: W
HStem: 0 55<331.023 471.728> 0 45<141 192> 236 56<331.142 474.515> 432 54<108 206> 441 45<344 399>
VStem: 18 65<331 386.364> 206 124<64 234.05 284 422> 499 136<83.2622 211.77>
LayerCount: 2
Fore
SplineSet
18 331 m 1x77
 18 486 l 1
 399 486 l 1
 399 441 l 1
 344 437 l 1
 330 422 l 1
 330 284 l 1
 355 290 368 292 402 292 c 0
 525 292 635 264 635 146 c 0
 635 36 553 0 418 0 c 2xaf
 141 0 l 1
 141 45 l 1
 192 49 l 1
 206 64 l 1
 206 432 l 1
 108 432 l 1
 94 418 l 1
 83 331 l 1
 18 331 l 1x77
330 63 m 1
 352 57 363 55 390 55 c 0
 468 55 499 86 499 146 c 0
 499 195 485 236 394 236 c 0
 372 236 354 236 330 230 c 1
 330 63 l 1
EndSplineSet
EndChar

StartChar: uni2116
Encoding: 8470 8470 304
Width: 1058
Flags: W
HStem: -16 65<14.6995 116.639> 0 49<14 73.6559 756 998> 117 42<840.612 913.388> 377 42<840.612 913.388> 621 65<664.361 766.301> 622 49<66 130 744.239 767>
VStem: 144 73<76.0948 536> 564 73<206 593.905> 744 77<177.777 358.223> 933 77<177.777 358.223>
DStem2: 296 647 217 536 0.519643 -0.854383<53.7847 516.047>
LayerCount: 2
Back
SplineSet
577.25 118.25 m 1
 95.75 908.75 l 1
497 9 m 1
 176 536 l 1
25 622 m 1
 25 671 l 1
 255 671 l 1
 255 644 l 1
 561 169 l 1
 561 597 l 1
 543 616 l 1
 482 624 l 1
 482 671 l 1
 710 671 l 1
 710 624 l 1
 651 616 l 1
 634 597 l 1
 634 0 l 1
 522 0 l 1
 176 537 l 1
 176 74 l 1
 192 56 l 1
 254 48 l 1
 254 0 l 1
 26 0 l 1
 26 48 l 1
 85 56 l 1
 103 74 l 1
 103 603 l 1
 89 617 l 1
 25 622 l 1
EndSplineSet
Fore
SplineSet
14 -6 m 1xb3c0
 14 51 l 1
 20 50 32 49 37 49 c 0
 134 49 144 91 144 184 c 2
 144 603 l 1
 130 617 l 1
 66 622 l 1
 66 671 l 1
 296 671 l 1xb7c0
 296 647 l 1
 564 206 l 1
 564 456 l 2
 564 625 599 686 706 686 c 0
 735 686 743 684 767 676 c 1
 767 619 l 1
 761 620 749 621 744 621 c 0
 647 621 637 579 637 486 c 2
 637 0 l 1
 543 0 l 1x7bc0
 217 536 l 1
 217 214 l 2
 217 45 182 -16 75 -16 c 0
 46 -16 38 -14 14 -6 c 1xb3c0
744 268 m 0
 744 378 812 419 877 419 c 0
 942 419 1010 378 1010 268 c 0
 1010 158 942 117 877 117 c 0
 812 117 744 158 744 268 c 0
756 0 m 1x73c0
 756 49 l 1
 998 49 l 1
 998 0 l 1
 756 0 l 1x73c0
821 268 m 0
 821 208 837 159 877 159 c 0
 917 159 933 208 933 268 c 0
 933 328 917 377 877 377 c 0
 837 377 821 328 821 268 c 0
EndSplineSet
EndChar

StartChar: .notdef
Encoding: 0 0 305
Width: 670
VWidth: 0
Flags: W
HStem: 0 81<153 517> 100 107<269.475 353.324> 543 41<298 360.294> 619 81<153 517>
VStem: 70 83<81 619> 259 105<110.846 196.391> 287 46<240 311.83> 389 91<388.159 516.265> 517 83<81 619>
LayerCount: 2
Fore
SplineSet
70 0 m 1xf980
 70 700 l 1
 600 700 l 1
 600 0 l 1
 70 0 l 1xf980
153 81 m 1
 517 81 l 1
 517 619 l 1
 153 619 l 1
 153 81 l 1
198 506 m 0
 198 548 246 584 322 584 c 0
 418 584 480 531 480 455 c 0
 480 386 430 336 333 304 c 1
 333 240 l 1
 287 240 l 1
 287 335 l 1xfb80
 353 358 389 399 389 455 c 0
 389 510 355 543 298 543 c 9
 264 465 l 1
 260 464 255 463 250 463 c 0
 217 463 198 479 198 506 c 0
259 154 m 0xfd80
 259 183 282 207 311 207 c 0
 340 207 364 184 364 152 c 0
 364 124 340 100 310 100 c 0
 283 100 259 122 259 154 c 0xfd80
EndSplineSet
EndChar

StartChar: dotaccent.i
Encoding: 65536 -1 306
Width: 305
Flags: W
HStem: 575 149<110.625 215.75>
VStem: 90 147<596.125 702.875>
LayerCount: 2
Fore
SplineSet
90 649 m 0
 90 692 121 724 162 724 c 0
 207 724 237 692 237 651 c 0
 237 606 205 575 163 575 c 0
 123 575 90 605 90 649 c 0
EndSplineSet
EndChar

StartChar: ring.cap
Encoding: 61427 61427 313
Width: 500
Flags: W
HStem: 726 52<203.6 298.232> 911 52<203.6 296.926>
VStem: 134 52<794.803 893.518> 315 52<795.018 893.343>
LayerCount: 2
Fore
SplineSet
134 844 m 0
 134 910 185 963 250 963 c 0
 315 963 367 910 367 844 c 0
 367 778 315 726 250 726 c 0
 185 726 134 777 134 844 c 0
186 844 m 0
 186 807 215 778 250 778 c 0
 286 778 315 807 315 844 c 0
 315 881 286 911 250 911 c 0
 215 911 186 882 186 844 c 0
EndSplineSet
EndChar

StartChar: afii10146
Encoding: 1122 1122 316
Width: 735
Flags: MW
HStem: 0 58<367.841 519.286> 325 58<367 516.448> 538 57<120 234 367 481> 630 49<158 218 383 443>
VStem: 23 65<432 472.688> 234 133<70 323.957 380 538 595 609> 513 65<432 470.294> 567 140<102.239 276.539>
LayerCount: 2
Fore
SplineSet
367 61 m 1xfd
 385 59 399 58 415 58 c 0
 530 58 567 97 567 192 c 0
 567 293 512 325 426 325 c 0
 411 325 393 325 367 322 c 1
 367 61 l 1xfd
23 432 m 1
 23 595 l 1
 234 595 l 1
 234 609 l 1
 218 625 l 1
 158 630 l 1
 158 679 l 1
 443 679 l 1
 443 630 l 1
 383 625 l 1
 367 609 l 1
 367 595 l 1
 578 595 l 1
 578 432 l 1
 513 432 l 1xfe
 496 525 l 1
 481 538 l 1
 367 538 l 1
 367 380 l 1
 395 382 415 383 431 383 c 0
 604 383 707 328 707 192 c 0
 707 49 598 0 447 0 c 2
 157 0 l 1
 157 49 l 1
 218 54 l 1
 234 70 l 1
 234 538 l 1
 120 538 l 1
 104 525 l 1
 88 432 l 1
 23 432 l 1
EndSplineSet
EndChar

StartChar: afii10194
Encoding: 1123 1123 317
Width: 657
Flags: W
HStem: 0 55<328.023 468.728> 0 45<138 189> 236 56<328.142 471.515> 340 146<18 78 452 512> 432 54<112 203 327 418> 653 39<130 152.043> 719 20G<215.021 327>
VStem: 18 60<340 375.467> 203 124<64 234.05 284 432 486 653> 452 60<340 375.467> 496 136<83.2622 211.77>
LayerCount: 2
Fore
SplineSet
18 340 m 1x37a0
 18 486 l 1x37a0
 203 486 l 1
 203 653 l 1
 130 653 l 1
 130 692 l 1
 278 739 l 1
 327 739 l 1
 327 486 l 1x2fa0
 512 486 l 1
 512 340 l 1
 452 340 l 1x37c0
 437 416 l 1
 418 432 l 1
 327 432 l 1
 327 284 l 1
 352 290 365 292 399 292 c 0
 522 292 632 264 632 146 c 0
 632 36 550 0 415 0 c 2xafa0
 138 0 l 1
 138 45 l 1
 189 49 l 1
 203 64 l 1
 203 432 l 1
 112 432 l 1x6fa0
 93 416 l 1
 78 340 l 1
 18 340 l 1x37a0
327 63 m 1
 349 57 360 55 387 55 c 0xa7a0
 465 55 496 86 496 146 c 0
 496 195 482 236 391 236 c 0
 369 236 351 236 327 230 c 1
 327 63 l 1
EndSplineSet
EndChar

StartChar: afii10147
Encoding: 1138 1138 318
Width: 752
Flags: W
HStem: -16 63<303.891 455.357> 278 87<384.872 511.808> 314 87<246.117 374.411> 623 63<302.643 453.652>
VStem: 41 149<203.763 326 332 463.382> 568 149<206.618 345 361 465.848>
LayerCount: 2
Back
SplineSet
190 335 m 0
 190 153 269 47 379 47 c 0
 489 47 568 153 568 335 c 0
 568 517 489 623 379 623 c 0
 269 623 190 517 190 335 c 0
41 335 m 0
 41 535 177 686 379 686 c 0
 581 686 717 535 717 335 c 0
 717 135 581 -16 379 -16 c 0
 177 -16 41 135 41 335 c 0
EndSplineSet
Fore
SplineSet
317 401 m 0xbc
 362 401 429 365 474 365 c 0
 494 365 550 366 561 424 c 1
 571 354 l 1
 524 299 486 278 441 278 c 0xdc
 399 278 329 314 284 314 c 0
 264 314 208 312 195 254 c 1
 187 325 l 1
 234 380 272 401 317 401 c 0xbc
190 335 m 0
 190 334 190 333 190 332 c 1
 188 326 l 1
 190 318 l 1
 195 147 273 47 379 47 c 0
 489 47 568 153 568 335 c 0
 568 338 568 342 568 345 c 1
 571 354 l 1
 567 361 l 1
 560 527 484 623 379 623 c 0
 269 623 190 517 190 335 c 0
41 335 m 0
 41 535 177 686 379 686 c 0
 581 686 717 535 717 335 c 0
 717 135 581 -16 379 -16 c 0
 177 -16 41 135 41 335 c 0
EndSplineSet
EndChar

StartChar: afii10195
Encoding: 1139 1139 319
Width: 577
Flags: HW
HStem: -9 53<235.259 348.741> 201 62<285.477 382.568> 229 62<201.432 298.523> 444 53<235.259 348.741>
VStem: 37 138<133.11 354.89> 409 138<133.11 354.89>
LayerCount: 2
Back
SplineSet
252 291 m 0xbc
 293 291 316 263 346 263 c 0
 357 263 392 263 406 305 c 1
 417 283 l 1
 409 258 l 1
 390 221 360 201 332 201 c 0xdc
 291 201 268 229 238 229 c 0
 227 229 192 229 178 187 c 1
 167 209 l 1
 175 234 l 1
 194 271 224 291 252 291 c 0xbc
37 244 m 0
 37 396 139 497 292 497 c 0
 445 497 547 396 547 244 c 0
 547 92 445 -9 292 -9 c 0
 139 -9 37 92 37 244 c 0
175 244 m 0
 175 114 221 44 292 44 c 0
 363 44 409 114 409 244 c 0
 409 374 363 444 292 444 c 0
 221 444 175 374 175 244 c 0
EndSplineSet
Fore
SplineSet
37 244 m 0
 37 396 139 497 292 497 c 0
 445 497 547 396 547 244 c 0
 547 92 445 -9 292 -9 c 0
 139 -9 37 92 37 244 c 0
175 244 m 0
 175 241 175 237 175 234 c 1
 194 271 224 291 252 291 c 0
 293 291 316 263 346 263 c 0
 357 263 391 263 405 303 c 1
 393 395 351 444 292 444 c 0
 221 444 175 374 175 244 c 0
178 188 m 1
 190 94 232 44 292 44 c 0
 363 44 409 114 409 244 c 0
 409 249 409 254 409 258 c 1
 390 221 360 201 332 201 c 0
 291 201 268 229 238 229 c 0
 227 229 192 229 178 188 c 1
EndSplineSet
EndChar

StartChar: afii10148
Encoding: 1140 1140 320
Width: 754
Flags: W
HStem: -2 21G<264.582 380.25> 596 87<595.222 665.885> 622 49<-21 17.5 196 254>
VStem: 681 69<516 583.875>
DStem2: 185 602 45 610 0.347763 -0.937582<0 485.266> 351 146 373 -2 0.340799 0.940136<0 503.551>
LayerCount: 2
Back
SplineSet
-21 622 m 5
 -21 671 l 5
 254 671 l 5
 254 622 l 5
 196 617 l 5
 185 602 l 5
 351 146 l 5
 512 602 l 5
 501 617 l 5
 441 622 l 5
 441 671 l 5
 660 671 l 5
 660 622 l 5
 595 609 l 5
 373 -2 l 5
 272 -2 l 5
 45 610 l 5
 -21 622 l 5
EndSplineSet
Fore
SplineSet
-21 622 m 1xb0
 -21 671 l 1
 254 671 l 1
 254 622 l 1xb0
 196 617 l 1
 185 602 l 1
 351 146 l 1
 472 489 l 2
 506 588 547 683 663 683 c 0
 696 683 732 672 750 656 c 1
 750 516 l 1
 681 516 l 1
 676 573 657 596 633 596 c 0xd0
 604 596 582 574 547 478 c 2
 373 -2 l 1
 272 -2 l 1
 45 610 l 1
 -21 622 l 1xb0
EndSplineSet
EndChar

StartChar: afii10196
Encoding: 1141 1141 321
Width: 620
Flags: W
HStem: 0 21G<206.644 311.953> 441 46<-6 54 196 248> 476 20G<507 572.5>
DStem2: 185 423 54 435 0.345205 -0.938527<0 309.951> 289 131 304 0 0.369488 0.929235<0 354.732>
LayerCount: 2
Back
SplineSet
-6 441 m 1
 -6 487 l 1
 248 487 l 1
 248 441 l 1
 196 436 l 1
 185 423 l 1
 289 131 l 1
 403 422 l 1
 395 436 l 1
 344 441 l 1
 344 487 l 1
 534 487 l 1
 534 441 l 1
 476 434 l 1
 304 0 l 1
 214 0 l 1
 54 435 l 1
 -6 441 l 1
EndSplineSet
Fore
SplineSet
-6 441 m 1xc0
 -6 487 l 1
 248 487 l 1
 248 441 l 1xc0
 196 436 l 1
 185 423 l 1
 289 131 l 1
 382 367 l 2
 419 462 475 496 539 496 c 0xa0
 606 496 620 450.5 620 432 c 0
 620 399 607 368 563 356 c 9
 505 435 l 17
 473 420 455 380 438 337 c 2
 304 0 l 1
 214 0 l 1
 54 435 l 1
 -6 441 l 1xc0
EndSplineSet
EndChar

StartChar: Euro
Encoding: 8364 8364 322
Width: 581
Flags: W
HStem: -12 57<301.136 449.119> 262 50<15 405> 378 50<15 405> 626 57<304.719 450.532>
VStem: 89 136<188.573 426.293> 478 66<132.65 168 507 549.5>
LayerCount: 2
Fore
SplineSet
15 378 m 1
 15 428 l 1
 405 428 l 1
 405 378 l 1
 15 378 l 1
15 262 m 1
 15 312 l 1
 405 312 l 1
 405 262 l 1
 15 262 l 1
89 336 m 0
 89 554 214 683 380 683 c 0
 412 683 494 678 544 651 c 1
 544 507 l 1
 478 507 l 1
 464 592 l 1
 450 611 l 1
 422 624 396 626 373 626 c 0
 280 626 225 546 225 336 c 0
 225 130 280 45 367 45 c 0
 393 45 416 48 442 54 c 1
 458 67 l 1
 478 168 l 1
 544 168 l 1
 544 21 l 1
 490 -6 411 -12 364 -12 c 0
 228 -12 89 92 89 336 c 0
EndSplineSet
EndChar

StartChar: space_uni030F
Encoding: 61861 61861 323
Width: 500
Flags: MW
HStem: 552 190
VStem: 34 381<552 742>
LayerCount: 2
Fore
SplineSet
34 742 m 1
 157 742 l 1
 284 552 l 1
 218 552 l 1
 34 742 l 1
212 742 m 1
 321 742 l 1
 415 552 l 1
 357 552 l 1
 212 742 l 1
EndSplineSet
EndChar

StartChar: uni2070
Encoding: 8304 8304 324
Width: 383
VWidth: 868
Flags: W
HStem: 261 34<155.551 233.652> 644 34<154.925 234.499>
VStem: 26 90<353.319 584.023> 272 90<357.419 581.527>
LayerCount: 2
Fore
SplineSet
26 469 m 0
 26 602 91 678 193 678 c 0
 295 678 362 601 362 469 c 0
 362 337 295 261 193 261 c 0
 91 261 26 336 26 469 c 0
116 471 m 0
 116 353 142 295 194 295 c 0
 246 295 272 354 272 470 c 0
 272 586 246 644 194 644 c 0
 143 644 116 586 116 471 c 0
EndSplineSet
EndChar

StartChar: uni2074
Encoding: 8308 8308 325
Width: 383
VWidth: 868
Flags: W
HStem: 377 47<77 222 299 374> 654 20G<216.49 299>
VStem: 222 77<249 377 424 591>
DStem2: 16 425 77 424 0.658719 0.752389<39.4294 260.593>
LayerCount: 2
Fore
SplineSet
16 377 m 1
 16 425 l 1
 234 674 l 1
 299 674 l 1
 299 424 l 1
 374 424 l 1
 374 377 l 1
 299 377 l 1
 299 249 l 1
 222 249 l 1
 222 377 l 1
 16 377 l 1
77 424 m 1
 222 424 l 1
 222 591 l 1
 77 424 l 1
EndSplineSet
EndChar

StartChar: uni2075
Encoding: 8309 8309 326
Width: 383
VWidth: 868
Flags: W
HStem: 263 34<131.111 219.644> 471 49<118.038 225.222> 608 63<117 323>
VStem: 63 54<507 608> 259 87<333.55 439.345>
LayerCount: 2
Fore
SplineSet
36 335 m 0
 36 355 56 372 86 372 c 0
 93 372 101 370 110 368 c 1
 133 300 l 1
 144 298 153 297 164 297 c 0
 217 297 259 334 259 384 c 0
 259 437 216 471 143 471 c 0
 116 471 89 468 63 463 c 1
 63 671 l 1
 323 671 l 1
 323 608 l 1
 117 608 l 1
 117 507 l 1
 146 516 172 520 197 520 c 0
 289 520 346 472 346 402 c 0
 346 322 272 263 159 263 c 0
 83 263 36 295 36 335 c 0
EndSplineSet
EndChar

StartChar: uni2076
Encoding: 8310 8310 327
Width: 383
VWidth: 868
Flags: W
HStem: 260 37<156.311 248.589> 491 48<138.315 249.275> 652 44<282 310>
VStem: 31 87<342.385 483.584> 278 87<331.887 461.5>
LayerCount: 2
Fore
SplineSet
31 441 m 0
 31 594 139 695 310 696 c 1
 310 652 l 1
 282 654 l 1
 195 648 139 598 123 509 c 1
 156 529 191 539 228 539 c 0
 305 539 365 484 365 408 c 0
 365 321 294 260 196 260 c 0
 95 260 31 328 31 441 c 0
118 440 m 0
 118 345 151 297 204 297 c 0
 247 297 278 334 278 396 c 0
 278 455 243 491 190 491 c 0
 165 491 141 486 119 476 c 1
 118 458 118 445 118 440 c 0
EndSplineSet
EndChar

StartChar: uni2077
Encoding: 8311 8311 328
Width: 383
VWidth: 868
Flags: W
HStem: 604 67<104 294>
VStem: 50 44<548 587.2>
DStem2: 82 248 152 264 0.502702 0.86446<49.0205 414.32>
LayerCount: 2
Fore
SplineSet
50 548 m 1
 50 671 l 1
 366 671 l 1
 366 632 l 1
 152 264 l 1
 152 248 l 1
 82 248 l 1
 294 604 l 1
 104 604 l 1
 94 548 l 1
 50 548 l 1
EndSplineSet
EndChar

StartChar: uni2078
Encoding: 8312 8312 329
Width: 383
VWidth: 868
Flags: W
HStem: 259 37<139.166 250.34> 643 36<147.439 240.527>
VStem: 28 78<323.524 433.251> 47 83<535.82 627.791> 263 75<519.324 623.953> 272 84<313.868 404.809>
LayerCount: 2
Fore
SplineSet
28 375 m 0xe4
 28 422 59 455 117 471 c 1
 71 490 47 521 47 564 c 0
 47 632 106 679 200 679 c 0
 285 679 338 634 338 575 c 0xd8
 338 535 311 502 260 482 c 1
 325 461 356 427 356 377 c 0
 356 308 293 259 187 259 c 0
 89 259 28 309 28 375 c 0xe4
106 382 m 0xe4
 106 332 143 296 193 296 c 0
 241 296 272 322 272 359 c 0
 272 403 231 426 147 456 c 1
 119 433 106 411 106 382 c 0xe4
130 582 m 0xd8
 130 544 162 519 229 495 c 1
 251 514 263 540 263 569 c 0
 263 613 235 643 193 643 c 0
 156 643 130 617 130 582 c 0xd8
EndSplineSet
EndChar

StartChar: uni2079
Encoding: 8313 8313 330
Width: 383
VWidth: 868
Flags: W
HStem: 236 40<81.85 125.029> 402 45<144.97 254.968> 642 36<145.746 237.458>
VStem: 28 88<475.436 607.083> 274 86<459.289 606.01>
LayerCount: 2
Fore
SplineSet
28 531 m 0
 28 618 96 678 201 678 c 0
 298 678 360 616 360 519 c 0
 360 395 262 287 85 236 c 1
 67 276 l 1
 97 281 l 1
 181 316 234 362 258 425 c 1
 226 410 194 402 162 402 c 0
 85 402 28 454 28 531 c 0
116 544 m 0
 116 482 151 447 210 447 c 0
 228 447 247 452 267 461 c 1
 271 480 274 498 274 519 c 0
 274 599 241 642 191 642 c 0
 148 642 116 605 116 544 c 0
EndSplineSet
EndChar

StartChar: zero.denominator
Encoding: 63061 63061 331
Width: 366
VWidth: 560
Flags: HW
HStem: -7 32<146.733 224.343> 351 31<149.003 223.528>
VStem: 25 86<79.896 296.777> 260 85<79.7133 296.15>
LayerCount: 2
Back
SplineSet
25 188 m 0
 25 312 88 382 185 382 c 0
 283 382 345 311 345 188 c 0
 345 65 283 -7 185 -7 c 0
 88 -7 25 64 25 188 c 0
111 190 m 0
 111 80 135 25 185 25 c 0
 235 25 260 79 260 188 c 0
 260 297 235 351 185 351 c 0
 136 351 111 298 111 190 c 0
EndSplineSet
Fore
SplineSet
25 188 m 0
 25 312 88 382 185 382 c 0
 283 382 345 311 345 188 c 0
 345 65 283 -7 185 -7 c 0
 88 -7 25 64 25 188 c 0
111 190 m 0
 111 80 135 25 185 25 c 0
 235 25 260 79 260 188 c 0
 260 297 235 351 185 351 c 0
 136 351 111 298 111 190 c 0
EndSplineSet
EndChar

StartChar: one.denominator
Encoding: 63062 63062 332
Width: 366
VWidth: 560
Flags: W
HStem: 0 28<93 156 253 312> 312 28<69 92.2195>
VStem: 164 82<41 317>
LayerCount: 2
Back
SplineSet
69 312 m 1
 69 340 l 1
 205 381 l 1
 246 381 l 1
 246 39 l 1
 253 30 l 1
 312 28 l 1
 312 0 l 1
 93 0 l 1
 93 28 l 1
 156 31 l 1
 164 41 l 1
 164 317 l 1
 158 324 l 1
 69 312 l 1
EndSplineSet
Fore
SplineSet
69 312 m 1
 69 340 l 1
 205 381 l 1
 246 381 l 1
 246 39 l 1
 253 30 l 1
 312 28 l 1
 312 0 l 1
 93 0 l 1
 93 28 l 1
 156 31 l 1
 164 41 l 1
 164 317 l 1
 158 324 l 1
 69 312 l 1
EndSplineSet
EndChar

StartChar: two.denominator
Encoding: 63063 63063 333
Width: 366
VWidth: 560
Flags: W
HStem: 0 57<109 285> 347 35<122.047 210.25>
VStem: 36 85<262.633 342.396> 235 87<209.276 326.667> 297 38<77.4167 106>
LayerCount: 2
Back
SplineSet
30 0 m 1xe8
 30 44 l 1
 163 136 235 198 235 268 c 0
 235 318 206 347 158 347 c 0
 147 347 134 344 121 340 c 1
 121 268 l 1
 107 261 94 258 81 258 c 0
 53 258 36 273 36 297 c 0
 36 343 93 382 184 382 c 0
 268 382 322 338 322 273 c 0xf0
 322 201 249 142 109 57 c 1
 285 57 l 1
 297 106 l 1
 335 106 l 1
 335 0 l 1
 30 0 l 1xe8
EndSplineSet
Fore
SplineSet
30 0 m 1xe8
 30 44 l 1
 163 136 235 198 235 268 c 0
 235 318 205 347 157 347 c 0
 146 347 134 344 121 340 c 1
 121 268 l 1
 107 261 94 258 81 258 c 0
 54 258 36 273 36 297 c 0
 36 343 93 382 184 382 c 0
 268 382 322 338 322 273 c 0xf0
 322 202 249 142 109 57 c 1
 285 57 l 1
 297 106 l 1
 335 106 l 1
 335 0 l 1
 30 0 l 1xe8
EndSplineSet
EndChar

StartChar: three.denominator
Encoding: 63064 63064 334
Width: 366
VWidth: 560
Flags: W
HStem: -6 33<114.986 211.089> 174 37<118 204.312> 346 36<115.632 204.683>
VStem: 26 70<74.65 95.69> 37 78<270.85 343.805> 229 85<235.771 327.342> 244 85<52.916 152.415>
LayerCount: 2
Back
SplineSet
26 64 m 0xf2
 26 86 44 100 71 100 c 0
 79 100 87 99 96 96 c 1
 116 35 l 1
 132 29 146 27 159 27 c 0
 207 27 244 61 244 105 c 0xf2
 244 146 211 174 157 174 c 0
 148 174 135 173 118 171 c 1
 118 211 l 1
 124 210 130 211 136 211 c 0
 195 211 229 236 229 279 c 0
 229 318 197 346 151 346 c 0
 140 346 128 343 115 339 c 1
 115 274 l 1
 105 268 95 266 82 266 c 0
 55 266 37 283 37 305 c 0
 37 345 91 382 177 382 c 0
 261 382 314 341 314 287 c 0xec
 314 243 278 212 210 198 c 1
 287 193 329 159 329 108 c 0
 329 45 262 -6 154 -6 c 0
 77 -6 26 27 26 64 c 0xf2
EndSplineSet
Fore
SplineSet
26 64 m 0xf2
 26 86 44 100 71 100 c 0
 79 100 86 99 96 96 c 1
 116 35 l 1
 132 30 147 27 159 27 c 0
 207 27 244 61 244 105 c 0xf2
 244 146 210 174 157 174 c 0
 148 174 135 173 118 171 c 1
 118 211 l 1
 124 211 130 211 136 211 c 0
 195 211 229 236 229 279 c 0
 229 319 197 346 151 346 c 0
 140 346 128 344 115 339 c 1
 115 274 l 1
 105 268 95 266 82 266 c 0
 55 266 37 282 37 305 c 0
 37 345 91 382 177 382 c 0
 261 382 314 342 314 287 c 0xec
 314 243 278 212 210 198 c 1
 287 193 329 159 329 108 c 0
 329 45 262 -6 154 -6 c 0
 76 -6 26 27 26 64 c 0xf2
EndSplineSet
EndChar

StartChar: four.denominator
Encoding: 63065 63065 335
Width: 366
VWidth: 560
Flags: W
HStem: -17 21G<212 285> 101 45<73 212 285 357>
VStem: 212 73<-17 101 146 302>
DStem2: 16 147 73 146 0.667545 0.744569<37.3055 246.247>
LayerCount: 2
Back
SplineSet
16 101 m 1
 16 147 l 1
 224 379 l 1
 285 379 l 1
 285 146 l 1
 357 146 l 1
 357 101 l 1
 285 101 l 1
 285 -17 l 1
 212 -17 l 1
 212 101 l 1
 16 101 l 1
73 146 m 1
 212 146 l 1
 212 302 l 1
 73 146 l 1
EndSplineSet
Fore
SplineSet
16 101 m 1
 16 147 l 1
 224 379 l 1
 285 379 l 1
 285 146 l 1
 357 146 l 1
 357 101 l 1
 285 101 l 1
 285 -17 l 1
 212 -17 l 1
 212 101 l 1
 16 101 l 1
73 146 m 1
 212 146 l 1
 212 302 l 1
 73 146 l 1
EndSplineSet
EndChar

StartChar: five.denominator
Encoding: 63066 63066 336
Width: 366
VWidth: 560
Flags: HW
HStem: -5 32<125.372 208.813> 190 45<112.983 216.768> 318 58<112 308>
VStem: 60 52<223 318> 247 84<59.2501 160.448>
LayerCount: 2
Back
SplineSet
35 62 m 0
 35 81 54 97 82 97 c 0
 89 97 96 96 105 94 c 1
 127 30 l 1
 137 28 146 27 156 27 c 0
 207 27 247 63 247 109 c 0
 247 159 206 190 137 190 c 0
 111 190 85 187 60 182 c 1
 60 376 l 1
 308 376 l 1
 308 318 l 1
 112 318 l 1
 112 223 l 1
 140 231 164 235 188 235 c 0
 276 235 331 191 331 125 c 0
 331 50 260 -5 152 -5 c 0
 80 -5 35 25 35 62 c 0
EndSplineSet
Fore
SplineSet
35 62 m 0
 35 81 54 97 82 97 c 0
 89 97 96 96 105 94 c 1
 127 30 l 1
 137 28 146 27 156 27 c 0
 207 27 247 63 247 109 c 0
 247 159 206 190 137 190 c 0
 111 190 85 187 60 182 c 1
 60 376 l 1
 308 376 l 1
 308 318 l 1
 112 318 l 1
 112 223 l 1
 140 231 164 235 188 235 c 0
 276 235 331 191 331 125 c 0
 331 50 260 -5 152 -5 c 0
 80 -5 35 25 35 62 c 0
EndSplineSet
EndChar

StartChar: six.denominator
Encoding: 63067 63067 337
Width: 366
VWidth: 560
Flags: HW
HStem: -7 34<151.317 237.326> 208 45<130.001 239.521> 358 42<269 295>
VStem: 30 83<68.743 201.678> 265 83<58.7613 182.562>
LayerCount: 2
Back
SplineSet
30 162 m 0
 30 305 132 399 295 400 c 1
 295 358 l 1
 269 361 l 1
 186 355 134 308 118 225 c 1
 150 243 183 253 218 253 c 0
 292 253 348 201 348 130 c 0
 348 49 281 -7 187 -7 c 0
 91 -7 30 56 30 162 c 0
113 161 m 0
 113 73 144 27 195 27 c 0
 236 27 265 62 265 120 c 0
 265 175 232 208 181 208 c 0
 157 208 135 204 114 194 c 1
 113 177 113 166 113 161 c 0
EndSplineSet
Fore
SplineSet
30 162 m 0
 30 305 132 399 295 400 c 1
 295 358 l 1
 269 361 l 1
 186 355 134 308 118 225 c 1
 150 243 183 253 218 253 c 0
 292 253 348 201 348 130 c 0
 348 49 281 -7 187 -7 c 0
 91 -7 30 56 30 162 c 0
113 161 m 0
 113 73 144 27 195 27 c 0
 236 27 265 62 265 120 c 0
 265 175 232 208 181 208 c 0
 157 208 135 204 114 194 c 1
 113 177 113 166 113 161 c 0
EndSplineSet
EndChar

StartChar: seven.denominator
Encoding: 63068 63068 338
Width: 366
VWidth: 560
Flags: HW
HStem: 314 62<99 281>
VStem: 48 41<262 298.4>
DStem2: 78 -19 146 -3 0.512278 0.858819<48.576 389.979>
LayerCount: 2
Back
SplineSet
48 262 m 1
 48 376 l 1
 350 376 l 1
 350 339 l 1
 146 -3 l 1
 146 -19 l 1
 78 -19 l 1
 281 314 l 1
 99 314 l 1
 89 262 l 1
 48 262 l 1
EndSplineSet
Fore
SplineSet
48 262 m 1
 48 376 l 1
 350 376 l 1
 350 339 l 1
 146 -3 l 1
 146 -19 l 1
 78 -19 l 1
 281 314 l 1
 99 314 l 1
 89 262 l 1
 48 262 l 1
EndSplineSet
EndChar

StartChar: eight.denominator
Encoding: 63069 63069 339
Width: 366
VWidth: 560
Flags: HW
HStem: -8 34<133.284 239.286> 350 34<141.156 230.393>
VStem: 26 75<51.6217 154.417> 45 79<249.506 336.997> 251 72<232.614 333.625> 260 80<42.9466 128.609>
LayerCount: 2
Back
SplineSet
26 100 m 0xe4
 26 144 57 174 112 189 c 1
 68 207 45 237 45 277 c 0
 45 341 102 384 191 384 c 0
 272 384 323 341 323 286 c 0xd8
 323 248 297 218 248 199 c 1
 310 179 340 149 340 102 c 0
 340 38 280 -8 179 -8 c 0
 86 -8 26 38 26 100 c 0xe4
101 106 m 0xe4
 101 59 137 26 185 26 c 0
 230 26 260 50 260 85 c 0
 260 126 221 148 140 176 c 1
 114 155 101 133 101 106 c 0xe4
124 293 m 0xd8
 124 258 155 234 219 212 c 1
 240 230 251 254 251 281 c 0
 251 322 225 350 185 350 c 0
 150 350 124 325 124 293 c 0xd8
EndSplineSet
Fore
SplineSet
26 100 m 0xe4
 26 144 57 174 112 189 c 1
 68 207 45 237 45 277 c 0
 45 341 102 384 191 384 c 0
 272 384 323 341 323 286 c 0xd8
 323 248 297 218 248 199 c 1
 310 179 340 149 340 102 c 0
 340 38 280 -8 179 -8 c 0
 86 -8 26 38 26 100 c 0xe4
101 106 m 0xe4
 101 59 137 26 185 26 c 0
 230 26 260 50 260 85 c 0
 260 126 221 148 140 176 c 1
 114 155 101 133 101 106 c 0xe4
124 293 m 0xd8
 124 258 155 234 219 212 c 1
 240 230 251 254 251 281 c 0
 251 322 225 350 185 350 c 0
 150 350 124 325 124 293 c 0xd8
EndSplineSet
EndChar

StartChar: nine.denominator
Encoding: 63070 63070 340
Width: 366
VWidth: 560
Flags: HW
HStem: -30 37<77.7838 119.227> 125 42<137.306 243.169> 349 33<139.288 226.004>
VStem: 26 84<193.861 317.498> 261 83<178.931 318.246>
LayerCount: 2
Back
SplineSet
26 246 m 0
 26 327 92 382 192 382 c 0
 285 382 344 326 344 235 c 0
 344 120 250 18 81 -30 c 1
 64 7 l 1
 93 12 l 1
 173 44 223 88 246 147 c 1
 216 133 186 125 155 125 c 0
 81 125 26 174 26 246 c 0
110 258 m 0
 110 200 143 167 200 167 c 0
 218 167 235 172 255 180 c 1
 259 197 261 215 261 235 c 0
 261 309 230 349 183 349 c 0
 142 349 110 315 110 258 c 0
EndSplineSet
Fore
SplineSet
26 246 m 0
 26 327 92 382 192 382 c 0
 285 382 344 326 344 235 c 0
 344 120 250 18 81 -30 c 1
 64 7 l 1
 93 12 l 1
 173 44 223 88 246 147 c 1
 216 133 186 125 155 125 c 0
 81 125 26 174 26 246 c 0
110 258 m 0
 110 200 143 167 200 167 c 0
 218 167 235 172 255 180 c 1
 259 197 261 215 261 235 c 0
 261 309 230 349 183 349 c 0
 142 349 110 315 110 258 c 0
EndSplineSet
EndChar

StartChar: uni207A
Encoding: 8314 8314 367
Width: 549
VWidth: 868
Flags: W
HStem: 423 48<82 248 302 468>
VStem: 248 54<268 423 471 626>
LayerCount: 2
Fore
SplineSet
82 423 m 1
 82 471 l 1
 248 471 l 1
 248 626 l 1
 302 626 l 1
 302 471 l 1
 468 471 l 1
 468 423 l 1
 302 423 l 1
 302 268 l 1
 248 268 l 1
 248 423 l 1
 82 423 l 1
EndSplineSet
EndChar

StartChar: uni207B
Encoding: 8315 8315 368
Width: 549
VWidth: 868
Flags: W
HStem: 422 50<82 468>
LayerCount: 2
Fore
SplineSet
82 422 m 5
 82 472 l 5
 468 472 l 5
 468 422 l 5
 82 422 l 5
EndSplineSet
EndChar

StartChar: uni207C
Encoding: 8316 8316 369
Width: 549
VWidth: 868
Flags: W
HStem: 362 49<82 468> 483 49<82 468>
LayerCount: 2
Fore
SplineSet
82 362 m 5
 82 411 l 5
 468 411 l 5
 468 362 l 5
 82 362 l 5
82 483 m 5
 82 532 l 5
 468 532 l 5
 468 483 l 5
 82 483 l 5
EndSplineSet
EndChar

StartChar: uni207D
Encoding: 8317 8317 370
Width: 282
VWidth: 868
Flags: W
HStem: 183 30<211.881 255> 668 31<211.307 255>
VStem: 60 78<307.802 571.412>
LayerCount: 2
Fore
SplineSet
60 439 m 4
 60 603 132 694 255 699 c 5
 255 668 l 5
 173 658 138 583 138 438 c 4
 138 296 175 221 255 213 c 5
 255 183 l 5
 134 187 60 278 60 439 c 4
EndSplineSet
EndChar

StartChar: uni207E
Encoding: 8318 8318 371
Width: 282
VWidth: 868
Flags: W
HStem: 183 30<24 66.459> 668 31<24 66.7461>
VStem: 141 76<309.299 572.365>
LayerCount: 2
Fore
SplineSet
24 213 m 5
 106 223 141 297 141 441 c 4
 141 584 105 660 24 668 c 5
 24 699 l 5
 144 694 217 602 217 441 c 4
 217 279 143 188 24 183 c 5
 24 213 l 5
EndSplineSet
EndChar

StartChar: zero.taboldstyle
Encoding: 63043 63043 377
Width: 581
Flags: W
HStem: -10 52<237.178 344.822> 448 52<237.178 344.822>
VStem: 47 134<134.454 355.546> 401 134<134.454 355.546>
LayerCount: 2
Fore
SplineSet
47 245 m 0
 47 407 160 500 291 500 c 0
 422 500 535 407 535 245 c 0
 535 83 422 -10 291 -10 c 0
 160 -10 47 83 47 245 c 0
181 245 m 0
 181 125 222 42 291 42 c 0
 360 42 401 125 401 245 c 0
 401 365 360 448 291 448 c 0
 222 448 181 365 181 245 c 0
EndSplineSet
EndChar

StartChar: one.taboldstyle
Encoding: 63044 63044 378
Width: 581
Flags: W
HStem: 0 50<118 216 364 464> 440 50<118 216 364 464>
VStem: 228 126<74 416>
LayerCount: 2
Back
SplineSet
109 557 m 1
 109 608 l 1
 325 681 l 1
 390 681 l 1
 390 70 l 1
 401 54 l 1
 495 50 l 1
 495 0 l 1
 148 0 l 1
 148 50 l 1
 248 56 l 1
 260 74 l 1
 260 566 l 1
 251 578 l 1
 109 557 l 1
EndSplineSet
Fore
SplineSet
118 0 m 1
 118 50 l 1
 216 56 l 1
 228 74 l 1
 228 416 l 1
 216 434 l 1
 118 440 l 1
 118 490 l 1
 464 490 l 1
 464 440 l 1
 364 436 l 1
 354 420 l 1
 354 70 l 1
 364 54 l 1
 464 50 l 1
 464 0 l 1
 118 0 l 1
EndSplineSet
EndChar

StartChar: two.taboldstyle
Encoding: 63045 63045 379
Width: 581
Flags: W
HStem: 0 92<203 523> 439 61<204.632 347.355>
VStem: 76 128<320.574 418.894> 375 130<289.776 411.87>
LayerCount: 2
Back
SplineSet
48 0 m 1
 48 79 l 1
 259 243 373 354 373 479 c 0
 373 568 326 619 250 619 c 0
 232 619 212 615 192 607 c 1
 192 478 l 1
 170 466 149 460 129 460 c 0
 85 460 57 488 57 530 c 0
 57 613 148 683 292 683 c 0
 426 683 511 604 511 488 c 0
 511 360 395 253 173 102 c 1
 453 102 l 1
 471 190 l 1
 532 190 l 1
 532 0 l 1
 48 0 l 1
EndSplineSet
Fore
SplineSet
60 0 m 1
 60 65 l 1
 298 230 375 274 375 349 c 0
 375 410 340 439 269 439 c 0
 251 439 224 435 204 427 c 1
 204 318 l 1
 133 318 l 2
 98 318 76 319 76 352 c 0
 76 440 170 500 298 500 c 0
 422 500 505 456 505 365 c 0
 505 248 400 212 203 92 c 1
 523 92 l 1
 523 0 l 1
 60 0 l 1
EndSplineSet
EndChar

StartChar: three.taboldstyle
Encoding: 63046 63046 380
Width: 581
Flags: W
HStem: -160 58<184.925 324.809> 145 62<190.26 309.85> 439 62<186.486 314.359>
VStem: 61 123<316.262 424.156> 362 131<265.51 391.952> 386 134<-39.7239 95.6943>
LayerCount: 2
Back
SplineSet
42 -52 m 4
 42 -13 70 13 113 13 c 4
 125 13 137 10 152 5 c 5
 184 -103 l 5
 210 -113 233 -118 253 -118 c 4
 329 -118 387 -57 387 21 c 4x88
 387 94 334 144 249 144 c 4
 235 144 214 143 187 139 c 5
 187 211 l 5
 197 210 207 210 216 210 c 4
 310 210 363 256 363 333 c 4
 363 403 312 452 239 452 c 4
 222 452 203 448 183 440 c 5
 183 323 l 5
 167 313 151 309 130 309 c 4
 87 309 58 338 58 378 c 4
 58 450 145 516 281 516 c 4
 414 516 498 444 498 347 c 4
 498 268 442 212 334 187 c 5x70
 456 178 523 118 523 27 c 4
 523 -86 416 -177 244 -177 c 4
 121 -177 42 -118 42 -52 c 4
EndSplineSet
Fore
SplineSet
45 -39 m 0xf4
 45 0 72 26 115 26 c 0
 127 26 139 23 154 18 c 1
 185 -87 l 1
 211 -97 235 -102 255 -102 c 0
 324 -102 386 -44 386 31 c 0xf4
 386 98 332 145 249 145 c 0
 235 145 216 144 189 140 c 1
 189 208 l 1
 199 207 211 207 220 207 c 0
 316 207 362 256 362 323 c 0
 362 386 318 439 245 439 c 0
 228 439 204 435 184 427 c 1
 184 313 l 1
 168 303 153 299 132 299 c 0
 89 299 61 328 61 368 c 0
 61 438 152 501 283 501 c 0
 412 501 493 424 493 337 c 0xf8
 493 266 442 211 334 186 c 1
 456 177 520 122 520 37 c 0
 520 -68 410 -160 246 -160 c 0
 128 -160 45 -105 45 -39 c 0xf4
EndSplineSet
EndChar

StartChar: four.taboldstyle
Encoding: 63047 63047 381
Width: 581
Flags: W
HStem: -170 21G<331 448> 0 74<116 331 448 557> 473 20G<334.545 448>
VStem: 331 117<-170 0 74 355>
DStem2: 27 75 116 74 0.611448 0.791285<53.6275 407.44>
LayerCount: 2
Back
SplineSet
25 -2 m 1
 25 79 l 1
 355 494 l 1
 453 494 l 1
 453 77 l 1
 566 77 l 1
 566 -2 l 1
 453 -2 l 1
 453 -214 l 1
 336 -214 l 1
 336 -2 l 1
 25 -2 l 1
116 77 m 1
 336 77 l 1
 336 356 l 1
 116 77 l 1
EndSplineSet
Fore
SplineSet
27 0 m 1
 27 75 l 1
 350 493 l 1
 448 493 l 1
 448 74 l 1
 557 74 l 1
 557 0 l 1
 448 0 l 1
 448 -170 l 1
 331 -170 l 1
 331 0 l 1
 27 0 l 1
116 74 m 1
 331 74 l 1
 331 355 l 1
 116 74 l 1
EndSplineSet
EndChar

StartChar: five.taboldstyle
Encoding: 63048 63048 382
Width: 581
Flags: W
HStem: -160 58<200.771 330.962> 173 78<179.958 318.393> 392 98<178 487>
VStem: 98 80<231 392> 390 130<-29.9626 108.462>
LayerCount: 2
Back
SplineSet
55 -55 m 4
 55 -21 85 8 130 8 c 4
 141 8 153 5 167 1 c 5
 201 -112 l 5
 217 -116 232 -117 248 -117 c 4
 329 -117 392 -55 392 28 c 4
 392 117 327 173 217 173 c 4
 176 173 135 168 96 159 c 5
 96 505 l 5
 489 505 l 5
 489 401 l 5
 177 401 l 5
 177 232 l 5
 221 247 260 254 298 254 c 4
 437 254 525 175 525 58 c 4
 525 -76 412 -175 241 -175 c 4
 126 -175 55 -121 55 -55 c 4
EndSplineSet
Fore
SplineSet
57 -44 m 0
 57 -10 86 19 131 19 c 0
 142 19 155 16 169 12 c 1
 203 -97 l 1
 219 -101 234 -102 250 -102 c 0
 336 -102 390 -47 390 31 c 0
 390 119 328 173 218 173 c 0
 177 173 137 168 98 159 c 1
 98 490 l 1
 487 490 l 1
 487 392 l 1
 178 392 l 1
 178 231 l 1
 222 246 262 251 298 251 c 0
 428 251 520 170 520 58 c 0
 520 -66 408 -160 243 -160 c 0
 130 -160 57 -106 57 -44 c 0
EndSplineSet
EndChar

StartChar: six.taboldstyle
Encoding: 63049 63049 383
Width: 581
Flags: W
HStem: -10 58<248.43 364.983> 356 77<238.017 362.298> 611 71<425 467>
VStem: 50 130<147.966 332.046> 420 130<123.121 294.051>
LayerCount: 2
Back
SplineSet
47 289 m 4
 47 544 210 713 469 714 c 5
 469 640 l 5
 427 644 l 5
 295 634 212 550 187 401 c 5
 237 434 290 452 346 452 c 4
 463 452 553 360 553 233 c 4
 553 88 446 -13 297 -13 c 4
 144 -13 47 100 47 289 c 4
179 287 m 4
 179 129 228 49 309 49 c 4
 374 49 421 110 421 214 c 4
 421 312 369 372 288 372 c 4
 250 372 214 364 181 347 c 5
 180 317 179 296 179 287 c 4
EndSplineSet
Fore
SplineSet
50 276 m 0
 50 522 214 682 467 682 c 1
 467 611 l 1
 425 615 l 1
 293 605 213 532 188 384 c 1
 238 417 290 433 346 433 c 0
 460 433 550 346 550 224 c 0
 550 84 444 -10 297 -10 c 0
 148 -10 50 94 50 276 c 0
180 270 m 0
 180 128 230 48 309 48 c 0
 372 48 420 110 420 205 c 0
 420 300 369 356 288 356 c 0
 250 356 215 347 182 330 c 1
 180 302 180 279 180 270 c 0
EndSplineSet
EndChar

StartChar: seven.taboldstyle
Encoding: 63050 63050 384
Width: 581
Flags: W
HStem: -170 21G<137 244> 388 102<158 444>
VStem: 79 63<300 338.5>
DStem2: 137 -170 244 -142 0.4741 0.880471<75.3819 636.852>
LayerCount: 2
Back
SplineSet
76 286 m 1
 76 490 l 1
 555 490 l 1
 555 425 l 1
 231 -187 l 1
 231 -215 l 1
 124 -215 l 1
 446 379 l 1
 157 379 l 1
 142 286 l 1
 76 286 l 1
EndSplineSet
Fore
SplineSet
79 300 m 1
 79 490 l 1
 552 490 l 1
 552 430 l 1
 244 -142 l 1
 244 -170 l 1
 137 -170 l 1
 444 388 l 1
 158 388 l 1
 142 300 l 1
 79 300 l 1
EndSplineSet
EndChar

StartChar: eight.taboldstyle
Encoding: 63051 63051 385
Width: 581
Flags: W
HStem: -14 58<222.047 366.63> 595 58<235.354 354.181>
VStem: 45 116<105.678 246.244> 74 124<441.231 549.419> 398 111<412.576 550.574> 411 125<90.4651 202.277>
LayerCount: 2
Back
SplineSet
42 179 m 4xa4
 42 257 89 312 177 338 c 5
 107 370 71 423 71 494 c 4
 71 608 161 685 303 685 c 4
 432 685 512 610 512 511 c 4
 512 444 472 390 394 356 c 5
 492 321 539 266 539 182 c 4
 539 67 445 -15 284 -15 c 4
 136 -15 42 69 42 179 c 4xa4
160 190 m 4
 160 106 217 46 293 46 c 4
 365 46 412 90 412 152 c 4
 412 226 350 264 222 314 c 5xa4
 180 276 160 239 160 190 c 4
197 524 m 4
 197 461 246 419 347 379 c 5x58
 381 411 399 453 399 502 c 4
 399 575 356 625 293 625 c 4
 237 625 197 582 197 524 c 4
EndSplineSet
Fore
SplineSet
45 169 m 0xe4
 45 240 92 300 178 321 c 1
 114 350 74 406 74 467 c 0
 74 572 166 653 303 653 c 0
 426 653 509 578 509 484 c 0xd8
 509 424 468 370 393 339 c 1
 484 310 536 246 536 172 c 0
 536 60 438 -14 284 -14 c 0
 130 -14 45 70 45 169 c 0xe4
161 180 m 0xe4
 161 106 218 44 293 44 c 0
 360 44 411 84 411 142 c 0
 411 210 348 254 223 297 c 1
 182 264 161 226 161 180 c 0xe4
198 497 m 0xd8
 198 440 250 406 346 362 c 1
 380 394 398 432 398 475 c 0
 398 546 356 595 293 595 c 0
 240 595 198 552 198 497 c 0xd8
EndSplineSet
EndChar

StartChar: nine.taboldstyle
Encoding: 63052 63052 386
Width: 581
Flags: W
HStem: 65 73<231.147 357.216> 442 58<230.176 356.181>
VStem: 45 131<193.598 364.045> 414 129<159.775 364.398>
LayerCount: 2
Back
SplineSet
42 273 m 0
 42 418 145 517 304 517 c 0
 451 517 546 415 546 253 c 0
 546 47 397 -134 129 -219 c 1
 102 -153 l 1
 147 -145 l 1
 274 -87 354 -9 391 96 c 1
 343 71 295 57 246 57 c 0
 129 57 42 145 42 273 c 0
175 294 m 0
 175 190 228 133 318 133 c 0
 346 133 374 140 405 155 c 1
 411 186 415 218 415 253 c 0
 415 386 365 458 290 458 c 0
 225 458 175 396 175 294 c 0
EndSplineSet
Fore
SplineSet
45 263 m 0
 45 402 152 500 304 500 c 0
 448 500 543 402 543 249 c 0
 543 46 394 -114 130 -203 c 1
 103 -139 l 1
 148 -131 l 1
 276 -76 354 0 390 102 c 1
 344 77 295 65 246 65 c 0
 136 65 45 140 45 263 c 0
176 284 m 0
 176 182 230 138 318 138 c 0
 346 138 373 146 404 161 c 1
 410 192 414 218 414 249 c 0
 414 382 364 442 290 442 c 0
 226 442 176 382 176 284 c 0
EndSplineSet
EndChar

StartChar: A.sc
Encoding: 63329 63329 387
Width: 579
VWidth: 0
Flags: W
HStem: 0 46<-3 46 140 197 330 385 542.444 586> 179 54<201 322>
DStem2: 53 54 131 65 0.382292 0.924042<39.9832 162.909 221.983 382.22> 337 506 261 382 0.393427 -0.919356<84.0996 245.083 303.383 427.994>
LayerCount: 2
Back
SplineSet
9 0 m 5
 9 47 l 5
 54 53 l 5
 240 506 l 5
 339 506 l 5
 528 54 l 5
 573 47 l 5
 573 0 l 5
 344 0 l 5
 344 47 l 5
 391 50 l 5
 396 60 l 5
 347 176 l 5
 180 176 l 5
 133 61 l 5
 140 51 l 5
 187 47 l 5
 187 0 l 5
 9 0 l 5
202 230 m 5
 325 230 l 5
 263 377 l 5
 202 230 l 5
EndSplineSet
Fore
SplineSet
-3 0 m 1
 -3 46 l 1
 53 54 l 1
 240 506 l 1
 337 506 l 1
 530 55 l 1
 586 46 l 1
 586 0 l 1
 330 0 l 1
 330 46 l 1
 385 50 l 1
 392 64 l 1
 344 179 l 1
 177 179 l 1
 131 65 l 1
 140 51 l 1
 197 46 l 1
 197 0 l 1
 -3 0 l 1
201 233 m 1
 322 233 l 1
 261 382 l 1
 260 382 l 1
 201 233 l 1
EndSplineSet
EndChar

StartChar: B.sc
Encoding: 63330 63330 388
Width: 572
VWidth: 0
Flags: W
HStem: 0 52<30 83 225.612 361.797> 231 54<225.285 333.935> 448 52<30 83 225.471 336.03>
VStem: 98 127<65 229.708 285.011 435> 362 132<323.581 425.381> 397 134<83.2095 200.405>
LayerCount: 2
Back
SplineSet
45 0 m 5xf4
 45 46 l 5
 89 51 l 5
 101 62 l 5
 101 440 l 5
 89 461 l 5
 45 454 l 5
 45 500 l 5
 297 500 l 6
 421 500 484 461 484 384 c 4xf8
 484 326 438 286 348 268 c 5
 459 266 521 221 521 147 c 4
 521 52 446 0 307 0 c 6
 45 0 l 5xf4
225 53 m 5
 238 52 250 52 261 52 c 4
 348 52 387 78 387 143 c 4xf4
 387 200 350 229 275 229 c 4
 263 229 246 229 225 227 c 5
 225 53 l 5
225 284 m 5
 231 283 238 283 244 283 c 4
 318 283 352 310 352 371 c 4xf8
 352 424 320 449 253 449 c 4
 244 449 235 449 225 448 c 5
 225 284 l 5
EndSplineSet
Fore
SplineSet
30 0 m 1xf4
 30 46 l 1
 83 50 l 1
 98 65 l 1
 98 435 l 1
 83 450 l 1
 30 454 l 1
 30 500 l 1
 301 500 l 2
 432 500 494 464 494 385 c 0xf8
 494 327 450 286 366 271 c 1
 366 270 l 1
 472 267 531 221 531 148 c 0
 531 52 455 0 311 0 c 2
 30 0 l 1xf4
225 54 m 1
 238 53 254 52 265 52 c 0
 359 52 397 81 397 144 c 0xf4
 397 199 359 231 279 231 c 0
 267 231 246 230 225 228 c 1
 225 54 l 1
225 287 m 1
 231 286 242 285 248 285 c 0
 328 285 362 313 362 372 c 0xf8
 362 424 330 448 257 448 c 0
 248 448 235 447 225 446 c 1
 225 287 l 1
EndSplineSet
EndChar

StartChar: C.sc
Encoding: 63331 63331 389
Width: 560
VWidth: 0
Flags: MW
HStem: -12 56<271.041 422.765> 456 56<268.086 423.328>
VStem: 41 140<148.947 354.203> 450 68<121.842 155 348 381.765>
LayerCount: 2
Back
SplineSet
41 250 m 0
 41 327 71 393 127 442 c 0
 179 488 251 511 337 511 c 0
 394 511 450 499 506 476 c 1
 506 351 l 1
 435 351 l 1
 421 426 l 1
 411 438 l 1
 391 445 371 449 351 449 c 0
 248 449 181 375 181 250 c 0
 181 124 249 49 361 49 c 0
 374 49 389 51 407 55 c 1
 418 66 l 1
 437 151 l 1
 506 151 l 1
 506 23 l 1
 450 0 393 -11 332 -11 c 0
 272 -11 220 1 179 23 c 0
 93 70 41 154 41 250 c 0
EndSplineSet
Fore
SplineSet
41 250 m 0
 41 327 71 393 127 442 c 0
 179 488 250 512 341 512 c 0
 402 512 462 500 518 477 c 1
 518 348 l 1
 448 348 l 1
 433 430 l 1
 419 446 l 1
 399 453 375 456 355 456 c 0
 248 456 181 379 181 250 c 0
 181 121 248 44 365 44 c 0
 378 44 398 47 416 51 c 1
 431 65 l 1
 450 155 l 1
 518 155 l 1
 518 22 l 1
 462 -1 401 -12 336 -12 c 0
 272 -12 220 1 179 23 c 0
 93 70 41 154 41 250 c 0
EndSplineSet
EndChar

StartChar: D.sc
Encoding: 63332 63332 390
Width: 631
VWidth: 0
Flags: HMW
HStem: 0 55<229 370.483> 445 55<229 366.261>
VStem: 102 127<65 435> 448 142<142.294 356.369>
LayerCount: 2
Back
SplineSet
44 0 m 5
 44 47 l 5
 90 51 l 5
 102 63 l 5
 102 437 l 5
 90 449 l 5
 44 453 l 5
 44 500 l 5
 290 500 l 6
 485 500 592 406 592 250 c 4
 592 162 557 93 489 47 c 4
 437 11 374 0 290 0 c 6
 44 0 l 5
229 53 m 5
 273 53 l 6
 393 53 450 117 450 250 c 4
 450 383 393 447 273 447 c 6
 229 447 l 5
 229 53 l 5
EndSplineSet
Fore
SplineSet
30 0 m 1
 30 46 l 1
 87 50 l 1
 102 65 l 1
 102 435 l 1
 87 450 l 1
 30 454 l 1
 30 500 l 1
 290 500 l 2
 483 500 590 406 590 250 c 0
 590 162 555 93 487 47 c 0
 435 11 372 0 290 0 c 2
 30 0 l 1
229 55 m 1
 273 55 l 2
 393 55 448 118 448 250 c 0
 448 382 393 445 273 445 c 2
 229 445 l 1
 229 55 l 1
EndSplineSet
EndChar

StartChar: E.sc
Encoding: 63333 63333 391
Width: 540
VWidth: 0
Flags: MW
HStem: 0 54<227 409> 230 56<227 315> 446 54<227 387>
VStem: 100 127<65 230 286 435> 337 58<162 210.125 305.5 351> 417 63<369 404> 443 65<116.059 149>
LayerCount: 2
Back
SplineSet
42 0 m 1x3340
 42 47 l 1
 88 51 l 1
 100 63 l 1
 100 439 l 1
 88 449 l 1
 42 453 l 1
 42 500 l 1x3740
 473 500 l 1
 473 379 l 1
 406 379 l 1x1b80
 395 438 l 1
 383 447 l 1
 224 447 l 1
 224 287 l 1
 322 287 l 1
 332 296 l 1
 340 345 l 1
 396 345 l 1
 396 171 l 1
 340 171 l 1
 332 220 l 1
 322 229 l 1
 224 229 l 1
 224 54 l 1
 411 54 l 1x5780
 423 65 l 1
 440 136 l 1
 505 136 l 1
 505 0 l 1x9340
 42 0 l 1x3340
EndSplineSet
Fore
SplineSet
31 0 m 5xfa
 31 46 l 5
 85 50 l 5
 100 65 l 5
 100 435 l 1
 85 450 l 1
 31 454 l 1
 31 500 l 1
 480 500 l 5
 480 369 l 5
 417 369 l 5xfc
 404 433 l 5
 387 446 l 5
 227 446 l 5
 227 286 l 5
 315 286 l 5
 329 299 l 5
 337 351 l 5
 395 351 l 5
 395 162 l 5
 337 162 l 5
 329 217 l 5
 315 230 l 5
 227 230 l 5
 227 54 l 5
 409 54 l 5
 426 69 l 5
 443 149 l 5
 508 149 l 5
 508 0 l 5
 31 0 l 5xfa
EndSplineSet
EndChar

StartChar: F.sc
Encoding: 63334 63334 392
Width: 505
Flags: MW
HStem: 0 46<31 87 244 313> 218 56<229 318> 445 55<229 384>
VStem: 102 127<65 218 274 435> 341 58<148 197.875 294.25 338> 416 64<347 388>
LayerCount: 2
Back
SplineSet
42 453 m 5xcf
 42 500 l 5xcf
 472 500 l 5
 472 371 l 5
 406 371 l 5xe7
 393 436 l 5
 380 445 l 5
 228 445 l 5xd7
 228 277 l 5
 329 277 l 5
 339 286 l 5
 347 335 l 5
 403 335 l 5
 403 160 l 5
 347 160 l 5
 339 209 l 5
 329 218 l 5
 228 218 l 5
 228 61 l 5
 241 50 l 5
 294 47 l 5
 294 0 l 5
 45 0 l 5
 45 47 l 5
 90 50 l 5
 102 61 l 5
 102 438 l 5
 90 449 l 5
 42 453 l 5xcf
EndSplineSet
Fore
SplineSet
29 454 m 1
 29 500 l 1
 480 500 l 1
 480 347 l 1
 416 347 l 1
 402 429 l 1
 384 445 l 1
 229 445 l 1
 229 274 l 1
 318 274 l 1
 333 288 l 1
 341 338 l 1
 399 338 l 1
 399 148 l 1
 341 148 l 1
 333 205 l 1
 318 218 l 1
 229 218 l 1
 229 65 l 1
 244 50 l 1
 313 46 l 1
 313 0 l 1
 31 0 l 1
 31 46 l 1
 87 50 l 1
 102 65 l 1
 102 435 l 1
 87 450 l 1
 29 454 l 1
EndSplineSet
EndChar

StartChar: G.sc
Encoding: 63335 63335 393
Width: 629
VWidth: 0
Flags: MW
HStem: -12 57<279.27 416.483> 207 46<344 402 556 606> 455 57<275.544 438.848>
VStem: 41 139<150.553 353.804> 418 122<46.416 189> 471 69<353 380.263>
LayerCount: 2
Back
SplineSet
41 253 m 4
 41 407 162 510 350 510 c 4
 406 510 465 500 528 479 c 5
 528 355 l 5
 458 355 l 5
 440 427 l 5
 426 439 l 5
 405 446 385 450 363 450 c 4
 249 450 179 377 179 254 c 4
 179 127 250 53 365 53 c 4
 372 53 387 54 406 55 c 5
 406 192 l 5
 394 202 l 5
 339 205 l 5
 339 253 l 5
 584 253 l 5
 584 205 l 5
 540 202 l 5
 528 192 l 5
 528 28 l 5
 463 2 401 -11 339 -11 c 4
 161 -11 41 97 41 253 c 4
EndSplineSet
Fore
SplineSet
41 253 m 0xf4
 41 407 164 512 354 512 c 0
 414 512 479 504 540 480 c 1
 540 353 l 1
 471 353 l 1xf4
 452 427 l 1
 435 443 l 1
 414 450 389 455 367 455 c 0
 253 455 180 377 180 254 c 0
 180 127 254 45 369 45 c 0
 376 45 401 46 418 49 c 1
 418 189 l 1
 402 202 l 1
 344 207 l 1
 344 253 l 1
 606 253 l 1
 606 207 l 1
 556 202 l 1
 540 189 l 1xf8
 540 27 l 1
 476 0 411 -12 345 -12 c 0
 165 -12 41 97 41 253 c 0xf4
EndSplineSet
EndChar

StartChar: H.sc
Encoding: 63336 63336 394
Width: 664
VWidth: 0
Flags: W
HStem: 0 46<31 83 240 293 371 424 581 633> 234 56<225 439> 454 46<31 83 240 293 371 424 581 633>
VStem: 98 127<65 435> 439 127<65 435>
LayerCount: 2
Back
SplineSet
33 0 m 1
 33 47 l 1
 77 50 l 1
 89 61 l 1
 89 439 l 1
 77 450 l 1
 33 453 l 1
 33 500 l 1
 273 500 l 1
 273 453 l 1
 228 450 l 1
 216 439 l 1
 216 290 l 1
 433 290 l 1
 433 439 l 1
 422 450 l 1
 377 453 l 1
 377 500 l 1
 616 500 l 1
 616 453 l 1
 572 450 l 1
 560 439 l 1
 560 61 l 1
 572 50 l 1
 616 47 l 1
 616 0 l 1
 377 0 l 1
 377 47 l 1
 422 50 l 1
 433 61 l 1
 433 232 l 1
 216 232 l 1
 216 61 l 1
 228 50 l 1
 273 47 l 1
 273 0 l 1
 33 0 l 1
EndSplineSet
Fore
SplineSet
31 0 m 1
 31 46 l 1
 83 50 l 1
 98 65 l 1
 98 435 l 1
 83 450 l 1
 31 454 l 1
 31 500 l 1
 293 500 l 1
 293 454 l 1
 240 450 l 1
 225 435 l 1
 225 65 l 1
 240 50 l 1
 293 46 l 1
 293 0 l 1
 31 0 l 1
439 234 m 1
 225 234 l 1
 225 290 l 1
 439 290 l 1
 439 234 l 1
633 0 m 1
 371 0 l 1
 371 46 l 1
 424 50 l 1
 439 65 l 1
 439 435 l 1
 424 450 l 1
 371 454 l 1
 371 500 l 1
 633 500 l 1
 633 454 l 1
 581 450 l 1
 566 435 l 1
 566 65 l 1
 581 50 l 1
 633 46 l 1
 633 0 l 1
EndSplineSet
EndChar

StartChar: I.sc
Encoding: 63337 63337 395
Width: 334
VWidth: 0
Flags: W
HStem: 0 46<31 88 246 303> 454 46<31 88 246 303>
VStem: 103 128<65 435>
LayerCount: 2
Back
SplineSet
33 0 m 1
 33 47 l 1
 83 51 l 1
 95 62 l 1
 95 440 l 1
 83 449 l 1
 33 453 l 1
 33 500 l 1
 285 500 l 1
 285 453 l 1
 235 449 l 1
 223 440 l 1
 223 62 l 1
 235 51 l 1
 285 47 l 1
 285 0 l 1
 33 0 l 1
EndSplineSet
Fore
SplineSet
31 0 m 1
 31 46 l 1
 88 50 l 1
 103 65 l 1
 103 435 l 1
 88 450 l 1
 31 454 l 1
 31 500 l 1
 303 500 l 1
 303 454 l 1
 246 450 l 1
 231 435 l 1
 231 65 l 1
 246 50 l 1
 303 46 l 1
 303 0 l 1
 31 0 l 1
EndSplineSet
EndChar

StartChar: J.sc
Encoding: 63338 63338 396
Width: 422
VWidth: 0
Flags: MW
HStem: -12 56<109.679 192.943> 454 46<142 209 366 419>
VStem: 15 69<118.278 156> 224 127<80.11 435>
LayerCount: 2
Back
SplineSet
15 12 m 1
 15 148 l 1
 85 148 l 1
 102 54 l 1
 113 45 l 1
 117 45 121 44 125 44 c 0
 193 44 213 93 213 197 c 2
 213 440 l 1
 201 449 l 1
 149 453 l 1
 149 500 l 1
 396 500 l 1
 396 453 l 1
 350 449 l 1
 338 440 l 1
 338 190 l 2
 338 53 278 -11 138 -11 c 0
 98 -11 57 -3 15 12 c 1
EndSplineSet
Fore
SplineSet
15 12 m 1
 15 156 l 1
 84 156 l 1
 102 59 l 1
 117 46 l 1
 121 45 128 44 136 44 c 0
 204 44 224 92 224 202 c 2
 224 435 l 1
 209 450 l 1
 142 454 l 1
 142 500 l 1
 419 500 l 1
 419 454 l 1
 366 450 l 1
 351 435 l 1
 351 195 l 2
 351 54 289 -12 149 -12 c 0
 104 -12 57 -3 15 12 c 1
EndSplineSet
EndChar

StartChar: K.sc
Encoding: 63339 63339 397
Width: 610
VWidth: 0
Flags: W
HStem: 0 46<31 85 242 295 542 607> 217 46<227 245> 454 46<31 85 242 294 365 408 522.25 580>
VStem: 100 127<65 435>
DStem2: 245 263 357 292 0.696786 0.717279<98.8411 243.977> 357 292 266 217 0.612106 -0.790775<3.60647 232.177>
LayerCount: 2
Back
SplineSet
43 0 m 5
 43 47 l 5
 89 50 l 5
 100 61 l 5
 100 440 l 5
 89 450 l 5
 43 453 l 5
 43 500 l 5
 289 500 l 5
 289 453 l 5
 240 450 l 5
 227 440 l 5
 227 260 l 5
 247 260 l 5
 426 441 l 5
 421 450 l 5
 379 453 l 5
 379 500 l 5
 570 500 l 5
 570 453 l 5
 517 448 l 5
 363 292 l 5
 548 51 l 5
 602 47 l 5
 602 0 l 5
 409 0 l 5
 409 34 l 5
 270 214 l 5
 227 214 l 5
 227 61 l 5
 240 50 l 5
 289 47 l 5
 289 0 l 5
 43 0 l 5
EndSplineSet
Fore
SplineSet
31 0 m 1
 31 46 l 1
 85 50 l 1
 100 65 l 1
 100 435 l 1
 85 450 l 1
 31 454 l 1
 31 500 l 1
 294 500 l 1
 294 454 l 1
 242 450 l 1
 227 435 l 1
 227 65 l 1
 242 50 l 1
 295 46 l 1
 295 0 l 1
 31 0 l 1
227 263 m 1
 245 263 l 1
 415 438 l 1
 408 450 l 1
 365 454 l 1
 365 500 l 1
 580 500 l 1
 580 454 l 1
 514 446 l 1
 357 292 l 1
 542 53 l 1
 607 46 l 1
 607 0 l 1
 403 0 l 1
 403 34 l 1
 266 217 l 1
 227 217 l 1
 227 263 l 1
EndSplineSet
EndChar

StartChar: L.sc
Encoding: 63340 63340 398
Width: 499
Flags: W
HStem: 0 55<227 381> 0 46<28 85> 454 46<28 85 242 301>
VStem: 100 127<65 435> 413 66<121 171>
LayerCount: 2
Back
SplineSet
30 0 m 1
 30 47 l 1
 76 51 l 1
 89 63 l 1
 89 440 l 1
 78 449 l 1
 30 453 l 1
 30 500 l 1
 274 500 l 1
 274 453 l 1
 228 449 l 1
 216 440 l 1
 216 55 l 1
 360 55 l 1
 370 66 l 1
 381 152 l 1
 452 152 l 1
 452 0 l 1
 30 0 l 1
EndSplineSet
Fore
SplineSet
28 0 m 1x78
 28 46 l 1x78
 85 50 l 1
 100 65 l 1
 100 435 l 1
 85 450 l 1
 28 454 l 1
 28 500 l 1
 301 500 l 1
 301 454 l 1
 242 450 l 1
 227 435 l 1
 227 55 l 1
 381 55 l 1xb8
 399 71 l 1
 413 171 l 1
 479 171 l 1
 479 0 l 1
 28 0 l 1x78
EndSplineSet
EndChar

StartChar: M.sc
Encoding: 63341 63341 399
Width: 786
VWidth: 0
Flags: W
HStem: 0 46<29 87 183 239 499 549 702 758> 454 46<29 87 702 758>
VStem: 102 66<65 408> 564 123<65 408>
DStem2: 268 473 169 408 0.359132 -0.933287<25.1095 340.599> 391 155 399 0 0.370998 0.928634<0 298.385>
LayerCount: 2
Back
SplineSet
43 0 m 5
 43 47 l 5
 91 52 l 5
 102 65 l 5
 102 441 l 5
 93 450 l 5
 43 454 l 5
 43 500 l 5
 268 500 l 5
 268 473 l 5
 395 152 l 5
 524 472 l 5
 524 500 l 5
 752 500 l 5
 752 454 l 5
 701 450 l 5
 693 440 l 5
 693 62 l 5
 701 51 l 5
 752 47 l 5
 752 0 l 5
 513 0 l 5
 513 47 l 5
 565 12 l 5
 573 24 l 5
 573 424 l 5
 402 0 l 5
 333 0 l 5
 171 409 l 5
 171 16 l 5
 183 2 l 5
 235 47 l 5
 235 0 l 5
 43 0 l 5
EndSplineSet
Fore
SplineSet
29 0 m 1
 29 46 l 1
 87 50 l 1
 102 65 l 1
 102 435 l 1
 87 450 l 1
 29 454 l 1
 29 500 l 1
 268 500 l 1
 268 473 l 1
 390 155 l 1
 391 155 l 1
 517 472 l 1
 517 500 l 1
 758 500 l 1
 758 454 l 1
 702 450 l 1
 687 435 l 1
 687 65 l 1
 702 50 l 1
 758 46 l 1
 758 0 l 1
 499 0 l 1
 499 46 l 1
 549 50 l 1
 564 65 l 1
 564 408 l 25
 562 408 l 17
 399 0 l 1
 326 0 l 1
 169 408 l 9
 168 408 l 25
 168 65 l 1
 183 50 l 1
 239 46 l 1
 239 0 l 1
 29 0 l 1
EndSplineSet
EndChar

StartChar: N.sc
Encoding: 63342 63342 400
Width: 637
VWidth: 0
Flags: W
HStem: 0 46<30 87 183 242> 454 46<29 87 414 468 564 617>
VStem: 102 66<65 367> 483 66<150 435>
DStem2: 237 474 169 367 0.602433 -0.798169<44.4387 406.203>
LayerCount: 2
Back
SplineSet
39 453 m 5
 39 500 l 5
 240 500 l 5
 240 474 l 5
 487 146 l 5
 487 465 l 5
 472 480 l 5
 422 455 l 5
 422 500 l 5
 614 500 l 5
 614 455 l 5
 570 449 l 5
 557 435 l 5
 557 0 l 5
 449 0 l 5
 168 373 l 5
 168 28 l 5
 181 15 l 5
 233 46 l 5
 233 0 l 5
 40 0 l 5
 40 46 l 5
 84 52 l 5
 98 64 l 5
 98 440 l 5
 87 449 l 5
 39 453 l 5
EndSplineSet
Fore
SplineSet
29 454 m 1
 29 500 l 1
 237 500 l 1
 237 474 l 1
 482 150 l 9
 483 150 l 25
 483 435 l 1
 468 450 l 1
 414 454 l 1
 414 500 l 1
 617 500 l 1
 617 454 l 1
 564 450 l 1
 549 435 l 1
 549 0 l 1
 446 0 l 1
 169 367 l 9
 168 367 l 25
 168 65 l 1
 183 50 l 1
 242 46 l 1
 242 0 l 1
 30 0 l 1
 30 46 l 1
 87 50 l 1
 102 65 l 1
 102 435 l 1
 87 450 l 1
 29 454 l 1
EndSplineSet
EndChar

StartChar: O.sc
Encoding: 63343 63343 401
Width: 650
VWidth: 0
Flags: W
HStem: -12 54<258.863 391.137> 458 54<258.863 391.137>
VStem: 41 142<143.28 356.72> 467 142<143.28 356.72>
LayerCount: 2
Back
SplineSet
41 253 m 0
 41 337 71 404 128 452 c 0
 181 496 246 519 324 519 c 0
 396 519 458 499 509 459 c 0
 574 408 609 335 609 248 c 0
 609 167 578 98 519 48 c 0
 468 4 401 -19 330 -19 c 0
 156 -19 41 90 41 253 c 0
183 251 m 0
 183 118 244 40 324 40 c 0
 407 40 466 118 466 246 c 0
 466 380 408 457 326 457 c 0
 243 457 183 380 183 251 c 0
EndSplineSet
Fore
SplineSet
41 250 m 0
 41 408 162 512 325 512 c 0
 488 512 609 408 609 250 c 0
 609 92 488 -12 325 -12 c 0
 162 -12 41 92 41 250 c 0
183 250 m 0
 183 120 243 42 325 42 c 0
 407 42 467 120 467 250 c 0
 467 380 407 458 325 458 c 0
 243 458 183 380 183 250 c 0
EndSplineSet
EndChar

StartChar: P.sc
Encoding: 63344 63344 402
Width: 537
VWidth: 0
Flags: HMW
HStem: 0 46<31 87 244 313> 179 56<229 342.978> 445 55<229 346.076>
VStem: 102 127<65 182 235.288 435> 383 132<272.592 410.346>
LayerCount: 2
Back
SplineSet
41 453 m 5xdc
 41 500 l 5xdc
 272 500 l 6xec
 430 500 505 456 505 347 c 4
 505 243 427 179 286 179 c 4
 273 179 254 180 229 182 c 5
 229 61 l 5
 240 50 l 5
 294 47 l 5
 294 0 l 5
 44 0 l 5
 44 47 l 5
 88 50 l 5
 102 61 l 5
 102 438 l 5
 91 449 l 5
 41 453 l 5xdc
229 237 m 5
 239 236 248 235 256 235 c 4
 334 235 373 272 373 344 c 4
 373 409 336 445 268 445 c 6
 229 445 l 5xec
 229 237 l 5
EndSplineSet
Fore
SplineSet
29 454 m 1
 29 500 l 1
 276 500 l 2
 439 500 515 454 515 347 c 0
 515 244 437 179 290 179 c 0
 275 179 254 180 229 182 c 1
 229 65 l 1
 244 50 l 1
 313 46 l 1
 313 0 l 1
 31 0 l 1
 31 46 l 1
 87 50 l 1
 102 65 l 1
 102 435 l 1
 87 450 l 1
 29 454 l 1
229 237 m 1
 239 236 252 235 260 235 c 0
 342 235 383 272 383 344 c 0
 383 409 344 445 272 445 c 2
 229 445 l 1
 229 237 l 1
EndSplineSet
EndChar

StartChar: Q.sc
Encoding: 63345 63345 403
Width: 650
VWidth: 0
Flags: HMW
HStem: -150 56<421.718 573.079> -6 48<390 407> 458 54<258.863 391.137>
VStem: 41 142<145.107 356.72> 257 133<-63.529 -2.15369> 467 142<144.803 356.72>
LayerCount: 2
Back
SplineSet
42 257 m 0
 42 315 59 367 93 412 c 0
 143 478 235 520 338 520 c 0
 418 520 483 501 536 462 c 0
 605 412 644 339 644 254 c 0
 644 124 553 25 413 4 c 1
 416 -56 452 -82 528 -82 c 0
 552 -82 579 -78 607 -71 c 1
 607 -119 l 1
 550 -133 501 -140 459 -140 c 0
 336 -140 278 -96 278 -1 c 2
 278 2 l 1
 134 21 42 120 42 257 c 0
186 252 m 0
 186 121 255 42 346 42 c 0
 435 42 499 119 499 249 c 0
 499 380 432 457 340 457 c 0
 251 457 186 381 186 252 c 0
EndSplineSet
Fore
SplineSet
41 250 m 0
 41 408 162 512 325 512 c 0
 488 512 609 408 609 250 c 0
 609 114 519 18 390 -6 c 1
 390 -63 429 -94 501 -94 c 0
 522 -94 547 -90 575 -83 c 1
 575 -129 l 1
 521 -141 467 -150 427 -150 c 0
 313 -150 257 -97 257 -6 c 1
 129 19 41 115 41 250 c 0
183 250 m 0
 183 120 243 42 325 42 c 0
 407 42 467 120 467 250 c 0
 467 380 407 458 325 458 c 0
 243 458 183 380 183 250 c 0
EndSplineSet
EndChar

StartChar: R.sc
Encoding: 63346 63346 404
Width: 614
VWidth: 0
Flags: HMW
HStem: 0 46<31 85 242 296 520 613> 218 54<227 325.233> 446 54<227 350.597>
VStem: 100 127<65 218 272.238 435> 383 134<313.503 414.745>
LayerCount: 2
Back
SplineSet
44 0 m 1xec
 44 47 l 1
 88 50 l 1
 100 61 l 1
 100 439 l 1
 88 449 l 1
 44 453 l 1
 44 500 l 1xdc
 306 500 l 2
 438 500 507 456 507 373 c 0
 507 305 453 262 349 246 c 1
 390 238 418 225 438 202 c 0
 464 171 472 133 488 97 c 0
 506 58 531 47 588 47 c 2
 599 47 l 1
 599 1 l 1
 570 -3 542 -6 517 -6 c 0
 482 -6 453 2 433 16 c 0
 391 45 383 78 370 113 c 0
 345 182 323 213 241 213 c 2
 227 213 l 1
 227 61 l 1
 239 50 l 1
 285 47 l 1
 285 0 l 1
 44 0 l 1xec
227 269 m 1
 237 268 246 268 254 268 c 0
 335 268 373 296 373 359 c 0
 373 415 335 446 262 446 c 2
 227 446 l 1xec
 227 269 l 1
EndSplineSet
Fore
SplineSet
31 0 m 1
 31 46 l 1
 85 50 l 1
 100 65 l 1
 100 435 l 1
 85 450 l 1
 31 454 l 1
 31 500 l 1
 309 500 l 2
 446 500 517 456 517 375 c 0
 517 310 462 267 359 251 c 1
 359 250 l 1
 437 235 464 192 487 127 c 0
 506 73 520 47 595 47 c 2
 613 47 l 1
 613 1 l 1
 584 -3 552 -6 527 -6 c 0
 442 -6 403 40 382 100 c 0
 356 174 337 218 244 218 c 2
 227 218 l 1
 227 65 l 1
 242 50 l 1
 296 46 l 1
 296 0 l 1
 31 0 l 1
227 274 m 1
 237 273 249 272 257 272 c 0
 339 272 383 300 383 361 c 0
 383 414 341 446 265 446 c 2
 227 446 l 1
 227 274 l 1
EndSplineSet
EndChar

StartChar: S.sc
Encoding: 63347 63347 405
Width: 484
VWidth: 0
Flags: HMW
HStem: -12 56<145.14 280.167> 456 56<203.831 327.459>
VStem: 52 68<121.438 163> 64 126<350.118 440.791> 304 130<69.7889 160.073> 352 65<346 383.625>
LayerCount: 2
Back
SplineSet
62 21 m 1
 62 156 l 1
 135 156 l 1
 150 72 l 1
 162 62 l 1
 178 56 195 52 212 52 c 0
 257 52 284 81 284 121 c 0
 284 160 259 187 211 213 c 0
 184 228 152 240 122 267 c 0
 91 295 75 331 75 367 c 0
 75 448 145 511 253 511 c 0
 300 511 347 500 395 479 c 1
 395 353 l 1
 326 353 l 1
 310 431 l 1
 296 440 l 1
 287 446 275 450 259 450 c 0
 222 450 199 421 199 381 c 0
 199 347 218 325 254 302 c 0
 275 288 312 277 352 249 c 0
 392 222 414 183 414 140 c 0
 414 53 336 -10 210 -10 c 0
 161 -10 110 0 62 21 c 1
EndSplineSet
Fore
SplineSet
52 18 m 1xe8
 52 163 l 1
 120 163 l 1
 136 68 l 1
 149 53 l 1
 165 47 195.2 44 218 44 c 0
 266.2 44 304 75 304 114 c 0xe8
 304 163 241.2 193 189.2 218 c 0
 129.085 246.901 64 287 64 370 c 0
 64 455 141 512 249 512 c 0
 305.2 512 369 503 417 482 c 1
 417 346 l 1
 352 346 l 1
 336 432 l 1
 322 446 l 1
 313 452 284.2 456 262 456 c 0
 222.2 456 190 435 190 398 c 0xd4
 190 347 235.813 325.18 305.2 293 c 0
 374.2 261 434 226 434 141 c 0
 434 54 350 -12 224 -12 c 0
 175 -12 100 -3 52 18 c 1xe8
EndSplineSet
EndChar

StartChar: T.sc
Encoding: 63348 63348 406
Width: 538
Flags: W
HStem: 0 46<132 190 348 406> 327 172<19 82 456 519> 445 54<118 205 333 420>
VStem: 19 63<327 368.588> 205 128<65 445> 456 63<327 368.588>
CounterMasks: 1 1c
LayerCount: 2
Back
SplineSet
19 332 m 1
 19 500 l 1
 508 500 l 1
 508 332 l 1
 442 332 l 1
 429 434 l 1
 418 446 l 1
 328 446 l 1
 328 60 l 1
 341 50 l 1
 390 47 l 1
 390 0 l 1
 138 0 l 1
 138 47 l 1
 186 50 l 1
 199 60 l 1
 199 446 l 1
 109 446 l 1
 97 434 l 1
 85 332 l 1
 19 332 l 1
EndSplineSet
Fore
SplineSet
19 327 m 1xdc
 19 499 l 1
 519 499 l 1
 519 327 l 1
 456 327 l 1xdc
 439 428 l 1
 420 445 l 1
 333 445 l 1
 333 65 l 1
 348 50 l 1
 406 46 l 1
 406 0 l 1
 132 0 l 1
 132 46 l 1
 190 50 l 1
 205 65 l 1
 205 445 l 1
 118 445 l 1xbc
 99 428 l 1
 82 327 l 1
 19 327 l 1xdc
EndSplineSet
EndChar

StartChar: U.sc
Encoding: 63349 63349 407
Width: 618
VWidth: 0
Flags: W
HStem: -12 72<266.77 424.567> 454 46<21 77 235 288 403 457 553 605>
VStem: 92 128<108.234 435> 472 66<111.554 435>
LayerCount: 2
Back
SplineSet
33 453 m 1
 33 500 l 1
 276 500 l 1
 276 453 l 1
 229 449 l 1
 219 440 l 1
 219 194 l 2
 219 104 251 64 341 64 c 0
 424 64 455 108 455 201 c 6
 455 437 l 5
 444 449 l 1
 396 453 l 1
 396 500 l 1
 581 500 l 1
 581 453 l 1
 535 449 l 1
 525 437 l 1
 525 183 l 2
 525 49 462 -11 306 -11 c 0
 224 -11 162 11 128 49 c 0
 96 86 91 130 91 186 c 2
 91 440 l 1
 80 449 l 1
 33 453 l 1
EndSplineSet
Fore
SplineSet
21 454 m 1
 21 500 l 1
 288 500 l 1
 288 454 l 1
 235 450 l 1
 220 435 l 1
 220 205 l 2
 220 115 248 60 348 60 c 0
 440 60 472 119 472 212 c 2
 472 435 l 1
 457 450 l 1
 403 454 l 1
 403 500 l 1
 605 500 l 1
 605 454 l 1
 553 450 l 1
 538 435 l 1
 538 194 l 2
 538 63 478 -12 315 -12 c 0
 161 -12 92 61 92 200 c 2
 92 435 l 1
 77 450 l 1
 21 454 l 1
EndSplineSet
EndChar

StartChar: V.sc
Encoding: 63350 63350 408
Width: 583
VWidth: 0
Flags: W
HStem: -2 21G<240.57 352.206> 454 46<-2 42.1 211 266 389 442 545.6 589>
DStem2: 201 435 61 444 0.388426 -0.92148<0 327.762> 327 132 344 -2 0.379602 0.92515<0 326.466>
LayerCount: 2
Back
SplineSet
12 453 m 1
 12 500 l 1
 249 500 l 1
 249 453 l 1
 205 450 l 1
 197 439 l 1
 325 132 l 1
 451 439 l 1
 443 450 l 1
 398 453 l 1
 398 500 l 1
 576 500 l 1
 576 453 l 1
 527 444 l 1
 344 -2 l 1
 249 -2 l 1
 62 444 l 1
 12 453 l 1
EndSplineSet
Fore
SplineSet
-2 454 m 1
 -2 500 l 1
 266 500 l 1
 266 454 l 1
 211 450 l 1
 201 435 l 1
 326 132 l 1
 327 132 l 1
 451 434 l 1
 442 450 l 1
 389 454 l 1
 389 500 l 1
 589 500 l 1
 589 454 l 1
 527 444 l 1
 344 -2 l 1
 249 -2 l 1
 61 444 l 1
 -2 454 l 1
EndSplineSet
EndChar

StartChar: W.sc
Encoding: 63351 63351 409
Width: 828
VWidth: 0
Flags: W
HStem: 0 21G<186.208 306.154 527.793 642.701> 454 46<4 34 199 256 621 660.333 793.5 824>
DStem2: 190 436 64 442 0.278164 -0.960534<0 310.844> 276 137 300 0 0.294086 0.955779<0 270.559> 496 500 417 377 0.296399 -0.955064<94.0574 380.478> 611 137 637 0 0.274146 0.961688<0 304.942>
LayerCount: 2
Back
SplineSet
5 453 m 1
 5 500 l 1
 229 500 l 1
 229 454 l 1
 183 449 l 1
 177 439 l 1
 264 157 l 1
 383 500 l 1
 473 500 l 1
 594 157 l 1
 675 434 l 1
 666 445 l 1
 617 453 l 1
 617 500 l 1
 796 500 l 1
 796 453 l 1
 749 443 l 1
 619 0 l 1
 530 0 l 1
 404 357 l 1
 281 0 l 1
 190 0 l 1
 52 443 l 1
 5 453 l 1
EndSplineSet
Fore
SplineSet
4 454 m 1
 4 500 l 1
 256 500 l 1
 256 455 l 1
 199 449 l 1
 190 436 l 1
 275 137 l 1
 276 137 l 1
 388 500 l 1
 496 500 l 1
 610 137 l 1
 611 137 l 1
 692 431 l 1
 680 445 l 1
 621 454 l 1
 621 500 l 1
 824 500 l 1
 824 454 l 1
 763 442 l 1
 637 0 l 1
 534 0 l 1
 417 377 l 1
 416 377 l 1
 300 0 l 1
 192 0 l 1
 64 442 l 1
 4 454 l 1
EndSplineSet
EndChar

StartChar: X.sc
Encoding: 63352 63352 410
Width: 564
Flags: W
HStem: 0 45<6 17.2727 199 213 307 331 553.556 566> 454 47<10 32.5 224 277 353 379.4 527.143 552>
DStem2: 68 56 158 62 0.657534 0.753425<63.6986 228.986 356.247 508.836> 219 441 70 446 0.600991 -0.799256<0 146.196 230.458 389.454>
LayerCount: 2
Back
SplineSet
15 0 m 1
 15 46 l 1
 63 53 l 1
 225 237 l 1
 69 447 l 1
 22 454 l 1
 22 500 l 1
 271 500 l 1
 271 454 l 1
 226 451 l 1
 220 441 l 1
 304 328 l 1
 402 439 l 1
 395 450 l 1
 354 454 l 1
 354 500 l 1
 544 500 l 1
 544 454 l 1
 497 448 l 1
 344 274 l 1
 507 55 l 1
 557 46 l 1
 557 0 l 1
 303 0 l 1
 303 46 l 1
 351 51 l 1
 356 61 l 1
 265 183 l 1
 158 62 l 1
 163 50 l 1
 212 46 l 1
 212 0 l 1
 15 0 l 1
EndSplineSet
Fore
SplineSet
6 0 m 1
 6 45 l 1
 68 56 l 1
 226 239 l 1
 70 446 l 1
 10 454 l 1
 10 501 l 1
 277 501 l 1
 277 458 l 1
 224 452 l 1
 219 441 l 1
 304 322 l 1
 305 322 l 1
 403 439 l 1
 397 449 l 1
 353 456 l 1
 353 501 l 1
 552 501 l 1
 552 454 l 1
 494 447 l 1
 342 274 l 1
 510 54 l 1
 566 45 l 1
 566 0 l 1
 307 0 l 1
 307 40 l 1
 355 49 l 1
 359 59 l 1
 266 188 l 1
 265 188 l 1
 158 62 l 1
 164 52 l 1
 213 45 l 1
 213 0 l 1
 6 0 l 1
EndSplineSet
EndChar

StartChar: Y.sc
Encoding: 63353 63353 411
Width: 548
Flags: W
HStem: 0 46<152 210 368 426> 454 46<2 48.5 223 273 346 390.571 512 550>
VStem: 225 128<65 188>
DStem2: 213 437 64 446 0.529408 -0.848368<0 192.602> 315 273 353 213 0.516665 0.856188<0 182.811>
LayerCount: 2
Back
SplineSet
24 453 m 1
 24 500 l 1
 259 500 l 1
 259 453 l 1
 217 450 l 1
 210 441 l 1
 309 271 l 1
 411 435 l 1
 405 447 l 1
 360 454 l 1
 360 500 l 1
 541 500 l 1
 541 453 l 1
 496 445 l 1
 358 224 l 1
 358 61 l 1
 370 50 l 1
 421 48 l 1
 421 0 l 1
 169 0 l 1
 169 48 l 1
 219 18 l 1
 231 28 l 1
 231 173 l 1
 72 446 l 1
 24 453 l 1
EndSplineSet
Fore
SplineSet
2 454 m 1
 2 500 l 1
 273 500 l 1
 273 454 l 1
 223 450 l 1
 213 437 l 1
 314 273 l 5
 315 273 l 5
 407 431 l 1
 398 447 l 1
 346 455 l 1
 346 500 l 1
 550 500 l 1
 550 454 l 1
 493 445 l 1
 353 213 l 1
 353 65 l 1
 368 50 l 1
 426 46 l 1
 426 0 l 1
 152 0 l 1
 152 46 l 1
 210 50 l 1
 225 65 l 1
 225 188 l 1
 64 446 l 1
 2 454 l 1
EndSplineSet
EndChar

StartChar: Z.sc
Encoding: 63354 63354 412
Width: 522
Flags: W
HStem: 0 56<198 381> 445 55<153 319>
VStem: 63 67<346 405.5> 408 69<111.583 167>
DStem2: 47 52 198 57 0.570082 0.821588<90.1903 477.125>
LayerCount: 2
Back
SplineSet
47 0 m 1
 47 52 l 1
 313 445 l 1
 144 445 l 1
 130 437 l 1
 134 358 l 1
 66 358 l 1
 66 500 l 1
 459 500 l 1
 459 447 l 1
 194 56 l 1
 386 56 l 1
 393 66 l 1
 396 150 l 1
 465 150 l 1
 465 0 l 1
 47 0 l 1
EndSplineSet
Fore
SplineSet
47 0 m 1
 47 52 l 1
 319 444 l 1
 319 445 l 1
 153 445 l 1
 140 431 l 1
 130 346 l 1
 63 346 l 1
 63 500 l 1
 471 500 l 1
 471 448 l 1
 198 57 l 1
 198 56 l 1
 381 56 l 1
 396 72 l 1
 408 167 l 1
 477 167 l 1
 477 0 l 1
 47 0 l 1
EndSplineSet
EndChar

StartChar: AE.sc
Encoding: 63462 63462 413
Width: 795
VWidth: 0
Flags: HMW
HStem: 0 54<491 664> 179 54<234 368> 230 56<491 570> 446 54<491 642>
VStem: 368 123<65 179 286 435> 592 58<162 210.125 305.5 351> 672 63<369 403.462> 698 65<116.059 149>
DStem2: 35 53 122 66 0.556209 0.831042<59.1938 194.261 260.273 458.46>
LayerCount: 2
Back
SplineSet
-10 0 m 5
 -10 47 l 5
 35 53 l 5
 292 438 l 5
 284 449 l 5
 241 453 l 5
 241 500 l 5
 729 500 l 5
 729 379 l 5
 662 379 l 5
 648 438 l 5
 638 447 l 5
 489 447 l 5
 489 287 l 5
 578 287 l 5
 588 296 l 5
 596 345 l 5
 651 345 l 5
 651 169 l 5
 596 169 l 5
 588 234 l 5
 578 229 l 5
 489 229 l 5
 489 54 l 5
 666 54 l 5
 679 65 l 5
 696 134 l 5
 761 134 l 5
 761 0 l 5
 307 0 l 5
 307 47 l 5
 355 51 l 5
 368 63 l 5
 368 178 l 5
 196 178 l 5
 119 62 l 5
 124 52 l 5
 169 47 l 5
 169 0 l 5
 -10 0 l 5
234 235 m 5
 368 235 l 5
 368 435 l 5
 234 235 l 5
EndSplineSet
Fore
SplineSet
-21 0 m 1xdd
 -21 46 l 1
 35 53 l 1
 290 434 l 1
 281 449 l 1
 229 454 l 1
 229 500 l 1
 735 500 l 1
 735 369 l 1
 672 369 l 1
 659 433 l 1
 642 446 l 1
 491 446 l 1
 491 286 l 1
 570 286 l 1
 584 299 l 1
 592 351 l 1
 650 351 l 1
 650 162 l 1
 592 162 l 1
 584 217 l 1
 570 230 l 1
 491 230 l 1xbe
 491 54 l 1
 664 54 l 1
 681 69 l 1
 698 149 l 1
 763 149 l 1
 763 0 l 1
 299 0 l 1
 299 46 l 1
 353 50 l 1
 368 65 l 1
 368 179 l 1
 196 179 l 1
 122 66 l 1
 127 52 l 1
 185 46 l 1
 185 0 l 1
 -21 0 l 1xdd
234 233 m 1xdc
 368 233 l 1
 368 435 l 1
 367 435 l 1
 234 233 l 1xdc
EndSplineSet
EndChar

